M48
INCH,TZ
T1C0.039
T2C0.047
%
G90
G05
T1
X41141Y-35433
X42126Y-29315
X42126Y-30315
X42307Y-32677
X43110Y-35433
X43307Y-32677
X44307Y-32677
X47046Y-35433
X47441Y-29528
X48213Y-32677
X49015Y-35433
X49213Y-32677
X49410Y-29528
X50213Y-32677
X50969Y-29528
X51969Y-29528
T2
X41732Y-22441
X41732Y-26378
X42732Y-22441
X42732Y-26378
X45276Y-37402
X46276Y-37402
X48031Y-22441
X48031Y-26378
X49031Y-22441
X49031Y-26378
T0
M30
