%TF.GenerationSoftware,KiCad,Pcbnew,4.0.4-stable*%
%TF.CreationDate,2016-11-23T17:03:18+01:00*%
%TF.ProjectId,Prototype,50726F746F747970652E6B696361645F,rev?*%
%TF.FileFunction,Copper,L1,Top,Signal*%
%FSLAX46Y46*%
G04 Gerber Fmt 4.6, Leading zero omitted, Abs format (unit mm)*
G04 Created by KiCad (PCBNEW 4.0.4-stable) date 11/23/16 17:03:18*
%MOMM*%
%LPD*%
G01*
G04 APERTURE LIST*
%ADD10C,0.100000*%
%ADD11R,1.300000X1.300000*%
%ADD12C,1.300000*%
%ADD13C,1.998980*%
%ADD14R,1.998980X1.998980*%
%ADD15R,1.900000X2.000000*%
%ADD16C,1.900000*%
%ADD17O,2.300000X1.600000*%
%ADD18R,2.000000X2.600000*%
%ADD19O,2.000000X2.600000*%
%ADD20R,1.500000X1.500000*%
%ADD21C,1.500000*%
%ADD22R,2.600000X2.000000*%
%ADD23O,2.600000X2.000000*%
%ADD24C,2.500000*%
%ADD25C,1.501140*%
%ADD26R,2.000000X2.000000*%
%ADD27C,2.000000*%
%ADD28O,1.699260X3.500120*%
%ADD29C,1.000000*%
%ADD30C,0.254000*%
G04 APERTURE END LIST*
D10*
D11*
X87000000Y-110000000D03*
D12*
X84500000Y-110000000D03*
D11*
X87000000Y-115000000D03*
D12*
X84500000Y-115000000D03*
D13*
X131190000Y-95000000D03*
D14*
X135000000Y-95000000D03*
D13*
X144190000Y-95000000D03*
D14*
X148000000Y-95000000D03*
D15*
X121000000Y-116000000D03*
D16*
X123540000Y-116000000D03*
D17*
X107000000Y-90000000D03*
X107000000Y-92540000D03*
X107000000Y-95080000D03*
X107000000Y-97620000D03*
X107000000Y-100160000D03*
X107000000Y-102700000D03*
X107000000Y-105240000D03*
X107000000Y-107780000D03*
X107000000Y-110320000D03*
X107000000Y-112860000D03*
X107000000Y-115400000D03*
X107000000Y-117940000D03*
X107000000Y-120480000D03*
X107000000Y-123020000D03*
X114620000Y-123020000D03*
X114620000Y-120480000D03*
X114620000Y-117940000D03*
X114620000Y-115400000D03*
X114620000Y-112860000D03*
X114620000Y-110320000D03*
X114620000Y-107780000D03*
X114620000Y-105240000D03*
X114620000Y-102700000D03*
X114620000Y-100160000D03*
X114620000Y-97620000D03*
X114620000Y-95080000D03*
X114620000Y-92540000D03*
X114620000Y-90000000D03*
D18*
X135000000Y-123000000D03*
D19*
X132460000Y-123000000D03*
D18*
X152000000Y-123000000D03*
D19*
X149460000Y-123000000D03*
D20*
X97000000Y-94000000D03*
D21*
X97000000Y-92000000D03*
X97000000Y-90000000D03*
D18*
X144000000Y-123000000D03*
D19*
X141460000Y-123000000D03*
D22*
X87000000Y-103000000D03*
D23*
X87000000Y-100460000D03*
D13*
X139000000Y-87500640D03*
X139000000Y-92501900D03*
X152000000Y-87500640D03*
X152000000Y-92501900D03*
X120500640Y-123000000D03*
X125501900Y-123000000D03*
D24*
X139000000Y-99000000D03*
X131380000Y-99000000D03*
X139000000Y-106620000D03*
X139000000Y-111700000D03*
X139000000Y-116780000D03*
X131380000Y-116780000D03*
X131380000Y-111700000D03*
X131380000Y-106620000D03*
X153000000Y-99000000D03*
X145380000Y-99000000D03*
X153000000Y-106620000D03*
X153000000Y-111700000D03*
X153000000Y-116780000D03*
X145380000Y-116780000D03*
X145380000Y-111700000D03*
X145380000Y-106620000D03*
D25*
X92000000Y-110559060D03*
X92000000Y-115440940D03*
D26*
X87000000Y-95000000D03*
D12*
X87000000Y-90000000D03*
D26*
X92000000Y-95000000D03*
D12*
X92000000Y-90000000D03*
D27*
X96000000Y-124500000D03*
X96000000Y-120000000D03*
X102500000Y-124500000D03*
X102500000Y-120000000D03*
X124500000Y-109000000D03*
X120000000Y-109000000D03*
X124500000Y-102500000D03*
X120000000Y-102500000D03*
X124500000Y-97000000D03*
X120000000Y-97000000D03*
X124500000Y-90500000D03*
X120000000Y-90500000D03*
D15*
X131000000Y-87000000D03*
D16*
X133540000Y-87000000D03*
D15*
X144000000Y-87000000D03*
D16*
X146540000Y-87000000D03*
D28*
X98000000Y-103000000D03*
X95460000Y-103000000D03*
X100540000Y-103000000D03*
D18*
X85000000Y-84000000D03*
D19*
X87540000Y-84000000D03*
X90080000Y-84000000D03*
D29*
X92000000Y-110559060D02*
X106760940Y-110559060D01*
X106760940Y-110559060D02*
X107000000Y-110320000D01*
X87000000Y-110000000D02*
X91440940Y-110000000D01*
X91440940Y-110000000D02*
X92000000Y-110559060D01*
X92000000Y-115440940D02*
X99559060Y-115440940D01*
X102140000Y-112860000D02*
X107000000Y-112860000D01*
X99559060Y-115440940D02*
X102140000Y-112860000D01*
X87000000Y-115000000D02*
X91559060Y-115000000D01*
X91559060Y-115000000D02*
X92000000Y-115440940D01*
X114620000Y-92540000D02*
X116540000Y-92540000D01*
X127000000Y-92000000D02*
X138498100Y-92000000D01*
X125000000Y-94000000D02*
X127000000Y-92000000D01*
X118000000Y-94000000D02*
X125000000Y-94000000D01*
X116540000Y-92540000D02*
X118000000Y-94000000D01*
X138498100Y-92000000D02*
X139000000Y-92501900D01*
X135000000Y-95000000D02*
X138501900Y-93000000D01*
X138501900Y-93000000D02*
X139000000Y-92501900D01*
X139000000Y-92501900D02*
X139000000Y-99000000D01*
X114620000Y-90000000D02*
X114620000Y-87380000D01*
X157000000Y-87501900D02*
X152000000Y-92501900D01*
X157000000Y-87000000D02*
X157000000Y-87501900D01*
X152000000Y-82000000D02*
X157000000Y-87000000D01*
X120000000Y-82000000D02*
X152000000Y-82000000D01*
X114620000Y-87380000D02*
X120000000Y-82000000D01*
X152000000Y-92501900D02*
X148498100Y-94501900D01*
X148498100Y-94501900D02*
X148000000Y-95000000D01*
X153000000Y-99000000D02*
X153000000Y-93501900D01*
X153000000Y-93501900D02*
X152000000Y-92501900D01*
X125501900Y-123000000D02*
X125501900Y-117961900D01*
X125501900Y-117961900D02*
X123540000Y-116000000D01*
X97000000Y-90000000D02*
X100000000Y-90000000D01*
X102540000Y-92540000D02*
X107000000Y-92540000D01*
X100000000Y-90000000D02*
X102540000Y-92540000D01*
X97000000Y-92000000D02*
X99000000Y-92000000D01*
X102080000Y-95080000D02*
X107000000Y-95080000D01*
X99000000Y-92000000D02*
X102080000Y-95080000D01*
X97000000Y-94000000D02*
X97000000Y-95000000D01*
X104700000Y-102700000D02*
X107000000Y-102700000D01*
X97000000Y-95000000D02*
X104700000Y-102700000D01*
X100540000Y-103000000D02*
X101000000Y-103000000D01*
X101000000Y-103000000D02*
X103240000Y-105240000D01*
X103240000Y-105240000D02*
X107000000Y-105240000D01*
X92000000Y-95000000D02*
X94000000Y-95000000D01*
X94000000Y-95000000D02*
X100540000Y-101540000D01*
X100540000Y-101540000D02*
X100540000Y-103000000D01*
X107000000Y-105240000D02*
X108240000Y-105240000D01*
X113320000Y-110320000D02*
X114620000Y-110320000D01*
X108240000Y-105240000D02*
X113320000Y-110320000D01*
X114620000Y-110320000D02*
X116320000Y-110320000D01*
X116320000Y-110320000D02*
X118000000Y-112000000D01*
X118000000Y-112000000D02*
X118000000Y-120499360D01*
X118000000Y-120499360D02*
X120500640Y-123000000D01*
X102500000Y-120000000D02*
X102500000Y-120500000D01*
X102500000Y-120500000D02*
X105020000Y-123020000D01*
X105020000Y-123020000D02*
X107000000Y-123020000D01*
X114620000Y-102700000D02*
X119800000Y-102700000D01*
X119800000Y-102700000D02*
X120000000Y-102500000D01*
X114620000Y-100160000D02*
X116840000Y-100160000D01*
X116840000Y-100160000D02*
X120000000Y-97000000D01*
X135000000Y-123000000D02*
X138000000Y-120000000D01*
X138000000Y-117780000D02*
X139000000Y-116780000D01*
X138000000Y-120000000D02*
X138000000Y-117780000D01*
X132460000Y-123000000D02*
X132000000Y-123000000D01*
X132000000Y-123000000D02*
X131380000Y-122380000D01*
X131380000Y-122380000D02*
X131380000Y-116780000D01*
X152000000Y-123000000D02*
X152000000Y-117780000D01*
X152000000Y-117780000D02*
X153000000Y-116780000D01*
X149460000Y-123000000D02*
X149460000Y-122460000D01*
X149460000Y-122460000D02*
X145380000Y-118380000D01*
X145380000Y-118380000D02*
X145380000Y-116780000D01*
X144000000Y-123000000D02*
X144000000Y-125000000D01*
X157000000Y-110620000D02*
X153000000Y-106620000D01*
X157000000Y-125000000D02*
X157000000Y-110620000D01*
X154000000Y-128000000D02*
X157000000Y-125000000D01*
X147000000Y-128000000D02*
X154000000Y-128000000D01*
X144000000Y-125000000D02*
X147000000Y-128000000D01*
X131380000Y-106620000D02*
X130380000Y-106620000D01*
X130380000Y-106620000D02*
X128000000Y-109000000D01*
X128000000Y-109000000D02*
X128000000Y-126000000D01*
X128000000Y-126000000D02*
X130000000Y-128000000D01*
X130000000Y-128000000D02*
X136460000Y-128000000D01*
X136460000Y-128000000D02*
X141460000Y-123000000D01*
X95460000Y-103000000D02*
X95000000Y-103000000D01*
X95000000Y-103000000D02*
X87000000Y-95000000D01*
X87000000Y-103000000D02*
X95460000Y-103000000D01*
X87000000Y-95000000D02*
X87460000Y-95000000D01*
X139000000Y-106620000D02*
X145380000Y-106620000D01*
X131380000Y-111700000D02*
X139000000Y-111700000D01*
X145380000Y-111700000D02*
X153000000Y-111700000D01*
X133540000Y-87000000D02*
X138499360Y-87000000D01*
X138499360Y-87000000D02*
X139000000Y-87500640D01*
X152000000Y-87500640D02*
X147040640Y-87500640D01*
X147040640Y-87500640D02*
X146540000Y-87000000D01*
D30*
X80710000Y-80710000D02*
X159290000Y-80710000D01*
X80710000Y-80913200D02*
X119757683Y-80913200D01*
X152242318Y-80913200D02*
X159290000Y-80913200D01*
X80710000Y-81116400D02*
X119318710Y-81116400D01*
X152681291Y-81116400D02*
X159290000Y-81116400D01*
X80710000Y-81319600D02*
X119075268Y-81319600D01*
X152924732Y-81319600D02*
X159290000Y-81319600D01*
X80710000Y-81522800D02*
X118872068Y-81522800D01*
X153127932Y-81522800D02*
X159290000Y-81522800D01*
X80710000Y-81726000D02*
X118668868Y-81726000D01*
X153331132Y-81726000D02*
X159290000Y-81726000D01*
X80710000Y-81929200D02*
X118465668Y-81929200D01*
X153534332Y-81929200D02*
X159290000Y-81929200D01*
X80710000Y-82132400D02*
X83710974Y-82132400D01*
X84781650Y-82132400D02*
X85218350Y-82132400D01*
X86289027Y-82132400D02*
X87066562Y-82132400D01*
X87207396Y-82132400D02*
X87872605Y-82132400D01*
X88013439Y-82132400D02*
X89606562Y-82132400D01*
X89747396Y-82132400D02*
X90412605Y-82132400D01*
X90553439Y-82132400D02*
X118262468Y-82132400D01*
X153737532Y-82132400D02*
X159290000Y-82132400D01*
X80710000Y-82335600D02*
X83466375Y-82335600D01*
X84873000Y-82335600D02*
X85127000Y-82335600D01*
X86533626Y-82335600D02*
X86684735Y-82335600D01*
X87413000Y-82335600D02*
X87667000Y-82335600D01*
X88395265Y-82335600D02*
X89224736Y-82335600D01*
X89953000Y-82335600D02*
X90207000Y-82335600D01*
X90935265Y-82335600D02*
X118059268Y-82335600D01*
X153940732Y-82335600D02*
X159290000Y-82335600D01*
X80710000Y-82538800D02*
X83379452Y-82538800D01*
X84873000Y-82538800D02*
X85127000Y-82538800D01*
X87413000Y-82538800D02*
X87667000Y-82538800D01*
X88672967Y-82538800D02*
X88947034Y-82538800D01*
X89953000Y-82538800D02*
X90207000Y-82538800D01*
X91212967Y-82538800D02*
X117856068Y-82538800D01*
X154143932Y-82538800D02*
X159290000Y-82538800D01*
X80710000Y-82742000D02*
X83365000Y-82742000D01*
X84873000Y-82742000D02*
X85127000Y-82742000D01*
X87413000Y-82742000D02*
X87667000Y-82742000D01*
X89953000Y-82742000D02*
X90207000Y-82742000D01*
X91372821Y-82742000D02*
X117652868Y-82742000D01*
X154347132Y-82742000D02*
X159290000Y-82742000D01*
X80710000Y-82945200D02*
X83365000Y-82945200D01*
X84873000Y-82945200D02*
X85127000Y-82945200D01*
X87413000Y-82945200D02*
X87667000Y-82945200D01*
X89953000Y-82945200D02*
X90207000Y-82945200D01*
X91532675Y-82945200D02*
X117449668Y-82945200D01*
X154550332Y-82945200D02*
X159290000Y-82945200D01*
X80710000Y-83148400D02*
X83365000Y-83148400D01*
X84873000Y-83148400D02*
X85127000Y-83148400D01*
X87413000Y-83148400D02*
X87667000Y-83148400D01*
X89953000Y-83148400D02*
X90207000Y-83148400D01*
X91595718Y-83148400D02*
X117246468Y-83148400D01*
X120456732Y-83148400D02*
X151543268Y-83148400D01*
X154753532Y-83148400D02*
X159290000Y-83148400D01*
X80710000Y-83351600D02*
X83365000Y-83351600D01*
X84873000Y-83351600D02*
X85127000Y-83351600D01*
X87413000Y-83351600D02*
X87667000Y-83351600D01*
X89953000Y-83351600D02*
X90207000Y-83351600D01*
X91652803Y-83351600D02*
X117043268Y-83351600D01*
X120253532Y-83351600D02*
X151746468Y-83351600D01*
X154956732Y-83351600D02*
X159290000Y-83351600D01*
X80710000Y-83554800D02*
X83365000Y-83554800D01*
X84873000Y-83554800D02*
X85127000Y-83554800D01*
X87413000Y-83554800D02*
X87667000Y-83554800D01*
X89953000Y-83554800D02*
X90207000Y-83554800D01*
X91709888Y-83554800D02*
X116840068Y-83554800D01*
X120050332Y-83554800D02*
X151949668Y-83554800D01*
X155159932Y-83554800D02*
X159290000Y-83554800D01*
X80710000Y-83758000D02*
X83408750Y-83758000D01*
X84873000Y-83758000D02*
X85127000Y-83758000D01*
X87413000Y-83758000D02*
X87667000Y-83758000D01*
X89953000Y-83758000D02*
X90207000Y-83758000D01*
X91715000Y-83758000D02*
X116636868Y-83758000D01*
X119847132Y-83758000D02*
X152152868Y-83758000D01*
X155363132Y-83758000D02*
X159290000Y-83758000D01*
X80710000Y-83961200D02*
X116433668Y-83961200D01*
X119643932Y-83961200D02*
X152356068Y-83961200D01*
X155566332Y-83961200D02*
X159290000Y-83961200D01*
X80710000Y-84164400D02*
X83486350Y-84164400D01*
X84873000Y-84164400D02*
X85127000Y-84164400D01*
X87413000Y-84164400D02*
X87667000Y-84164400D01*
X89953000Y-84164400D02*
X90207000Y-84164400D01*
X91715000Y-84164400D02*
X116230468Y-84164400D01*
X119440732Y-84164400D02*
X152559268Y-84164400D01*
X155769532Y-84164400D02*
X159290000Y-84164400D01*
X80710000Y-84367600D02*
X83365000Y-84367600D01*
X84873000Y-84367600D02*
X85127000Y-84367600D01*
X87413000Y-84367600D02*
X87667000Y-84367600D01*
X89953000Y-84367600D02*
X90207000Y-84367600D01*
X91715000Y-84367600D02*
X116027268Y-84367600D01*
X119237532Y-84367600D02*
X152762468Y-84367600D01*
X155972732Y-84367600D02*
X159290000Y-84367600D01*
X80710000Y-84570800D02*
X83365000Y-84570800D01*
X84873000Y-84570800D02*
X85127000Y-84570800D01*
X87413000Y-84570800D02*
X87667000Y-84570800D01*
X89953000Y-84570800D02*
X90207000Y-84570800D01*
X91674602Y-84570800D02*
X115824068Y-84570800D01*
X119034332Y-84570800D02*
X152965668Y-84570800D01*
X156175932Y-84570800D02*
X159290000Y-84570800D01*
X80710000Y-84774000D02*
X83365000Y-84774000D01*
X84873000Y-84774000D02*
X85127000Y-84774000D01*
X87413000Y-84774000D02*
X87667000Y-84774000D01*
X89953000Y-84774000D02*
X90207000Y-84774000D01*
X91617517Y-84774000D02*
X115620868Y-84774000D01*
X118831132Y-84774000D02*
X153168868Y-84774000D01*
X156379132Y-84774000D02*
X159290000Y-84774000D01*
X80710000Y-84977200D02*
X83365000Y-84977200D01*
X84873000Y-84977200D02*
X85127000Y-84977200D01*
X87413000Y-84977200D02*
X87667000Y-84977200D01*
X89953000Y-84977200D02*
X90207000Y-84977200D01*
X91560432Y-84977200D02*
X115417668Y-84977200D01*
X118627932Y-84977200D02*
X153372068Y-84977200D01*
X156582332Y-84977200D02*
X159290000Y-84977200D01*
X80710000Y-85180400D02*
X83365000Y-85180400D01*
X84873000Y-85180400D02*
X85127000Y-85180400D01*
X87413000Y-85180400D02*
X87667000Y-85180400D01*
X89953000Y-85180400D02*
X90207000Y-85180400D01*
X91433867Y-85180400D02*
X115214468Y-85180400D01*
X118424732Y-85180400D02*
X153575268Y-85180400D01*
X156785532Y-85180400D02*
X159290000Y-85180400D01*
X80710000Y-85383600D02*
X83365000Y-85383600D01*
X84873000Y-85383600D02*
X85127000Y-85383600D01*
X87413000Y-85383600D02*
X87667000Y-85383600D01*
X88734013Y-85383600D02*
X88885986Y-85383600D01*
X89953000Y-85383600D02*
X90207000Y-85383600D01*
X91274013Y-85383600D02*
X115011268Y-85383600D01*
X118221532Y-85383600D02*
X129878786Y-85383600D01*
X130732850Y-85383600D02*
X131267150Y-85383600D01*
X132121215Y-85383600D02*
X142878786Y-85383600D01*
X143732850Y-85383600D02*
X144267150Y-85383600D01*
X145121215Y-85383600D02*
X153778468Y-85383600D01*
X156988732Y-85383600D02*
X159290000Y-85383600D01*
X80710000Y-85586800D02*
X83431477Y-85586800D01*
X84873000Y-85586800D02*
X85127000Y-85586800D01*
X87413000Y-85586800D02*
X87667000Y-85586800D01*
X88533498Y-85586800D02*
X89086501Y-85586800D01*
X89953000Y-85586800D02*
X90207000Y-85586800D01*
X91073498Y-85586800D02*
X114808068Y-85586800D01*
X118018332Y-85586800D02*
X129565175Y-85586800D01*
X130873000Y-85586800D02*
X131127000Y-85586800D01*
X132434826Y-85586800D02*
X132809656Y-85586800D01*
X134269736Y-85586800D02*
X142565175Y-85586800D01*
X143873000Y-85586800D02*
X144127000Y-85586800D01*
X145434826Y-85586800D02*
X145809656Y-85586800D01*
X147269736Y-85586800D02*
X153981668Y-85586800D01*
X157191932Y-85586800D02*
X159290000Y-85586800D01*
X80710000Y-85790000D02*
X83591974Y-85790000D01*
X84859250Y-85790000D02*
X85140750Y-85790000D01*
X86408025Y-85790000D02*
X86908474Y-85790000D01*
X87372179Y-85790000D02*
X87707820Y-85790000D01*
X88171525Y-85790000D02*
X89448474Y-85790000D01*
X89912179Y-85790000D02*
X90247820Y-85790000D01*
X90711525Y-85790000D02*
X114604868Y-85790000D01*
X117815132Y-85790000D02*
X129449666Y-85790000D01*
X130873000Y-85790000D02*
X131127000Y-85790000D01*
X134571685Y-85790000D02*
X142449666Y-85790000D01*
X143873000Y-85790000D02*
X144127000Y-85790000D01*
X147571685Y-85790000D02*
X154184868Y-85790000D01*
X157395132Y-85790000D02*
X159290000Y-85790000D01*
X80710000Y-85993200D02*
X114401668Y-85993200D01*
X117611932Y-85993200D02*
X129415000Y-85993200D01*
X130873000Y-85993200D02*
X131127000Y-85993200D01*
X139631834Y-85993200D02*
X142415000Y-85993200D01*
X143873000Y-85993200D02*
X144127000Y-85993200D01*
X147774531Y-85993200D02*
X151368135Y-85993200D01*
X152631834Y-85993200D02*
X154388068Y-85993200D01*
X157598332Y-85993200D02*
X159290000Y-85993200D01*
X80710000Y-86196400D02*
X114198468Y-86196400D01*
X117408732Y-86196400D02*
X129415000Y-86196400D01*
X130873000Y-86196400D02*
X131127000Y-86196400D01*
X140007539Y-86196400D02*
X142415000Y-86196400D01*
X143873000Y-86196400D02*
X144127000Y-86196400D01*
X147922932Y-86196400D02*
X150992980Y-86196400D01*
X153007539Y-86196400D02*
X154591268Y-86196400D01*
X157801532Y-86196400D02*
X159290000Y-86196400D01*
X80710000Y-86399600D02*
X113995268Y-86399600D01*
X117205532Y-86399600D02*
X129415000Y-86399600D01*
X130873000Y-86399600D02*
X131127000Y-86399600D01*
X140210385Y-86399600D02*
X142415000Y-86399600D01*
X143873000Y-86399600D02*
X144127000Y-86399600D01*
X153210385Y-86399600D02*
X154794468Y-86399600D01*
X157937650Y-86399600D02*
X159290000Y-86399600D01*
X80710000Y-86602800D02*
X113800485Y-86602800D01*
X117002332Y-86602800D02*
X129415000Y-86602800D01*
X130873000Y-86602800D02*
X131127000Y-86602800D01*
X140397542Y-86602800D02*
X142415000Y-86602800D01*
X143873000Y-86602800D02*
X144127000Y-86602800D01*
X153397542Y-86602800D02*
X154997668Y-86602800D01*
X158055992Y-86602800D02*
X159290000Y-86602800D01*
X80710000Y-86806000D02*
X113664711Y-86806000D01*
X116799132Y-86806000D02*
X129506750Y-86806000D01*
X130873000Y-86806000D02*
X131127000Y-86806000D01*
X140481503Y-86806000D02*
X142506750Y-86806000D01*
X143873000Y-86806000D02*
X144127000Y-86806000D01*
X153481503Y-86806000D02*
X155200868Y-86806000D01*
X158096411Y-86806000D02*
X159290000Y-86806000D01*
X80710000Y-87009200D02*
X113558757Y-87009200D01*
X116595932Y-87009200D02*
X131147000Y-87009200D01*
X140565463Y-87009200D02*
X144147000Y-87009200D01*
X153565463Y-87009200D02*
X155404068Y-87009200D01*
X158135000Y-87009200D02*
X159290000Y-87009200D01*
X80710000Y-87212400D02*
X113518338Y-87212400D01*
X116392732Y-87212400D02*
X129488350Y-87212400D01*
X130873000Y-87212400D02*
X131127000Y-87212400D01*
X140634742Y-87212400D02*
X142488350Y-87212400D01*
X143873000Y-87212400D02*
X144127000Y-87212400D01*
X153634743Y-87212400D02*
X155607268Y-87212400D01*
X158135000Y-87212400D02*
X159290000Y-87212400D01*
X80710000Y-87415600D02*
X113485000Y-87415600D01*
X116189532Y-87415600D02*
X129415000Y-87415600D01*
X130873000Y-87415600D02*
X131127000Y-87415600D01*
X140634564Y-87415600D02*
X142415000Y-87415600D01*
X143873000Y-87415600D02*
X144127000Y-87415600D01*
X153634565Y-87415600D02*
X155481168Y-87415600D01*
X158135000Y-87415600D02*
X159290000Y-87415600D01*
X80710000Y-87618800D02*
X113485000Y-87618800D01*
X115986332Y-87618800D02*
X129415000Y-87618800D01*
X130873000Y-87618800D02*
X131127000Y-87618800D01*
X140634387Y-87618800D02*
X142415000Y-87618800D01*
X143873000Y-87618800D02*
X144127000Y-87618800D01*
X153634388Y-87618800D02*
X155277968Y-87618800D01*
X158111747Y-87618800D02*
X159290000Y-87618800D01*
X80710000Y-87822000D02*
X113485000Y-87822000D01*
X115783132Y-87822000D02*
X129415000Y-87822000D01*
X130873000Y-87822000D02*
X131127000Y-87822000D01*
X140634210Y-87822000D02*
X142415000Y-87822000D01*
X143873000Y-87822000D02*
X144127000Y-87822000D01*
X153634210Y-87822000D02*
X155074768Y-87822000D01*
X158071327Y-87822000D02*
X159290000Y-87822000D01*
X80710000Y-88025200D02*
X113485000Y-88025200D01*
X115755000Y-88025200D02*
X129415000Y-88025200D01*
X130873000Y-88025200D02*
X131127000Y-88025200D01*
X140551983Y-88025200D02*
X142415000Y-88025200D01*
X143873000Y-88025200D02*
X144127000Y-88025200D01*
X153551983Y-88025200D02*
X154871568Y-88025200D01*
X157989165Y-88025200D02*
X159290000Y-88025200D01*
X80710000Y-88228400D02*
X113485000Y-88228400D01*
X115755000Y-88228400D02*
X129457287Y-88228400D01*
X130873000Y-88228400D02*
X131127000Y-88228400D01*
X134552940Y-88228400D02*
X137532182Y-88228400D01*
X140467607Y-88228400D02*
X142457287Y-88228400D01*
X143873000Y-88228400D02*
X144127000Y-88228400D01*
X153467607Y-88228400D02*
X154668368Y-88228400D01*
X157853391Y-88228400D02*
X159290000Y-88228400D01*
X80710000Y-88431600D02*
X113485000Y-88431600D01*
X115755000Y-88431600D02*
X129583574Y-88431600D01*
X130873000Y-88431600D02*
X131127000Y-88431600D01*
X132416425Y-88431600D02*
X132854576Y-88431600D01*
X134225813Y-88431600D02*
X137619832Y-88431600D01*
X140380952Y-88431600D02*
X142583574Y-88431600D01*
X143873000Y-88431600D02*
X144127000Y-88431600D01*
X145416425Y-88431600D02*
X145854576Y-88431600D01*
X153380952Y-88431600D02*
X154465168Y-88431600D01*
X157675432Y-88431600D02*
X159290000Y-88431600D01*
X80710000Y-88634800D02*
X96677215Y-88634800D01*
X97323806Y-88634800D02*
X106264122Y-88634800D01*
X107735879Y-88634800D02*
X113485000Y-88634800D01*
X115755000Y-88634800D02*
X129923207Y-88634800D01*
X130714450Y-88634800D02*
X131285550Y-88634800D01*
X132076792Y-88634800D02*
X137822677Y-88634800D01*
X140177397Y-88634800D02*
X142923207Y-88634800D01*
X143714450Y-88634800D02*
X144285550Y-88634800D01*
X145076792Y-88634800D02*
X147036417Y-88634800D01*
X153177397Y-88634800D02*
X154261968Y-88634800D01*
X157472232Y-88634800D02*
X159290000Y-88634800D01*
X80710000Y-88838000D02*
X86414465Y-88838000D01*
X87570654Y-88838000D02*
X91414465Y-88838000D01*
X92570654Y-88838000D02*
X96203632Y-88838000D01*
X97797006Y-88838000D02*
X105820785Y-88838000D01*
X108179216Y-88838000D02*
X113440785Y-88838000D01*
X115799216Y-88838000D02*
X138025523Y-88838000D01*
X139973842Y-88838000D02*
X151025523Y-88838000D01*
X152973842Y-88838000D02*
X154058768Y-88838000D01*
X157269032Y-88838000D02*
X159290000Y-88838000D01*
X80710000Y-89041200D02*
X86295026Y-89041200D01*
X87704975Y-89041200D02*
X91295026Y-89041200D01*
X92704975Y-89041200D02*
X96000078Y-89041200D01*
X100568746Y-89041200D02*
X105562983Y-89041200D01*
X108437018Y-89041200D02*
X113182983Y-89041200D01*
X116057018Y-89041200D02*
X119249083Y-89041200D01*
X120750302Y-89041200D02*
X123720888Y-89041200D01*
X125268177Y-89041200D02*
X138447928Y-89041200D01*
X139551709Y-89041200D02*
X151447928Y-89041200D01*
X152551709Y-89041200D02*
X153855568Y-89041200D01*
X157065832Y-89041200D02*
X159290000Y-89041200D01*
X80710000Y-89244400D02*
X86424005Y-89244400D01*
X87575994Y-89244400D02*
X91424005Y-89244400D01*
X92575994Y-89244400D02*
X95814097Y-89244400D01*
X100849533Y-89244400D02*
X105427209Y-89244400D01*
X108572792Y-89244400D02*
X113047209Y-89244400D01*
X116192792Y-89244400D02*
X118943534Y-89244400D01*
X121056815Y-89244400D02*
X123565180Y-89244400D01*
X125434821Y-89244400D02*
X153652368Y-89244400D01*
X156862632Y-89244400D02*
X159290000Y-89244400D01*
X80710000Y-89447600D02*
X85831648Y-89447600D01*
X86267995Y-89447600D02*
X86627205Y-89447600D01*
X87372794Y-89447600D02*
X87732006Y-89447600D01*
X88175725Y-89447600D02*
X90831648Y-89447600D01*
X91267995Y-89447600D02*
X91627205Y-89447600D01*
X92372794Y-89447600D02*
X92732006Y-89447600D01*
X93175725Y-89447600D02*
X95729721Y-89447600D01*
X101052733Y-89447600D02*
X105291434Y-89447600D01*
X108708567Y-89447600D02*
X112911434Y-89447600D01*
X116328567Y-89447600D02*
X118739978Y-89447600D01*
X121259660Y-89447600D02*
X123627205Y-89447600D01*
X125372795Y-89447600D02*
X153449168Y-89447600D01*
X156659432Y-89447600D02*
X159290000Y-89447600D01*
X80710000Y-89650800D02*
X85760937Y-89650800D01*
X86471195Y-89650800D02*
X86830405Y-89650800D01*
X87169594Y-89650800D02*
X87528806Y-89650800D01*
X88259894Y-89650800D02*
X90760937Y-89650800D01*
X91471195Y-89650800D02*
X91830405Y-89650800D01*
X92169594Y-89650800D02*
X92528806Y-89650800D01*
X93259894Y-89650800D02*
X95645345Y-89650800D01*
X101255933Y-89650800D02*
X105249491Y-89650800D01*
X108750510Y-89650800D02*
X112869491Y-89650800D01*
X116370510Y-89650800D02*
X118582266Y-89650800D01*
X121418191Y-89650800D02*
X123071302Y-89650800D01*
X123471195Y-89650800D02*
X123830405Y-89650800D01*
X125169595Y-89650800D02*
X125528805Y-89650800D01*
X125929769Y-89650800D02*
X153245968Y-89650800D01*
X156456232Y-89650800D02*
X159290000Y-89650800D01*
X80710000Y-89854000D02*
X85704399Y-89854000D01*
X86674395Y-89854000D02*
X87325606Y-89854000D01*
X88278701Y-89854000D02*
X90704399Y-89854000D01*
X91674395Y-89854000D02*
X92325606Y-89854000D01*
X93278700Y-89854000D02*
X95615127Y-89854000D01*
X101459133Y-89854000D02*
X105209072Y-89854000D01*
X108790929Y-89854000D02*
X112829072Y-89854000D01*
X116410929Y-89854000D02*
X118497891Y-89854000D01*
X121502152Y-89854000D02*
X122995810Y-89854000D01*
X123674395Y-89854000D02*
X124033605Y-89854000D01*
X124966395Y-89854000D02*
X125325605Y-89854000D01*
X126013937Y-89854000D02*
X153042768Y-89854000D01*
X156253032Y-89854000D02*
X159290000Y-89854000D01*
X80710000Y-90057200D02*
X85716160Y-90057200D01*
X86763194Y-90057200D02*
X87236805Y-90057200D01*
X88290462Y-90057200D02*
X90716160Y-90057200D01*
X91763194Y-90057200D02*
X92236805Y-90057200D01*
X93290461Y-90057200D02*
X95614950Y-90057200D01*
X101662333Y-90057200D02*
X105191407Y-90057200D01*
X108808592Y-90057200D02*
X112811407Y-90057200D01*
X116428592Y-90057200D02*
X118413515Y-90057200D01*
X121586112Y-90057200D02*
X122920319Y-90057200D01*
X123877595Y-90057200D02*
X124236805Y-90057200D01*
X124763195Y-90057200D02*
X125122405Y-90057200D01*
X126098106Y-90057200D02*
X152839568Y-90057200D01*
X156049832Y-90057200D02*
X159290000Y-90057200D01*
X80710000Y-90260400D02*
X85727921Y-90260400D01*
X86559994Y-90260400D02*
X86919206Y-90260400D01*
X87080795Y-90260400D02*
X87440005Y-90260400D01*
X88269964Y-90260400D02*
X90727921Y-90260400D01*
X91559994Y-90260400D02*
X91919206Y-90260400D01*
X92080795Y-90260400D02*
X92440005Y-90260400D01*
X93269964Y-90260400D02*
X95614773Y-90260400D01*
X101865533Y-90260400D02*
X105231826Y-90260400D01*
X108768173Y-90260400D02*
X112851826Y-90260400D01*
X116388173Y-90260400D02*
X118365208Y-90260400D01*
X121635210Y-90260400D02*
X122855014Y-90260400D01*
X124080795Y-90260400D02*
X124440005Y-90260400D01*
X124559995Y-90260400D02*
X124919205Y-90260400D01*
X126127254Y-90260400D02*
X152636368Y-90260400D01*
X155846632Y-90260400D02*
X159290000Y-90260400D01*
X80710000Y-90463600D02*
X85787492Y-90463600D01*
X86356794Y-90463600D02*
X86716006Y-90463600D01*
X87283995Y-90463600D02*
X87643205Y-90463600D01*
X88199253Y-90463600D02*
X90787492Y-90463600D01*
X91356794Y-90463600D02*
X91716006Y-90463600D01*
X92283995Y-90463600D02*
X92643205Y-90463600D01*
X93199253Y-90463600D02*
X95692983Y-90463600D01*
X102068733Y-90463600D02*
X105272245Y-90463600D01*
X108727754Y-90463600D02*
X112892245Y-90463600D01*
X116347754Y-90463600D02*
X118365031Y-90463600D01*
X121635032Y-90463600D02*
X122862533Y-90463600D01*
X124283995Y-90463600D02*
X124716005Y-90463600D01*
X126134773Y-90463600D02*
X152433168Y-90463600D01*
X155643432Y-90463600D02*
X159290000Y-90463600D01*
X80710000Y-90666800D02*
X85883107Y-90666800D01*
X86153594Y-90666800D02*
X86512806Y-90666800D01*
X87487195Y-90666800D02*
X87846405Y-90666800D01*
X88116892Y-90666800D02*
X90883107Y-90666800D01*
X91153594Y-90666800D02*
X91512806Y-90666800D01*
X92487195Y-90666800D02*
X92846405Y-90666800D01*
X93116892Y-90666800D02*
X95776943Y-90666800D01*
X102271933Y-90666800D02*
X105367873Y-90666800D01*
X108632126Y-90666800D02*
X112987873Y-90666800D01*
X116252126Y-90666800D02*
X118364854Y-90666800D01*
X121634855Y-90666800D02*
X122870052Y-90666800D01*
X124153595Y-90666800D02*
X124846405Y-90666800D01*
X126142292Y-90666800D02*
X152229968Y-90666800D01*
X155440232Y-90666800D02*
X159290000Y-90666800D01*
X80710000Y-90870000D02*
X86309606Y-90870000D01*
X87690395Y-90870000D02*
X91309606Y-90870000D01*
X92690395Y-90870000D02*
X95911503Y-90870000D01*
X102475133Y-90870000D02*
X105503647Y-90870000D01*
X108496352Y-90870000D02*
X113123647Y-90870000D01*
X116116351Y-90870000D02*
X118383807Y-90870000D01*
X121616714Y-90870000D02*
X122877571Y-90870000D01*
X123950395Y-90870000D02*
X124309605Y-90870000D01*
X124690395Y-90870000D02*
X125049605Y-90870000D01*
X126106727Y-90870000D02*
X126974864Y-90870000D01*
X138523237Y-90870000D02*
X138669351Y-90870000D01*
X139332101Y-90870000D02*
X151669351Y-90870000D01*
X155237032Y-90870000D02*
X159290000Y-90870000D01*
X80710000Y-91073200D02*
X86322649Y-91073200D01*
X87677350Y-91073200D02*
X91322649Y-91073200D01*
X92677350Y-91073200D02*
X95968022Y-91073200D01*
X102678333Y-91073200D02*
X105687886Y-91073200D01*
X108312113Y-91073200D02*
X113307886Y-91073200D01*
X115932113Y-91073200D02*
X118467768Y-91073200D01*
X121532338Y-91073200D02*
X122955908Y-91073200D01*
X123747195Y-91073200D02*
X124106405Y-91073200D01*
X124893595Y-91073200D02*
X125252805Y-91073200D01*
X126031236Y-91073200D02*
X126383364Y-91073200D01*
X139821461Y-91073200D02*
X151177569Y-91073200D01*
X155033832Y-91073200D02*
X159290000Y-91073200D01*
X80710000Y-91276400D02*
X86758093Y-91276400D01*
X87185733Y-91276400D02*
X91758093Y-91276400D01*
X92185733Y-91276400D02*
X95800810Y-91276400D01*
X102881533Y-91276400D02*
X105972840Y-91276400D01*
X108027161Y-91276400D02*
X113592840Y-91276400D01*
X115647161Y-91276400D02*
X118551729Y-91276400D01*
X121447963Y-91276400D02*
X123040076Y-91276400D01*
X123543995Y-91276400D02*
X123903205Y-91276400D01*
X125096795Y-91276400D02*
X125456005Y-91276400D01*
X125955744Y-91276400D02*
X126118468Y-91276400D01*
X140086142Y-91276400D02*
X150914102Y-91276400D01*
X154830632Y-91276400D02*
X159290000Y-91276400D01*
X80710000Y-91479600D02*
X95716434Y-91479600D01*
X108331271Y-91479600D02*
X113288730Y-91479600D01*
X116915039Y-91479600D02*
X118667667Y-91479600D01*
X121332949Y-91479600D02*
X123700005Y-91479600D01*
X125299995Y-91479600D02*
X125915268Y-91479600D01*
X140288988Y-91479600D02*
X150710548Y-91479600D01*
X154627432Y-91479600D02*
X159290000Y-91479600D01*
X80710000Y-91682800D02*
X95632058Y-91682800D01*
X108504905Y-91682800D02*
X113115096Y-91682800D01*
X117260801Y-91682800D02*
X118870512Y-91682800D01*
X121129394Y-91682800D02*
X123538263Y-91682800D01*
X125461736Y-91682800D02*
X125712068Y-91682800D01*
X140430077Y-91682800D02*
X150570320Y-91682800D01*
X154424232Y-91682800D02*
X159290000Y-91682800D01*
X80710000Y-91886000D02*
X95615099Y-91886000D01*
X108640680Y-91886000D02*
X112979321Y-91886000D01*
X117491132Y-91886000D02*
X119074375Y-91886000D01*
X120925838Y-91886000D02*
X123613391Y-91886000D01*
X125386608Y-91886000D02*
X125508868Y-91886000D01*
X140514037Y-91886000D02*
X150485944Y-91886000D01*
X154221032Y-91886000D02*
X159290000Y-91886000D01*
X80710000Y-92089200D02*
X95614922Y-92089200D01*
X108730301Y-92089200D02*
X112889700Y-92089200D01*
X117694332Y-92089200D02*
X119563737Y-92089200D01*
X120435326Y-92089200D02*
X124082820Y-92089200D01*
X124964298Y-92089200D02*
X125305668Y-92089200D01*
X140597998Y-92089200D02*
X150401568Y-92089200D01*
X154017832Y-92089200D02*
X159290000Y-92089200D01*
X80710000Y-92292400D02*
X95622244Y-92292400D01*
X108770720Y-92292400D02*
X112849281Y-92292400D01*
X117897532Y-92292400D02*
X125102468Y-92292400D01*
X140634674Y-92292400D02*
X150078223Y-92292400D01*
X153814632Y-92292400D02*
X159290000Y-92292400D01*
X80710000Y-92495600D02*
X95706205Y-92495600D01*
X108811139Y-92495600D02*
X112808862Y-92495600D01*
X118100732Y-92495600D02*
X124899268Y-92495600D01*
X140634496Y-92495600D02*
X149722430Y-92495600D01*
X153634496Y-92495600D02*
X159290000Y-92495600D01*
X80710000Y-92698800D02*
X95790165Y-92698800D01*
X108788382Y-92698800D02*
X112831617Y-92698800D01*
X118303932Y-92698800D02*
X124696068Y-92698800D01*
X140634319Y-92698800D02*
X149366637Y-92698800D01*
X153802033Y-92698800D02*
X159290000Y-92698800D01*
X80710000Y-92902000D02*
X95719239Y-92902000D01*
X108747963Y-92902000D02*
X112872036Y-92902000D01*
X140603664Y-92902000D02*
X149010843Y-92902000D01*
X153937984Y-92902000D02*
X159290000Y-92902000D01*
X80710000Y-93105200D02*
X95631883Y-93105200D01*
X108700013Y-93105200D02*
X112919986Y-93105200D01*
X140519288Y-93105200D02*
X148655050Y-93105200D01*
X154056092Y-93105200D02*
X159290000Y-93105200D01*
X80710000Y-93308400D02*
X95602560Y-93308400D01*
X108564239Y-93308400D02*
X113055760Y-93308400D01*
X127296732Y-93308400D02*
X135673305Y-93308400D01*
X140434912Y-93308400D02*
X148299257Y-93308400D01*
X154096511Y-93308400D02*
X159290000Y-93308400D01*
X80710000Y-93511600D02*
X85586338Y-93511600D01*
X88409999Y-93511600D02*
X90586338Y-93511600D01*
X93409999Y-93511600D02*
X95602560Y-93511600D01*
X108428465Y-93511600D02*
X113191534Y-93511600D01*
X127093532Y-93511600D02*
X130483674Y-93511600D01*
X131877047Y-93511600D02*
X133587641Y-93511600D01*
X140302074Y-93511600D02*
X143483674Y-93511600D01*
X144877047Y-93511600D02*
X146587641Y-93511600D01*
X154135000Y-93511600D02*
X159290000Y-93511600D01*
X80710000Y-93714800D02*
X85426329Y-93714800D01*
X88571064Y-93714800D02*
X90426329Y-93714800D01*
X93571064Y-93714800D02*
X95602560Y-93714800D01*
X108160058Y-93714800D02*
X113459941Y-93714800D01*
X115780059Y-93714800D02*
X116109668Y-93714800D01*
X126890332Y-93714800D02*
X130266608Y-93714800D01*
X132113393Y-93714800D02*
X133427188Y-93714800D01*
X140135000Y-93714800D02*
X143266608Y-93714800D01*
X145113393Y-93714800D02*
X146427188Y-93714800D01*
X154135000Y-93714800D02*
X159290000Y-93714800D01*
X80710000Y-93918000D02*
X85369166Y-93918000D01*
X88632011Y-93918000D02*
X90369166Y-93918000D01*
X94266449Y-93918000D02*
X95602560Y-93918000D01*
X108179216Y-93918000D02*
X113440785Y-93918000D01*
X115799216Y-93918000D02*
X116312868Y-93918000D01*
X126687132Y-93918000D02*
X130287605Y-93918000D01*
X132092394Y-93918000D02*
X133369779Y-93918000D01*
X140135000Y-93918000D02*
X143287605Y-93918000D01*
X145092394Y-93918000D02*
X146369779Y-93918000D01*
X154135000Y-93918000D02*
X159290000Y-93918000D01*
X80710000Y-94121200D02*
X85352560Y-94121200D01*
X88647440Y-94121200D02*
X90352560Y-94121200D01*
X94688474Y-94121200D02*
X95602560Y-94121200D01*
X108437018Y-94121200D02*
X113182983Y-94121200D01*
X116057018Y-94121200D02*
X116516068Y-94121200D01*
X126483932Y-94121200D02*
X129784138Y-94121200D01*
X130131595Y-94121200D02*
X130490805Y-94121200D01*
X131889194Y-94121200D02*
X132248406Y-94121200D01*
X132595863Y-94121200D02*
X133353070Y-94121200D01*
X140135000Y-94121200D02*
X142784138Y-94121200D01*
X143131595Y-94121200D02*
X143490805Y-94121200D01*
X144889194Y-94121200D02*
X145248406Y-94121200D01*
X145595863Y-94121200D02*
X146353070Y-94121200D01*
X151453288Y-94121200D02*
X151637555Y-94121200D01*
X154135000Y-94121200D02*
X159290000Y-94121200D01*
X80710000Y-94324400D02*
X85352560Y-94324400D01*
X88647440Y-94324400D02*
X90352560Y-94324400D01*
X94929532Y-94324400D02*
X95602560Y-94324400D01*
X108572792Y-94324400D02*
X113047209Y-94324400D01*
X116192792Y-94324400D02*
X116719268Y-94324400D01*
X126280732Y-94324400D02*
X129697348Y-94324400D01*
X130334795Y-94324400D02*
X130694005Y-94324400D01*
X131685994Y-94324400D02*
X132045206Y-94324400D01*
X132691128Y-94324400D02*
X133353070Y-94324400D01*
X140135000Y-94324400D02*
X142697348Y-94324400D01*
X143334795Y-94324400D02*
X143694005Y-94324400D01*
X144685994Y-94324400D02*
X145045206Y-94324400D01*
X145691128Y-94324400D02*
X146353070Y-94324400D01*
X151097495Y-94324400D02*
X151865000Y-94324400D01*
X154135000Y-94324400D02*
X159290000Y-94324400D01*
X80710000Y-94527600D02*
X85352560Y-94527600D01*
X88647440Y-94527600D02*
X90352560Y-94527600D01*
X95132732Y-94527600D02*
X95602560Y-94527600D01*
X108708567Y-94527600D02*
X112911434Y-94527600D01*
X116328567Y-94527600D02*
X116922468Y-94527600D01*
X126077532Y-94527600D02*
X129621862Y-94527600D01*
X130537995Y-94527600D02*
X130897205Y-94527600D01*
X131482794Y-94527600D02*
X131842006Y-94527600D01*
X132775296Y-94527600D02*
X133353070Y-94527600D01*
X140135000Y-94527600D02*
X142621862Y-94527600D01*
X143537995Y-94527600D02*
X143897205Y-94527600D01*
X144482794Y-94527600D02*
X144842006Y-94527600D01*
X145775296Y-94527600D02*
X146353070Y-94527600D01*
X150741702Y-94527600D02*
X151865000Y-94527600D01*
X154135000Y-94527600D02*
X159290000Y-94527600D01*
X80710000Y-94730800D02*
X85352560Y-94730800D01*
X88647440Y-94730800D02*
X90352560Y-94730800D01*
X95335932Y-94730800D02*
X95602560Y-94730800D01*
X108750510Y-94730800D02*
X112869491Y-94730800D01*
X116370510Y-94730800D02*
X117125668Y-94730800D01*
X125874332Y-94730800D02*
X129546376Y-94730800D01*
X130741195Y-94730800D02*
X131100405Y-94730800D01*
X131279594Y-94730800D02*
X131638806Y-94730800D01*
X132815643Y-94730800D02*
X133353070Y-94730800D01*
X137759957Y-94730800D02*
X137865000Y-94730800D01*
X140135000Y-94730800D02*
X142546376Y-94730800D01*
X143741195Y-94730800D02*
X144100405Y-94730800D01*
X144279594Y-94730800D02*
X144638806Y-94730800D01*
X145815643Y-94730800D02*
X146353070Y-94730800D01*
X150385909Y-94730800D02*
X151865000Y-94730800D01*
X154135000Y-94730800D02*
X159290000Y-94730800D01*
X80710000Y-94934000D02*
X85352560Y-94934000D01*
X88647440Y-94934000D02*
X90352560Y-94934000D01*
X95539132Y-94934000D02*
X95637182Y-94934000D01*
X108790929Y-94934000D02*
X112829072Y-94934000D01*
X116410929Y-94934000D02*
X117394138Y-94934000D01*
X125605861Y-94934000D02*
X129551945Y-94934000D01*
X130944395Y-94934000D02*
X131435606Y-94934000D01*
X132823167Y-94934000D02*
X133353070Y-94934000D01*
X137404164Y-94934000D02*
X137865000Y-94934000D01*
X140135000Y-94934000D02*
X142551945Y-94934000D01*
X143944395Y-94934000D02*
X144435606Y-94934000D01*
X145823167Y-94934000D02*
X146353070Y-94934000D01*
X150030116Y-94934000D02*
X151865000Y-94934000D01*
X154135000Y-94934000D02*
X159290000Y-94934000D01*
X80710000Y-95137200D02*
X85352560Y-95137200D01*
X88742333Y-95137200D02*
X90352560Y-95137200D01*
X95742332Y-95137200D02*
X95744572Y-95137200D01*
X108808592Y-95137200D02*
X112811407Y-95137200D01*
X116428592Y-95137200D02*
X129559469Y-95137200D01*
X130873194Y-95137200D02*
X131506805Y-95137200D01*
X132830691Y-95137200D02*
X133353070Y-95137200D01*
X137048371Y-95137200D02*
X137865000Y-95137200D01*
X140135000Y-95137200D02*
X142559469Y-95137200D01*
X143873194Y-95137200D02*
X144506805Y-95137200D01*
X145830691Y-95137200D02*
X146353070Y-95137200D01*
X149674323Y-95137200D02*
X151865000Y-95137200D01*
X154135000Y-95137200D02*
X159290000Y-95137200D01*
X80710000Y-95340400D02*
X85352560Y-95340400D01*
X88945533Y-95340400D02*
X90352560Y-95340400D01*
X108768173Y-95340400D02*
X112851826Y-95340400D01*
X116388173Y-95340400D02*
X129566993Y-95340400D01*
X130669994Y-95340400D02*
X131029206Y-95340400D01*
X131350795Y-95340400D02*
X131710005Y-95340400D01*
X132807174Y-95340400D02*
X133353070Y-95340400D01*
X136692578Y-95340400D02*
X137865000Y-95340400D01*
X140135000Y-95340400D02*
X142566993Y-95340400D01*
X143669994Y-95340400D02*
X144029206Y-95340400D01*
X144350795Y-95340400D02*
X144710005Y-95340400D01*
X145807174Y-95340400D02*
X146353070Y-95340400D01*
X149646930Y-95340400D02*
X151865000Y-95340400D01*
X154135000Y-95340400D02*
X159290000Y-95340400D01*
X80710000Y-95543600D02*
X85352560Y-95543600D01*
X89148733Y-95543600D02*
X90352560Y-95543600D01*
X108727754Y-95543600D02*
X112892245Y-95543600D01*
X116347754Y-95543600D02*
X119243274Y-95543600D01*
X120756082Y-95543600D02*
X123715094Y-95543600D01*
X125274637Y-95543600D02*
X129634196Y-95543600D01*
X130466794Y-95543600D02*
X130826006Y-95543600D01*
X131553995Y-95543600D02*
X131913205Y-95543600D01*
X132731688Y-95543600D02*
X133353070Y-95543600D01*
X136646930Y-95543600D02*
X137865000Y-95543600D01*
X140135000Y-95543600D02*
X142634196Y-95543600D01*
X143466794Y-95543600D02*
X143826006Y-95543600D01*
X144553995Y-95543600D02*
X144913205Y-95543600D01*
X145731688Y-95543600D02*
X146353070Y-95543600D01*
X149646930Y-95543600D02*
X151865000Y-95543600D01*
X154135000Y-95543600D02*
X159290000Y-95543600D01*
X80710000Y-95746800D02*
X85352560Y-95746800D01*
X89351933Y-95746800D02*
X90352560Y-95746800D01*
X108632126Y-95746800D02*
X112987873Y-95746800D01*
X116252126Y-95746800D02*
X118941130Y-95746800D01*
X121059211Y-95746800D02*
X123564293Y-95746800D01*
X125435708Y-95746800D02*
X129718364Y-95746800D01*
X130263594Y-95746800D02*
X130622806Y-95746800D01*
X131757195Y-95746800D02*
X132116405Y-95746800D01*
X132656202Y-95746800D02*
X133353070Y-95746800D01*
X136646930Y-95746800D02*
X137865000Y-95746800D01*
X140135000Y-95746800D02*
X142718364Y-95746800D01*
X143263594Y-95746800D02*
X143622806Y-95746800D01*
X144757195Y-95746800D02*
X145116405Y-95746800D01*
X145656202Y-95746800D02*
X146353070Y-95746800D01*
X149646930Y-95746800D02*
X151865000Y-95746800D01*
X154135000Y-95746800D02*
X159290000Y-95746800D01*
X80710000Y-95950000D02*
X85352560Y-95950000D01*
X89555133Y-95950000D02*
X90352560Y-95950000D01*
X108496352Y-95950000D02*
X113123647Y-95950000D01*
X116116352Y-95950000D02*
X118737574Y-95950000D01*
X121262056Y-95950000D02*
X123629605Y-95950000D01*
X125370395Y-95950000D02*
X129976799Y-95950000D01*
X130060394Y-95950000D02*
X130419606Y-95950000D01*
X131960395Y-95950000D02*
X132319605Y-95950000D01*
X132403200Y-95950000D02*
X133353070Y-95950000D01*
X136646930Y-95950000D02*
X137865000Y-95950000D01*
X140135000Y-95950000D02*
X142976799Y-95950000D01*
X143060394Y-95950000D02*
X143419606Y-95950000D01*
X144960395Y-95950000D02*
X145319605Y-95950000D01*
X145403200Y-95950000D02*
X146353070Y-95950000D01*
X149646930Y-95950000D02*
X151865000Y-95950000D01*
X154135000Y-95950000D02*
X159290000Y-95950000D01*
X80710000Y-96153200D02*
X85381386Y-96153200D01*
X89758333Y-96153200D02*
X90381386Y-96153200D01*
X108312113Y-96153200D02*
X113307886Y-96153200D01*
X115932113Y-96153200D02*
X118581270Y-96153200D01*
X121419183Y-96153200D02*
X123070410Y-96153200D01*
X123473595Y-96153200D02*
X123832805Y-96153200D01*
X125167195Y-96153200D02*
X125526405Y-96153200D01*
X125930764Y-96153200D02*
X130217826Y-96153200D01*
X132162173Y-96153200D02*
X133381992Y-96153200D01*
X136615802Y-96153200D02*
X137865000Y-96153200D01*
X140135000Y-96153200D02*
X143217826Y-96153200D01*
X145162173Y-96153200D02*
X146381992Y-96153200D01*
X149615802Y-96153200D02*
X151865000Y-96153200D01*
X154135000Y-96153200D02*
X159290000Y-96153200D01*
X80710000Y-96356400D02*
X85474752Y-96356400D01*
X89961533Y-96356400D02*
X90474752Y-96356400D01*
X93525022Y-96356400D02*
X93751268Y-96356400D01*
X108027161Y-96356400D02*
X113592840Y-96356400D01*
X115647161Y-96356400D02*
X118496894Y-96356400D01*
X121503143Y-96356400D02*
X122994919Y-96356400D01*
X123676795Y-96356400D02*
X124036005Y-96356400D01*
X124963995Y-96356400D02*
X125323205Y-96356400D01*
X126014932Y-96356400D02*
X130292920Y-96356400D01*
X132087079Y-96356400D02*
X133475590Y-96356400D01*
X136524163Y-96356400D02*
X137865000Y-96356400D01*
X140135000Y-96356400D02*
X143292920Y-96356400D01*
X145087079Y-96356400D02*
X146475590Y-96356400D01*
X149524163Y-96356400D02*
X151865000Y-96356400D01*
X154135000Y-96356400D02*
X159290000Y-96356400D01*
X80710000Y-96559600D02*
X85694206Y-96559600D01*
X90164733Y-96559600D02*
X90694206Y-96559600D01*
X93303014Y-96559600D02*
X93954468Y-96559600D01*
X108331271Y-96559600D02*
X113288730Y-96559600D01*
X115951271Y-96559600D02*
X118412518Y-96559600D01*
X121587104Y-96559600D02*
X122919427Y-96559600D01*
X123879995Y-96559600D02*
X124239205Y-96559600D01*
X124760795Y-96559600D02*
X125120005Y-96559600D01*
X126099100Y-96559600D02*
X130694615Y-96559600D01*
X131724433Y-96559600D02*
X133695462Y-96559600D01*
X136301711Y-96559600D02*
X137865000Y-96559600D01*
X140135000Y-96559600D02*
X143694615Y-96559600D01*
X144724433Y-96559600D02*
X146695462Y-96559600D01*
X149301711Y-96559600D02*
X151865000Y-96559600D01*
X154135000Y-96559600D02*
X159290000Y-96559600D01*
X80710000Y-96762800D02*
X87157667Y-96762800D01*
X90367933Y-96762800D02*
X94157668Y-96762800D01*
X108504905Y-96762800D02*
X113115096Y-96762800D01*
X116124905Y-96762800D02*
X118365206Y-96762800D01*
X121635208Y-96762800D02*
X122855103Y-96762800D01*
X124083195Y-96762800D02*
X124442405Y-96762800D01*
X124557595Y-96762800D02*
X124916805Y-96762800D01*
X126127343Y-96762800D02*
X137865000Y-96762800D01*
X140135000Y-96762800D02*
X151865000Y-96762800D01*
X154135000Y-96762800D02*
X159290000Y-96762800D01*
X80710000Y-96966000D02*
X87360867Y-96966000D01*
X90571133Y-96966000D02*
X94360868Y-96966000D01*
X108640680Y-96966000D02*
X112979321Y-96966000D01*
X116260680Y-96966000D02*
X118365029Y-96966000D01*
X121635030Y-96966000D02*
X122862622Y-96966000D01*
X124286395Y-96966000D02*
X124713605Y-96966000D01*
X126134862Y-96966000D02*
X137865000Y-96966000D01*
X140135000Y-96966000D02*
X151865000Y-96966000D01*
X154135000Y-96966000D02*
X159290000Y-96966000D01*
X80710000Y-97169200D02*
X87564067Y-97169200D01*
X90774333Y-97169200D02*
X94564068Y-97169200D01*
X108730301Y-97169200D02*
X112889700Y-97169200D01*
X116350301Y-97169200D02*
X118225668Y-97169200D01*
X121634853Y-97169200D02*
X122870141Y-97169200D01*
X124151195Y-97169200D02*
X124848805Y-97169200D01*
X126142381Y-97169200D02*
X130849668Y-97169200D01*
X131870183Y-97169200D02*
X137865000Y-97169200D01*
X140135000Y-97169200D02*
X144849668Y-97169200D01*
X145870183Y-97169200D02*
X151865000Y-97169200D01*
X154135000Y-97169200D02*
X159290000Y-97169200D01*
X80710000Y-97372400D02*
X87767267Y-97372400D01*
X90977533Y-97372400D02*
X94767268Y-97372400D01*
X108770720Y-97372400D02*
X112849281Y-97372400D01*
X116390720Y-97372400D02*
X118022468Y-97372400D01*
X121615718Y-97372400D02*
X122877660Y-97372400D01*
X123947995Y-97372400D02*
X124307205Y-97372400D01*
X124692795Y-97372400D02*
X125052005Y-97372400D01*
X126105836Y-97372400D02*
X130359099Y-97372400D01*
X132400612Y-97372400D02*
X137865000Y-97372400D01*
X140135000Y-97372400D02*
X144359099Y-97372400D01*
X146400612Y-97372400D02*
X151865000Y-97372400D01*
X154135000Y-97372400D02*
X159290000Y-97372400D01*
X80710000Y-97575600D02*
X87970467Y-97575600D01*
X91180733Y-97575600D02*
X94970468Y-97575600D01*
X108811139Y-97575600D02*
X112808862Y-97575600D01*
X116431139Y-97575600D02*
X117819268Y-97575600D01*
X121531342Y-97575600D02*
X122956902Y-97575600D01*
X123744795Y-97575600D02*
X124104005Y-97575600D01*
X124895995Y-97575600D02*
X125255205Y-97575600D01*
X126030344Y-97575600D02*
X130266490Y-97575600D01*
X132493511Y-97575600D02*
X137758766Y-97575600D01*
X140241554Y-97575600D02*
X144266490Y-97575600D01*
X146493511Y-97575600D02*
X151758766Y-97575600D01*
X154241553Y-97575600D02*
X159290000Y-97575600D01*
X80710000Y-97778800D02*
X88173667Y-97778800D01*
X91383933Y-97778800D02*
X95173668Y-97778800D01*
X108788382Y-97778800D02*
X112831617Y-97778800D01*
X116408382Y-97778800D02*
X117616068Y-97778800D01*
X121446966Y-97778800D02*
X123041070Y-97778800D01*
X123541595Y-97778800D02*
X123900805Y-97778800D01*
X125099195Y-97778800D02*
X125458405Y-97778800D01*
X125954853Y-97778800D02*
X130338405Y-97778800D01*
X132421595Y-97778800D02*
X137555212Y-97778800D01*
X140444400Y-97778800D02*
X144338405Y-97778800D01*
X146421595Y-97778800D02*
X151555212Y-97778800D01*
X154444399Y-97778800D02*
X159290000Y-97778800D01*
X80710000Y-97982000D02*
X88376867Y-97982000D01*
X91587133Y-97982000D02*
X95376868Y-97982000D01*
X108747963Y-97982000D02*
X112872036Y-97982000D01*
X116367963Y-97982000D02*
X117412868Y-97982000D01*
X121330545Y-97982000D02*
X123697605Y-97982000D01*
X125302395Y-97982000D02*
X129751400Y-97982000D01*
X130182395Y-97982000D02*
X130541605Y-97982000D01*
X132218395Y-97982000D02*
X132577605Y-97982000D01*
X133008802Y-97982000D02*
X137381664Y-97982000D01*
X140618944Y-97982000D02*
X143751400Y-97982000D01*
X144182395Y-97982000D02*
X144541605Y-97982000D01*
X146218395Y-97982000D02*
X146577605Y-97982000D01*
X147008802Y-97982000D02*
X151381664Y-97982000D01*
X154618944Y-97982000D02*
X159290000Y-97982000D01*
X80710000Y-98185200D02*
X88580067Y-98185200D01*
X91790333Y-98185200D02*
X95580068Y-98185200D01*
X108700013Y-98185200D02*
X112919986Y-98185200D01*
X116320013Y-98185200D02*
X117209668Y-98185200D01*
X121126989Y-98185200D02*
X123539151Y-98185200D01*
X125460848Y-98185200D02*
X129673557Y-98185200D01*
X130385595Y-98185200D02*
X130744805Y-98185200D01*
X132015195Y-98185200D02*
X132374405Y-98185200D01*
X133092970Y-98185200D02*
X137297287Y-98185200D01*
X140702905Y-98185200D02*
X143673557Y-98185200D01*
X144385595Y-98185200D02*
X144744805Y-98185200D01*
X146015195Y-98185200D02*
X146374405Y-98185200D01*
X147092970Y-98185200D02*
X151297287Y-98185200D01*
X154702905Y-98185200D02*
X159290000Y-98185200D01*
X80710000Y-98388400D02*
X88783267Y-98388400D01*
X91993533Y-98388400D02*
X95783268Y-98388400D01*
X108564239Y-98388400D02*
X113055760Y-98388400D01*
X116184239Y-98388400D02*
X117006468Y-98388400D01*
X120921298Y-98388400D02*
X123614279Y-98388400D01*
X125385720Y-98388400D02*
X129595714Y-98388400D01*
X130588795Y-98388400D02*
X130948005Y-98388400D01*
X131811995Y-98388400D02*
X132171205Y-98388400D01*
X133177138Y-98388400D02*
X137212911Y-98388400D01*
X140786865Y-98388400D02*
X143595714Y-98388400D01*
X144588795Y-98388400D02*
X144948005Y-98388400D01*
X145811995Y-98388400D02*
X146171205Y-98388400D01*
X147177138Y-98388400D02*
X151212911Y-98388400D01*
X154786865Y-98388400D02*
X159290000Y-98388400D01*
X80710000Y-98591600D02*
X88986467Y-98591600D01*
X92196733Y-98591600D02*
X95986468Y-98591600D01*
X108428465Y-98591600D02*
X113191534Y-98591600D01*
X116048465Y-98591600D02*
X116803268Y-98591600D01*
X120429518Y-98591600D02*
X124089280Y-98591600D01*
X124958504Y-98591600D02*
X129517871Y-98591600D01*
X130791995Y-98591600D02*
X131151205Y-98591600D01*
X131608795Y-98591600D02*
X131968005Y-98591600D01*
X133254708Y-98591600D02*
X137128535Y-98591600D01*
X140870826Y-98591600D02*
X143517871Y-98591600D01*
X144791995Y-98591600D02*
X145151205Y-98591600D01*
X145608795Y-98591600D02*
X145968005Y-98591600D01*
X147254708Y-98591600D02*
X151128535Y-98591600D01*
X154870826Y-98591600D02*
X159290000Y-98591600D01*
X80710000Y-98794800D02*
X89189667Y-98794800D01*
X92399933Y-98794800D02*
X96189668Y-98794800D01*
X108160058Y-98794800D02*
X113459941Y-98794800D01*
X115780058Y-98794800D02*
X116600068Y-98794800D01*
X119810332Y-98794800D02*
X129488808Y-98794800D01*
X130995195Y-98794800D02*
X131354405Y-98794800D01*
X131405595Y-98794800D02*
X131764805Y-98794800D01*
X133260167Y-98794800D02*
X137115179Y-98794800D01*
X140885179Y-98794800D02*
X143488808Y-98794800D01*
X144995195Y-98794800D02*
X145354405Y-98794800D01*
X145405595Y-98794800D02*
X145764805Y-98794800D01*
X147260167Y-98794800D02*
X151115179Y-98794800D01*
X154885179Y-98794800D02*
X159290000Y-98794800D01*
X80710000Y-98998000D02*
X85957187Y-98998000D01*
X86873000Y-98998000D02*
X87127000Y-98998000D01*
X88042814Y-98998000D02*
X89392867Y-98998000D01*
X92603133Y-98998000D02*
X96392868Y-98998000D01*
X108179216Y-98998000D02*
X113440785Y-98998000D01*
X115799216Y-98998000D02*
X116396868Y-98998000D01*
X119607132Y-98998000D02*
X129494267Y-98998000D01*
X131198395Y-98998000D02*
X131561605Y-98998000D01*
X133265626Y-98998000D02*
X137115002Y-98998000D01*
X140885002Y-98998000D02*
X143494267Y-98998000D01*
X145198395Y-98998000D02*
X145561605Y-98998000D01*
X147265626Y-98998000D02*
X151115002Y-98998000D01*
X154885002Y-98998000D02*
X159290000Y-98998000D01*
X80710000Y-99201200D02*
X85698755Y-99201200D01*
X86873000Y-99201200D02*
X87127000Y-99201200D01*
X88301246Y-99201200D02*
X89596067Y-99201200D01*
X92806333Y-99201200D02*
X96596068Y-99201200D01*
X108437018Y-99201200D02*
X113182983Y-99201200D01*
X119403932Y-99201200D02*
X129499726Y-99201200D01*
X130999195Y-99201200D02*
X131358405Y-99201200D01*
X131401595Y-99201200D02*
X131760805Y-99201200D01*
X133271084Y-99201200D02*
X137114825Y-99201200D01*
X140884824Y-99201200D02*
X143499726Y-99201200D01*
X144999195Y-99201200D02*
X145358405Y-99201200D01*
X145401595Y-99201200D02*
X145760805Y-99201200D01*
X147271084Y-99201200D02*
X151114825Y-99201200D01*
X154884824Y-99201200D02*
X159290000Y-99201200D01*
X80710000Y-99404400D02*
X85448062Y-99404400D01*
X86873000Y-99404400D02*
X87127000Y-99404400D01*
X88551939Y-99404400D02*
X89799267Y-99404400D01*
X93009533Y-99404400D02*
X96799268Y-99404400D01*
X108572792Y-99404400D02*
X113047209Y-99404400D01*
X119200732Y-99404400D02*
X129505184Y-99404400D01*
X130795995Y-99404400D02*
X131155205Y-99404400D01*
X131604795Y-99404400D02*
X131964005Y-99404400D01*
X133243662Y-99404400D02*
X137127522Y-99404400D01*
X140873126Y-99404400D02*
X143505184Y-99404400D01*
X144795995Y-99404400D02*
X145155205Y-99404400D01*
X145604795Y-99404400D02*
X145964005Y-99404400D01*
X147243662Y-99404400D02*
X151127522Y-99404400D01*
X154873126Y-99404400D02*
X159290000Y-99404400D01*
X80710000Y-99607600D02*
X85333992Y-99607600D01*
X86873000Y-99607600D02*
X87127000Y-99607600D01*
X88666009Y-99607600D02*
X90002467Y-99607600D01*
X93212733Y-99607600D02*
X97002468Y-99607600D01*
X108708567Y-99607600D02*
X112911434Y-99607600D01*
X118997532Y-99607600D02*
X129581205Y-99607600D01*
X130592795Y-99607600D02*
X130952005Y-99607600D01*
X131807995Y-99607600D02*
X132167205Y-99607600D01*
X133165819Y-99607600D02*
X137211482Y-99607600D01*
X140788750Y-99607600D02*
X143581205Y-99607600D01*
X144592795Y-99607600D02*
X144952005Y-99607600D01*
X145807995Y-99607600D02*
X146167205Y-99607600D01*
X147165819Y-99607600D02*
X151211482Y-99607600D01*
X154788750Y-99607600D02*
X159290000Y-99607600D01*
X80710000Y-99810800D02*
X85219922Y-99810800D01*
X86873000Y-99810800D02*
X87127000Y-99810800D01*
X88780079Y-99810800D02*
X90205667Y-99810800D01*
X93415933Y-99810800D02*
X97205668Y-99810800D01*
X108750510Y-99810800D02*
X112869491Y-99810800D01*
X118794332Y-99810800D02*
X129665373Y-99810800D01*
X130389595Y-99810800D02*
X130748805Y-99810800D01*
X132011195Y-99810800D02*
X132370405Y-99810800D01*
X133087975Y-99810800D02*
X137295442Y-99810800D01*
X140704374Y-99810800D02*
X143665373Y-99810800D01*
X144389595Y-99810800D02*
X144748805Y-99810800D01*
X146011195Y-99810800D02*
X146370405Y-99810800D01*
X147087975Y-99810800D02*
X151295442Y-99810800D01*
X154704374Y-99810800D02*
X159290000Y-99810800D01*
X80710000Y-100014000D02*
X85125755Y-100014000D01*
X86873000Y-100014000D02*
X87127000Y-100014000D01*
X88874246Y-100014000D02*
X90408867Y-100014000D01*
X93619133Y-100014000D02*
X97408868Y-100014000D01*
X108790929Y-100014000D02*
X112829072Y-100014000D01*
X118591132Y-100014000D02*
X129749541Y-100014000D01*
X130186395Y-100014000D02*
X130545605Y-100014000D01*
X132214395Y-100014000D02*
X132573605Y-100014000D01*
X133010132Y-100014000D02*
X137379403Y-100014000D01*
X140619997Y-100014000D02*
X143749541Y-100014000D01*
X144186395Y-100014000D02*
X144545605Y-100014000D01*
X146214395Y-100014000D02*
X146573605Y-100014000D01*
X147010132Y-100014000D02*
X151379403Y-100014000D01*
X154619997Y-100014000D02*
X159290000Y-100014000D01*
X80710000Y-100217200D02*
X85174690Y-100217200D01*
X86873000Y-100217200D02*
X87127000Y-100217200D01*
X88825309Y-100217200D02*
X90612067Y-100217200D01*
X93822333Y-100217200D02*
X97612068Y-100217200D01*
X108808592Y-100217200D02*
X112811407Y-100217200D01*
X118387932Y-100217200D02*
X130342405Y-100217200D01*
X132417595Y-100217200D02*
X137551608Y-100217200D01*
X140448795Y-100217200D02*
X144342405Y-100217200D01*
X146417595Y-100217200D02*
X151551608Y-100217200D01*
X154448795Y-100217200D02*
X159290000Y-100217200D01*
X80710000Y-100420400D02*
X90815267Y-100420400D01*
X94025533Y-100420400D02*
X97815268Y-100420400D01*
X108768173Y-100420400D02*
X112851826Y-100420400D01*
X118184732Y-100420400D02*
X130264723Y-100420400D01*
X132495276Y-100420400D02*
X137754453Y-100420400D01*
X140245240Y-100420400D02*
X144264723Y-100420400D01*
X146495276Y-100420400D02*
X151754453Y-100420400D01*
X154245240Y-100420400D02*
X159290000Y-100420400D01*
X80710000Y-100623600D02*
X85211988Y-100623600D01*
X88788013Y-100623600D02*
X91018467Y-100623600D01*
X94228733Y-100623600D02*
X95181557Y-100623600D01*
X95738444Y-100623600D02*
X98018468Y-100623600D01*
X108727754Y-100623600D02*
X112892245Y-100623600D01*
X117981532Y-100623600D02*
X130354419Y-100623600D01*
X132405580Y-100623600D02*
X137994674Y-100623600D01*
X140006731Y-100623600D02*
X144354419Y-100623600D01*
X146405580Y-100623600D02*
X151994674Y-100623600D01*
X154006731Y-100623600D02*
X159290000Y-100623600D01*
X80710000Y-100826800D02*
X85116297Y-100826800D01*
X88883704Y-100826800D02*
X91221667Y-100826800D01*
X94431933Y-100826800D02*
X94673989Y-100826800D01*
X96246012Y-100826800D02*
X97281652Y-100826800D01*
X97873000Y-100826800D02*
X98127000Y-100826800D01*
X108632126Y-100826800D02*
X112987873Y-100826800D01*
X117778332Y-100826800D02*
X130879375Y-100826800D01*
X131919989Y-100826800D02*
X138484033Y-100826800D01*
X139514948Y-100826800D02*
X144879375Y-100826800D01*
X145919989Y-100826800D02*
X152484033Y-100826800D01*
X153514948Y-100826800D02*
X159290000Y-100826800D01*
X80710000Y-101030000D02*
X85175461Y-101030000D01*
X88824538Y-101030000D02*
X91424867Y-101030000D01*
X96527799Y-101030000D02*
X96984033Y-101030000D01*
X97873000Y-101030000D02*
X98127000Y-101030000D01*
X108496352Y-101030000D02*
X113123647Y-101030000D01*
X117541643Y-101030000D02*
X119276189Y-101030000D01*
X120723330Y-101030000D02*
X123747927Y-101030000D01*
X125238030Y-101030000D02*
X159290000Y-101030000D01*
X80710000Y-101233200D02*
X85289531Y-101233200D01*
X88710468Y-101233200D02*
X91628067Y-101233200D01*
X96663572Y-101233200D02*
X96821592Y-101233200D01*
X97873000Y-101233200D02*
X98127000Y-101233200D01*
X108312113Y-101233200D02*
X113307886Y-101233200D01*
X117150688Y-101233200D02*
X118954753Y-101233200D01*
X121045635Y-101233200D02*
X123569321Y-101233200D01*
X125430680Y-101233200D02*
X159290000Y-101233200D01*
X80710000Y-101436400D02*
X85403202Y-101436400D01*
X88599940Y-101436400D02*
X91831267Y-101436400D01*
X97873000Y-101436400D02*
X98127000Y-101436400D01*
X108027161Y-101436400D02*
X113592840Y-101436400D01*
X115647161Y-101436400D02*
X118751198Y-101436400D01*
X121248480Y-101436400D02*
X123616005Y-101436400D01*
X125383995Y-101436400D02*
X159290000Y-101436400D01*
X80710000Y-101639600D02*
X85177711Y-101639600D01*
X88822674Y-101639600D02*
X92034467Y-101639600D01*
X97873000Y-101639600D02*
X98127000Y-101639600D01*
X108331271Y-101639600D02*
X113288730Y-101639600D01*
X121413563Y-101639600D02*
X123075463Y-101639600D01*
X123459995Y-101639600D02*
X123819205Y-101639600D01*
X125180795Y-101639600D02*
X125540005Y-101639600D01*
X125925130Y-101639600D02*
X159290000Y-101639600D01*
X80710000Y-101842800D02*
X85084394Y-101842800D01*
X88917861Y-101842800D02*
X92237667Y-101842800D01*
X97873000Y-101842800D02*
X98127000Y-101842800D01*
X108504905Y-101842800D02*
X113115096Y-101842800D01*
X121497524Y-101842800D02*
X122999971Y-101842800D01*
X123663195Y-101842800D02*
X124022405Y-101842800D01*
X124977595Y-101842800D02*
X125336805Y-101842800D01*
X126009298Y-101842800D02*
X159290000Y-101842800D01*
X80710000Y-102046000D02*
X85052560Y-102046000D01*
X97873000Y-102046000D02*
X98127000Y-102046000D01*
X108640680Y-102046000D02*
X112979321Y-102046000D01*
X121581485Y-102046000D02*
X122924480Y-102046000D01*
X123866395Y-102046000D02*
X124225605Y-102046000D01*
X124774395Y-102046000D02*
X125133605Y-102046000D01*
X126093466Y-102046000D02*
X159290000Y-102046000D01*
X80710000Y-102249200D02*
X85052560Y-102249200D01*
X97873000Y-102249200D02*
X98127000Y-102249200D01*
X108730301Y-102249200D02*
X112889700Y-102249200D01*
X121635220Y-102249200D02*
X122854600Y-102249200D01*
X124069595Y-102249200D02*
X124428805Y-102249200D01*
X124571195Y-102249200D02*
X124930405Y-102249200D01*
X126126839Y-102249200D02*
X159290000Y-102249200D01*
X80710000Y-102452400D02*
X85052560Y-102452400D01*
X97873000Y-102452400D02*
X98127000Y-102452400D01*
X108770720Y-102452400D02*
X112849281Y-102452400D01*
X121635042Y-102452400D02*
X122862119Y-102452400D01*
X124272795Y-102452400D02*
X124727205Y-102452400D01*
X126134358Y-102452400D02*
X159290000Y-102452400D01*
X80710000Y-102655600D02*
X85052560Y-102655600D01*
X97873000Y-102655600D02*
X98127000Y-102655600D01*
X108811139Y-102655600D02*
X112808862Y-102655600D01*
X121634865Y-102655600D02*
X122869638Y-102655600D01*
X124164795Y-102655600D02*
X124835205Y-102655600D01*
X126141877Y-102655600D02*
X159290000Y-102655600D01*
X80710000Y-102858800D02*
X85052560Y-102858800D01*
X97873000Y-102858800D02*
X98127000Y-102858800D01*
X108788382Y-102858800D02*
X112831617Y-102858800D01*
X121621365Y-102858800D02*
X122877157Y-102858800D01*
X123961595Y-102858800D02*
X124320805Y-102858800D01*
X124679195Y-102858800D02*
X125038405Y-102858800D01*
X126110888Y-102858800D02*
X159290000Y-102858800D01*
X80710000Y-103062000D02*
X85052560Y-103062000D01*
X97853000Y-103062000D02*
X98147000Y-103062000D01*
X108747963Y-103062000D02*
X112872036Y-103062000D01*
X121536989Y-103062000D02*
X122951269Y-103062000D01*
X123758395Y-103062000D02*
X124117605Y-103062000D01*
X124882395Y-103062000D02*
X125241605Y-103062000D01*
X126035397Y-103062000D02*
X159290000Y-103062000D01*
X80710000Y-103265200D02*
X85052560Y-103265200D01*
X97873000Y-103265200D02*
X98127000Y-103265200D01*
X108700013Y-103265200D02*
X112919986Y-103265200D01*
X121452613Y-103265200D02*
X123035437Y-103265200D01*
X123555195Y-103265200D02*
X123914405Y-103265200D01*
X125085595Y-103265200D02*
X125444805Y-103265200D01*
X125959905Y-103265200D02*
X159290000Y-103265200D01*
X80710000Y-103468400D02*
X85052560Y-103468400D01*
X97873000Y-103468400D02*
X98127000Y-103468400D01*
X108564239Y-103468400D02*
X113055760Y-103468400D01*
X121344169Y-103468400D02*
X123335223Y-103468400D01*
X123351995Y-103468400D02*
X123711205Y-103468400D01*
X125288795Y-103468400D02*
X125648005Y-103468400D01*
X125664776Y-103468400D02*
X159290000Y-103468400D01*
X80710000Y-103671600D02*
X85052560Y-103671600D01*
X97873000Y-103671600D02*
X98127000Y-103671600D01*
X108428465Y-103671600D02*
X113191534Y-103671600D01*
X121140613Y-103671600D02*
X123534122Y-103671600D01*
X125465877Y-103671600D02*
X159290000Y-103671600D01*
X80710000Y-103874800D02*
X85052560Y-103874800D01*
X97873000Y-103874800D02*
X98127000Y-103874800D01*
X108160058Y-103874800D02*
X113459941Y-103874800D01*
X115780059Y-103874800D02*
X119062177Y-103874800D01*
X120937058Y-103874800D02*
X123609251Y-103874800D01*
X125390748Y-103874800D02*
X159290000Y-103874800D01*
X80710000Y-104078000D02*
X85067236Y-104078000D01*
X97873000Y-104078000D02*
X98127000Y-104078000D01*
X108179216Y-104078000D02*
X113460318Y-104078000D01*
X115779683Y-104078000D02*
X119536764Y-104078000D01*
X120462432Y-104078000D02*
X124052673Y-104078000D01*
X124991337Y-104078000D02*
X159290000Y-104078000D01*
X80710000Y-104281200D02*
X85126362Y-104281200D01*
X88876404Y-104281200D02*
X94041815Y-104281200D01*
X97873000Y-104281200D02*
X98127000Y-104281200D01*
X108808746Y-104281200D02*
X113207657Y-104281200D01*
X116032344Y-104281200D02*
X159290000Y-104281200D01*
X80710000Y-104484400D02*
X85284147Y-104484400D01*
X88719878Y-104484400D02*
X94082234Y-104484400D01*
X97873000Y-104484400D02*
X98127000Y-104484400D01*
X109089532Y-104484400D02*
X113072843Y-104484400D01*
X116167158Y-104484400D02*
X159290000Y-104484400D01*
X80710000Y-104687600D02*
X94203508Y-104687600D01*
X96716491Y-104687600D02*
X96758277Y-104687600D01*
X97873000Y-104687600D02*
X98127000Y-104687600D01*
X99241722Y-104687600D02*
X99283508Y-104687600D01*
X109292732Y-104687600D02*
X112961629Y-104687600D01*
X116278372Y-104687600D02*
X159290000Y-104687600D01*
X80710000Y-104890800D02*
X94339282Y-104890800D01*
X96580717Y-104890800D02*
X96920719Y-104890800D01*
X97873000Y-104890800D02*
X98127000Y-104890800D01*
X99079280Y-104890800D02*
X99419282Y-104890800D01*
X109495932Y-104890800D02*
X112878131Y-104890800D01*
X116361870Y-104890800D02*
X130628841Y-104890800D01*
X132131013Y-104890800D02*
X138248841Y-104890800D01*
X139751013Y-104890800D02*
X144628841Y-104890800D01*
X146131013Y-104890800D02*
X152248841Y-104890800D01*
X153751013Y-104890800D02*
X159290000Y-104890800D01*
X80710000Y-105094000D02*
X94555456Y-105094000D01*
X96364543Y-105094000D02*
X97137947Y-105094000D01*
X97873000Y-105094000D02*
X98127000Y-105094000D01*
X98862052Y-105094000D02*
X99635456Y-105094000D01*
X101444543Y-105094000D02*
X101488868Y-105094000D01*
X109699132Y-105094000D02*
X112989646Y-105094000D01*
X114493000Y-105094000D02*
X114747000Y-105094000D01*
X116250353Y-105094000D02*
X130240544Y-105094000D01*
X132520131Y-105094000D02*
X137860544Y-105094000D01*
X140140131Y-105094000D02*
X144240544Y-105094000D01*
X146520131Y-105094000D02*
X151860544Y-105094000D01*
X154140131Y-105094000D02*
X159290000Y-105094000D01*
X80710000Y-105297200D02*
X94859567Y-105297200D01*
X96060432Y-105297200D02*
X97506643Y-105297200D01*
X97727162Y-105297200D02*
X98272837Y-105297200D01*
X98493356Y-105297200D02*
X99939567Y-105297200D01*
X101140432Y-105297200D02*
X101692068Y-105297200D01*
X109902332Y-105297200D02*
X130036989Y-105297200D01*
X132722976Y-105297200D02*
X137656989Y-105297200D01*
X140342977Y-105297200D02*
X144036989Y-105297200D01*
X146722976Y-105297200D02*
X151656989Y-105297200D01*
X154342976Y-105297200D02*
X159290000Y-105297200D01*
X80710000Y-105500400D02*
X101895268Y-105500400D01*
X110105532Y-105500400D02*
X112926795Y-105500400D01*
X116313206Y-105500400D02*
X129833435Y-105500400D01*
X132925822Y-105500400D02*
X137453435Y-105500400D01*
X146925822Y-105500400D02*
X151453435Y-105500400D01*
X154545822Y-105500400D02*
X159290000Y-105500400D01*
X80710000Y-105703600D02*
X102098468Y-105703600D01*
X110308732Y-105703600D02*
X112913027Y-105703600D01*
X116326972Y-105703600D02*
X129719475Y-105703600D01*
X133040925Y-105703600D02*
X137339475Y-105703600D01*
X147040925Y-105703600D02*
X151339475Y-105703600D01*
X154660925Y-105703600D02*
X159290000Y-105703600D01*
X80710000Y-105906800D02*
X102301668Y-105906800D01*
X110511932Y-105906800D02*
X113024240Y-105906800D01*
X116215759Y-105906800D02*
X129488068Y-105906800D01*
X133124885Y-105906800D02*
X137255099Y-105906800D01*
X147124885Y-105906800D02*
X151255099Y-105906800D01*
X154744885Y-105906800D02*
X159290000Y-105906800D01*
X80710000Y-106110000D02*
X102538356Y-106110000D01*
X110715132Y-106110000D02*
X113135454Y-106110000D01*
X116104545Y-106110000D02*
X129284868Y-106110000D01*
X133208845Y-106110000D02*
X137170723Y-106110000D01*
X147208845Y-106110000D02*
X151170723Y-106110000D01*
X154828845Y-106110000D02*
X159290000Y-106110000D01*
X80710000Y-106313200D02*
X102929311Y-106313200D01*
X110918332Y-106313200D02*
X113349902Y-106313200D01*
X115890097Y-106313200D02*
X129081668Y-106313200D01*
X133265267Y-106313200D02*
X137115268Y-106313200D01*
X147265267Y-106313200D02*
X151115268Y-106313200D01*
X154885268Y-106313200D02*
X159290000Y-106313200D01*
X80710000Y-106516400D02*
X105966649Y-106516400D01*
X111121532Y-106516400D02*
X113592840Y-106516400D01*
X115647161Y-106516400D02*
X128878468Y-106516400D01*
X133265090Y-106516400D02*
X137115090Y-106516400D01*
X147265090Y-106516400D02*
X151115090Y-106516400D01*
X154885090Y-106516400D02*
X159290000Y-106516400D01*
X80710000Y-106719600D02*
X105713988Y-106719600D01*
X111324732Y-106719600D02*
X113288730Y-106719600D01*
X115951271Y-106719600D02*
X128675268Y-106719600D01*
X133264913Y-106719600D02*
X137114913Y-106719600D01*
X147264913Y-106719600D02*
X151114913Y-106719600D01*
X154884913Y-106719600D02*
X159290000Y-106719600D01*
X80710000Y-106922800D02*
X105508450Y-106922800D01*
X111527932Y-106922800D02*
X113115096Y-106922800D01*
X116124905Y-106922800D02*
X128472068Y-106922800D01*
X133264735Y-106922800D02*
X137114736Y-106922800D01*
X147264736Y-106922800D02*
X151114736Y-106922800D01*
X154907932Y-106922800D02*
X159290000Y-106922800D01*
X80710000Y-107126000D02*
X105397236Y-107126000D01*
X111731132Y-107126000D02*
X112979321Y-107126000D01*
X116260680Y-107126000D02*
X128268868Y-107126000D01*
X133210938Y-107126000D02*
X137169502Y-107126000D01*
X147210938Y-107126000D02*
X151169502Y-107126000D01*
X155111132Y-107126000D02*
X159290000Y-107126000D01*
X80710000Y-107329200D02*
X105286022Y-107329200D01*
X108713979Y-107329200D02*
X108724068Y-107329200D01*
X111934332Y-107329200D02*
X112889700Y-107329200D01*
X116350301Y-107329200D02*
X128065668Y-107329200D01*
X133126562Y-107329200D02*
X137253462Y-107329200D01*
X147126562Y-107329200D02*
X151253462Y-107329200D01*
X155314332Y-107329200D02*
X159290000Y-107329200D01*
X80710000Y-107532400D02*
X105313826Y-107532400D01*
X108686173Y-107532400D02*
X108927268Y-107532400D01*
X112137532Y-107532400D02*
X112849281Y-107532400D01*
X116390720Y-107532400D02*
X119270380Y-107532400D01*
X120729110Y-107532400D02*
X123742133Y-107532400D01*
X125244490Y-107532400D02*
X127862468Y-107532400D01*
X133042185Y-107532400D02*
X137337423Y-107532400D01*
X147042185Y-107532400D02*
X151337423Y-107532400D01*
X155517532Y-107532400D02*
X159290000Y-107532400D01*
X80710000Y-107735600D02*
X109130468Y-107735600D01*
X112340732Y-107735600D02*
X112808862Y-107735600D01*
X116431139Y-107735600D02*
X118952349Y-107735600D01*
X121048031Y-107735600D02*
X123568434Y-107735600D01*
X125431567Y-107735600D02*
X127659268Y-107735600D01*
X132930572Y-107735600D02*
X137450185Y-107735600D01*
X146930572Y-107735600D02*
X151450185Y-107735600D01*
X155720732Y-107735600D02*
X159290000Y-107735600D01*
X80710000Y-107938800D02*
X105362614Y-107938800D01*
X108637387Y-107938800D02*
X109333668Y-107938800D01*
X112543932Y-107938800D02*
X112831617Y-107938800D01*
X116408382Y-107938800D02*
X118748794Y-107938800D01*
X121250876Y-107938800D02*
X123618405Y-107938800D01*
X125381595Y-107938800D02*
X127456068Y-107938800D01*
X132727018Y-107938800D02*
X137653031Y-107938800D01*
X140347018Y-107938800D02*
X144033030Y-107938800D01*
X146727018Y-107938800D02*
X151653031Y-107938800D01*
X155923932Y-107938800D02*
X159290000Y-107938800D01*
X80710000Y-108142000D02*
X105260841Y-108142000D01*
X108739158Y-108142000D02*
X109536868Y-108142000D01*
X112747132Y-108142000D02*
X112872036Y-108142000D01*
X116367963Y-108142000D02*
X118585921Y-108142000D01*
X121414555Y-108142000D02*
X123074571Y-108142000D01*
X123462395Y-108142000D02*
X123821605Y-108142000D01*
X125178395Y-108142000D02*
X125537605Y-108142000D01*
X125926124Y-108142000D02*
X127252868Y-108142000D01*
X132523463Y-108142000D02*
X137855876Y-108142000D01*
X140143463Y-108142000D02*
X144235876Y-108142000D01*
X146523463Y-108142000D02*
X151855876Y-108142000D01*
X156127132Y-108142000D02*
X159290000Y-108142000D01*
X80710000Y-108345200D02*
X105348634Y-108345200D01*
X108651365Y-108345200D02*
X109740068Y-108345200D01*
X116320013Y-108345200D02*
X118501545Y-108345200D01*
X121498516Y-108345200D02*
X122999080Y-108345200D01*
X123665595Y-108345200D02*
X124024805Y-108345200D01*
X124975195Y-108345200D02*
X125334405Y-108345200D01*
X126010292Y-108345200D02*
X127098700Y-108345200D01*
X130259932Y-108345200D02*
X130619354Y-108345200D01*
X132140840Y-108345200D02*
X138239354Y-108345200D01*
X139760840Y-108345200D02*
X144619354Y-108345200D01*
X146140840Y-108345200D02*
X152239354Y-108345200D01*
X156330332Y-108345200D02*
X159290000Y-108345200D01*
X80710000Y-108548400D02*
X105459847Y-108548400D01*
X108540152Y-108548400D02*
X109943268Y-108548400D01*
X116184239Y-108548400D02*
X118417169Y-108548400D01*
X121582476Y-108548400D02*
X122923588Y-108548400D01*
X123868795Y-108548400D02*
X124228005Y-108548400D01*
X124771995Y-108548400D02*
X125131205Y-108548400D01*
X126094460Y-108548400D02*
X126962926Y-108548400D01*
X130056732Y-108548400D02*
X153323268Y-108548400D01*
X156533532Y-108548400D02*
X159290000Y-108548400D01*
X80710000Y-108751600D02*
X84123054Y-108751600D01*
X84822370Y-108751600D02*
X86107283Y-108751600D01*
X87892167Y-108751600D02*
X105603572Y-108751600D01*
X108396427Y-108751600D02*
X110146468Y-108751600D01*
X116048465Y-108751600D02*
X118365216Y-108751600D01*
X121635217Y-108751600D02*
X122854689Y-108751600D01*
X124071995Y-108751600D02*
X124431205Y-108751600D01*
X124568795Y-108751600D02*
X124928005Y-108751600D01*
X126126928Y-108751600D02*
X126914410Y-108751600D01*
X129853532Y-108751600D02*
X153526468Y-108751600D01*
X156736732Y-108751600D02*
X159290000Y-108751600D01*
X80710000Y-108954800D02*
X83815889Y-108954800D01*
X85184112Y-108954800D02*
X85851489Y-108954800D01*
X91880379Y-108954800D02*
X105856233Y-108954800D01*
X108143766Y-108954800D02*
X110349668Y-108954800D01*
X115780058Y-108954800D02*
X118365039Y-108954800D01*
X121635040Y-108954800D02*
X122862208Y-108954800D01*
X124275195Y-108954800D02*
X124724805Y-108954800D01*
X126134447Y-108954800D02*
X126873991Y-108954800D01*
X129650332Y-108954800D02*
X153729668Y-108954800D01*
X156939932Y-108954800D02*
X159290000Y-108954800D01*
X80710000Y-109158000D02*
X83837605Y-109158000D01*
X85162394Y-109158000D02*
X85741441Y-109158000D01*
X92184489Y-109158000D02*
X105820785Y-109158000D01*
X108179216Y-109158000D02*
X110552868Y-109158000D01*
X115799216Y-109158000D02*
X118364861Y-109158000D01*
X121634863Y-109158000D02*
X122869727Y-109158000D01*
X124162395Y-109158000D02*
X124837605Y-109158000D01*
X126141966Y-109158000D02*
X126865000Y-109158000D01*
X129447132Y-109158000D02*
X153932868Y-109158000D01*
X157143132Y-109158000D02*
X159290000Y-109158000D01*
X80710000Y-109361200D02*
X83361715Y-109361200D01*
X83681595Y-109361200D02*
X84040805Y-109361200D01*
X84959194Y-109361200D02*
X85318406Y-109361200D01*
X85639937Y-109361200D02*
X85702560Y-109361200D01*
X92728291Y-109361200D02*
X105562982Y-109361200D01*
X108437018Y-109361200D02*
X110756068Y-109361200D01*
X116888747Y-109361200D02*
X118380171Y-109361200D01*
X121620368Y-109361200D02*
X122877246Y-109361200D01*
X123959195Y-109361200D02*
X124318405Y-109361200D01*
X124681595Y-109361200D02*
X125040805Y-109361200D01*
X126109997Y-109361200D02*
X126865000Y-109361200D01*
X129243932Y-109361200D02*
X154136068Y-109361200D01*
X157346332Y-109361200D02*
X159290000Y-109361200D01*
X80710000Y-109564400D02*
X83291003Y-109564400D01*
X83884795Y-109564400D02*
X84244005Y-109564400D01*
X84755994Y-109564400D02*
X85115206Y-109564400D01*
X108572792Y-109564400D02*
X110959268Y-109564400D01*
X117169532Y-109564400D02*
X118464132Y-109564400D01*
X121535993Y-109564400D02*
X122952263Y-109564400D01*
X123755995Y-109564400D02*
X124115205Y-109564400D01*
X124884795Y-109564400D02*
X125244005Y-109564400D01*
X126034505Y-109564400D02*
X126865000Y-109564400D01*
X129135000Y-109564400D02*
X154339268Y-109564400D01*
X157549532Y-109564400D02*
X159290000Y-109564400D01*
X80710000Y-109767600D02*
X83220292Y-109767600D01*
X84087995Y-109767600D02*
X84447205Y-109767600D01*
X84552794Y-109767600D02*
X84912006Y-109767600D01*
X108708567Y-109767600D02*
X111162468Y-109767600D01*
X117372732Y-109767600D02*
X118548093Y-109767600D01*
X121451617Y-109767600D02*
X123036431Y-109767600D01*
X123552795Y-109767600D02*
X123912005Y-109767600D01*
X125087995Y-109767600D02*
X125447205Y-109767600D01*
X125959014Y-109767600D02*
X126865000Y-109767600D01*
X129135000Y-109767600D02*
X154542468Y-109767600D01*
X157752732Y-109767600D02*
X159290000Y-109767600D01*
X80710000Y-109970800D02*
X83211159Y-109970800D01*
X84291195Y-109970800D02*
X84708806Y-109970800D01*
X108750510Y-109970800D02*
X111365668Y-109970800D01*
X117575932Y-109970800D02*
X118658882Y-109970800D01*
X121341764Y-109970800D02*
X123341715Y-109970800D01*
X123349595Y-109970800D02*
X123708805Y-109970800D01*
X125291195Y-109970800D02*
X125650405Y-109970800D01*
X125658284Y-109970800D02*
X126865000Y-109970800D01*
X129135000Y-109970800D02*
X130628841Y-109970800D01*
X132131013Y-109970800D02*
X138248841Y-109970800D01*
X139751013Y-109970800D02*
X144628841Y-109970800D01*
X146131013Y-109970800D02*
X152248841Y-109970800D01*
X153751013Y-109970800D02*
X154745668Y-109970800D01*
X157905042Y-109970800D02*
X159290000Y-109970800D01*
X80710000Y-110174000D02*
X83222920Y-110174000D01*
X84146394Y-110174000D02*
X84853605Y-110174000D01*
X108790929Y-110174000D02*
X111568868Y-110174000D01*
X117779132Y-110174000D02*
X118861728Y-110174000D01*
X121138209Y-110174000D02*
X123535010Y-110174000D01*
X125464989Y-110174000D02*
X126865000Y-110174000D01*
X129135000Y-110174000D02*
X130240544Y-110174000D01*
X132520131Y-110174000D02*
X137860544Y-110174000D01*
X140140131Y-110174000D02*
X144240544Y-110174000D01*
X146520131Y-110174000D02*
X151860544Y-110174000D01*
X154140131Y-110174000D02*
X154948868Y-110174000D01*
X158040817Y-110174000D02*
X159290000Y-110174000D01*
X80710000Y-110377200D02*
X83251704Y-110377200D01*
X83943194Y-110377200D02*
X84302406Y-110377200D01*
X84697595Y-110377200D02*
X85056805Y-110377200D01*
X108808592Y-110377200D02*
X111772068Y-110377200D01*
X117982332Y-110377200D02*
X119064573Y-110377200D01*
X120934653Y-110377200D02*
X123610138Y-110377200D01*
X125389861Y-110377200D02*
X126865000Y-110377200D01*
X129135000Y-110377200D02*
X130036989Y-110377200D01*
X132722977Y-110377200D02*
X137656989Y-110377200D01*
X140342976Y-110377200D02*
X144036989Y-110377200D01*
X146722977Y-110377200D02*
X151656989Y-110377200D01*
X154342976Y-110377200D02*
X155152068Y-110377200D01*
X158086704Y-110377200D02*
X159290000Y-110377200D01*
X80710000Y-110580400D02*
X83335873Y-110580400D01*
X83739994Y-110580400D02*
X84099206Y-110580400D01*
X84900795Y-110580400D02*
X85260005Y-110580400D01*
X85658608Y-110580400D02*
X85702560Y-110580400D01*
X108768173Y-110580400D02*
X111975268Y-110580400D01*
X118185532Y-110580400D02*
X119542544Y-110580400D01*
X120456624Y-110580400D02*
X124059133Y-110580400D01*
X124985543Y-110580400D02*
X126865000Y-110580400D01*
X129135000Y-110580400D02*
X129833435Y-110580400D01*
X140545822Y-110580400D02*
X143833435Y-110580400D01*
X154545822Y-110580400D02*
X155355268Y-110580400D01*
X158127124Y-110580400D02*
X159290000Y-110580400D01*
X80710000Y-110783600D02*
X83896006Y-110783600D01*
X85103995Y-110783600D02*
X85727698Y-110783600D01*
X108727754Y-110783600D02*
X112178468Y-110783600D01*
X118388732Y-110783600D02*
X126865000Y-110783600D01*
X129135000Y-110783600D02*
X129719475Y-110783600D01*
X140660925Y-110783600D02*
X143719475Y-110783600D01*
X154660925Y-110783600D02*
X155558468Y-110783600D01*
X158135000Y-110783600D02*
X159290000Y-110783600D01*
X80710000Y-110986800D02*
X83801786Y-110986800D01*
X85198213Y-110986800D02*
X85812140Y-110986800D01*
X108632126Y-110986800D02*
X112381668Y-110986800D01*
X118591932Y-110986800D02*
X126865000Y-110986800D01*
X129135000Y-110986800D02*
X129635099Y-110986800D01*
X140744885Y-110986800D02*
X143635099Y-110986800D01*
X154744885Y-110986800D02*
X155761668Y-110986800D01*
X158135000Y-110986800D02*
X159290000Y-110986800D01*
X80710000Y-111190000D02*
X84009808Y-111190000D01*
X85017937Y-111190000D02*
X86015520Y-111190000D01*
X87983473Y-111190000D02*
X90761510Y-111190000D01*
X108496352Y-111190000D02*
X112618356Y-111190000D01*
X118795132Y-111190000D02*
X126865000Y-111190000D01*
X129135000Y-111190000D02*
X129550723Y-111190000D01*
X140828845Y-111190000D02*
X143550723Y-111190000D01*
X154828845Y-111190000D02*
X155865000Y-111190000D01*
X158135000Y-111190000D02*
X159290000Y-111190000D01*
X80710000Y-111393200D02*
X90874901Y-111393200D01*
X108312113Y-111393200D02*
X113009311Y-111393200D01*
X118933373Y-111393200D02*
X126865000Y-111393200D01*
X129135000Y-111393200D02*
X129495268Y-111393200D01*
X140885267Y-111393200D02*
X143495268Y-111393200D01*
X154885267Y-111393200D02*
X155865000Y-111393200D01*
X158135000Y-111393200D02*
X159290000Y-111393200D01*
X80710000Y-111596400D02*
X91077747Y-111596400D01*
X108027161Y-111596400D02*
X113592840Y-111596400D01*
X115647161Y-111596400D02*
X115991268Y-111596400D01*
X119054719Y-111596400D02*
X126865000Y-111596400D01*
X129135000Y-111596400D02*
X129495090Y-111596400D01*
X140885090Y-111596400D02*
X143495090Y-111596400D01*
X154885090Y-111596400D02*
X155865000Y-111596400D01*
X158135000Y-111596400D02*
X159290000Y-111596400D01*
X80710000Y-111799600D02*
X91374493Y-111799600D01*
X92625978Y-111799600D02*
X101764962Y-111799600D01*
X108331271Y-111799600D02*
X113288730Y-111799600D01*
X115951271Y-111799600D02*
X116194468Y-111799600D01*
X119095138Y-111799600D02*
X126865000Y-111799600D01*
X129135000Y-111799600D02*
X129494913Y-111799600D01*
X140884913Y-111799600D02*
X143494913Y-111799600D01*
X154884913Y-111799600D02*
X155865000Y-111799600D01*
X158135000Y-111799600D02*
X159290000Y-111799600D01*
X80710000Y-112002800D02*
X101419200Y-112002800D01*
X108504905Y-112002800D02*
X113115096Y-112002800D01*
X116124905Y-112002800D02*
X116397668Y-112002800D01*
X119135000Y-112002800D02*
X126865000Y-112002800D01*
X129135000Y-112002800D02*
X129494736Y-112002800D01*
X140884735Y-112002800D02*
X143494736Y-112002800D01*
X154884736Y-112002800D02*
X155865000Y-112002800D01*
X158135000Y-112002800D02*
X159290000Y-112002800D01*
X80710000Y-112206000D02*
X101188868Y-112206000D01*
X108640680Y-112206000D02*
X112979321Y-112206000D01*
X116260680Y-112206000D02*
X116600868Y-112206000D01*
X119135000Y-112206000D02*
X126865000Y-112206000D01*
X129135000Y-112206000D02*
X129549502Y-112206000D01*
X140830938Y-112206000D02*
X143549502Y-112206000D01*
X154830938Y-112206000D02*
X155865000Y-112206000D01*
X158135000Y-112206000D02*
X159290000Y-112206000D01*
X80710000Y-112409200D02*
X100985668Y-112409200D01*
X108730301Y-112409200D02*
X112889700Y-112409200D01*
X116350301Y-112409200D02*
X116804068Y-112409200D01*
X119135000Y-112409200D02*
X126865000Y-112409200D01*
X129135000Y-112409200D02*
X129633462Y-112409200D01*
X140746562Y-112409200D02*
X143633462Y-112409200D01*
X154746562Y-112409200D02*
X155865000Y-112409200D01*
X158135000Y-112409200D02*
X159290000Y-112409200D01*
X80710000Y-112612400D02*
X100782468Y-112612400D01*
X108770720Y-112612400D02*
X112849281Y-112612400D01*
X116390720Y-112612400D02*
X116865000Y-112612400D01*
X119135000Y-112612400D02*
X126865000Y-112612400D01*
X129135000Y-112612400D02*
X129717423Y-112612400D01*
X140662185Y-112612400D02*
X143717423Y-112612400D01*
X154662185Y-112612400D02*
X155865000Y-112612400D01*
X158135000Y-112612400D02*
X159290000Y-112612400D01*
X80710000Y-112815600D02*
X100579268Y-112815600D01*
X108811139Y-112815600D02*
X112808862Y-112815600D01*
X116431139Y-112815600D02*
X116865000Y-112815600D01*
X119135000Y-112815600D02*
X126865000Y-112815600D01*
X129135000Y-112815600D02*
X129830185Y-112815600D01*
X140550572Y-112815600D02*
X143830185Y-112815600D01*
X154550572Y-112815600D02*
X155865000Y-112815600D01*
X158135000Y-112815600D02*
X159290000Y-112815600D01*
X80710000Y-113018800D02*
X100376068Y-113018800D01*
X108788382Y-113018800D02*
X112831617Y-113018800D01*
X116408382Y-113018800D02*
X116865000Y-113018800D01*
X119135000Y-113018800D02*
X126865000Y-113018800D01*
X129135000Y-113018800D02*
X130033031Y-113018800D01*
X132727018Y-113018800D02*
X137653030Y-113018800D01*
X140347018Y-113018800D02*
X144033031Y-113018800D01*
X146727018Y-113018800D02*
X151653030Y-113018800D01*
X154347018Y-113018800D02*
X155865000Y-113018800D01*
X158135000Y-113018800D02*
X159290000Y-113018800D01*
X80710000Y-113222000D02*
X100172868Y-113222000D01*
X108747963Y-113222000D02*
X112872036Y-113222000D01*
X116367963Y-113222000D02*
X116865000Y-113222000D01*
X119135000Y-113222000D02*
X126865000Y-113222000D01*
X129135000Y-113222000D02*
X130235876Y-113222000D01*
X132523463Y-113222000D02*
X137855876Y-113222000D01*
X140143463Y-113222000D02*
X144235876Y-113222000D01*
X146523463Y-113222000D02*
X151855876Y-113222000D01*
X154143463Y-113222000D02*
X155865000Y-113222000D01*
X158135000Y-113222000D02*
X159290000Y-113222000D01*
X80710000Y-113425200D02*
X99969668Y-113425200D01*
X108700013Y-113425200D02*
X112919986Y-113425200D01*
X116320013Y-113425200D02*
X116865000Y-113425200D01*
X119135000Y-113425200D02*
X126865000Y-113425200D01*
X129135000Y-113425200D02*
X130619354Y-113425200D01*
X132140840Y-113425200D02*
X138239354Y-113425200D01*
X139760840Y-113425200D02*
X144619354Y-113425200D01*
X146140840Y-113425200D02*
X152239354Y-113425200D01*
X153760840Y-113425200D02*
X155865000Y-113425200D01*
X158135000Y-113425200D02*
X159290000Y-113425200D01*
X80710000Y-113628400D02*
X99766468Y-113628400D01*
X108564239Y-113628400D02*
X113055760Y-113628400D01*
X116184239Y-113628400D02*
X116865000Y-113628400D01*
X119135000Y-113628400D02*
X126865000Y-113628400D01*
X129135000Y-113628400D02*
X155865000Y-113628400D01*
X158135000Y-113628400D02*
X159290000Y-113628400D01*
X80710000Y-113831600D02*
X83929916Y-113831600D01*
X85052263Y-113831600D02*
X85982960Y-113831600D01*
X88016093Y-113831600D02*
X99563268Y-113831600D01*
X108428465Y-113831600D02*
X113191534Y-113831600D01*
X116048465Y-113831600D02*
X116865000Y-113831600D01*
X119135000Y-113831600D02*
X126865000Y-113831600D01*
X129135000Y-113831600D02*
X155865000Y-113831600D01*
X158135000Y-113831600D02*
X159290000Y-113831600D01*
X80710000Y-114034800D02*
X83796572Y-114034800D01*
X85203429Y-114034800D02*
X85796827Y-114034800D01*
X92118227Y-114034800D02*
X99360068Y-114034800D01*
X102570332Y-114034800D02*
X105839940Y-114034800D01*
X108160058Y-114034800D02*
X113459941Y-114034800D01*
X115780058Y-114034800D02*
X116865000Y-114034800D01*
X119135000Y-114034800D02*
X126865000Y-114034800D01*
X129135000Y-114034800D02*
X155865000Y-114034800D01*
X158135000Y-114034800D02*
X159290000Y-114034800D01*
X80710000Y-114238000D02*
X83917605Y-114238000D01*
X85082394Y-114238000D02*
X85725241Y-114238000D01*
X92716057Y-114238000D02*
X99156868Y-114238000D01*
X102367132Y-114238000D02*
X105820785Y-114238000D01*
X108179216Y-114238000D02*
X113440785Y-114238000D01*
X115799216Y-114238000D02*
X116865000Y-114238000D01*
X119135000Y-114238000D02*
X126865000Y-114238000D01*
X129135000Y-114238000D02*
X155865000Y-114238000D01*
X158135000Y-114238000D02*
X159290000Y-114238000D01*
X80710000Y-114441200D02*
X83333875Y-114441200D01*
X83761595Y-114441200D02*
X84120805Y-114441200D01*
X84879194Y-114441200D02*
X85238406Y-114441200D01*
X85673075Y-114441200D02*
X85702560Y-114441200D01*
X102163932Y-114441200D02*
X105562983Y-114441200D01*
X108437018Y-114441200D02*
X113182983Y-114441200D01*
X116057018Y-114441200D02*
X116865000Y-114441200D01*
X119135000Y-114441200D02*
X119739728Y-114441200D01*
X120790450Y-114441200D02*
X121209550Y-114441200D01*
X122260273Y-114441200D02*
X123162033Y-114441200D01*
X123919092Y-114441200D02*
X126865000Y-114441200D01*
X129135000Y-114441200D02*
X155865000Y-114441200D01*
X158135000Y-114441200D02*
X159290000Y-114441200D01*
X80710000Y-114644400D02*
X83263164Y-114644400D01*
X83964795Y-114644400D02*
X84324005Y-114644400D01*
X84675994Y-114644400D02*
X85035206Y-114644400D01*
X101960732Y-114644400D02*
X105427209Y-114644400D01*
X108572792Y-114644400D02*
X113047209Y-114644400D01*
X116192792Y-114644400D02*
X116865000Y-114644400D01*
X119135000Y-114644400D02*
X119509976Y-114644400D01*
X120873000Y-114644400D02*
X121127000Y-114644400D01*
X122490025Y-114644400D02*
X122670253Y-114644400D01*
X124408452Y-114644400D02*
X126865000Y-114644400D01*
X129135000Y-114644400D02*
X155865000Y-114644400D01*
X158135000Y-114644400D02*
X159290000Y-114644400D01*
X80710000Y-114847600D02*
X83204028Y-114847600D01*
X84167995Y-114847600D02*
X84832006Y-114847600D01*
X101757532Y-114847600D02*
X105291434Y-114847600D01*
X108708567Y-114847600D02*
X112911434Y-114847600D01*
X116328567Y-114847600D02*
X116865000Y-114847600D01*
X119135000Y-114847600D02*
X119425808Y-114847600D01*
X120873000Y-114847600D02*
X121127000Y-114847600D01*
X124629185Y-114847600D02*
X126865000Y-114847600D01*
X129135000Y-114847600D02*
X155865000Y-114847600D01*
X158135000Y-114847600D02*
X159290000Y-114847600D01*
X80710000Y-115050800D02*
X83215790Y-115050800D01*
X84269594Y-115050800D02*
X84730405Y-115050800D01*
X101554332Y-115050800D02*
X105249491Y-115050800D01*
X108750510Y-115050800D02*
X112869491Y-115050800D01*
X116370510Y-115050800D02*
X116865000Y-115050800D01*
X119135000Y-115050800D02*
X119415000Y-115050800D01*
X120873000Y-115050800D02*
X121127000Y-115050800D01*
X124832030Y-115050800D02*
X126865000Y-115050800D01*
X129135000Y-115050800D02*
X130628841Y-115050800D01*
X132131013Y-115050800D02*
X138248841Y-115050800D01*
X139751013Y-115050800D02*
X144628841Y-115050800D01*
X146131013Y-115050800D02*
X152248841Y-115050800D01*
X153751013Y-115050800D02*
X155865000Y-115050800D01*
X158135000Y-115050800D02*
X159290000Y-115050800D01*
X80710000Y-115254000D02*
X83227551Y-115254000D01*
X84066394Y-115254000D02*
X84425606Y-115254000D01*
X84574395Y-115254000D02*
X84933605Y-115254000D01*
X101351132Y-115254000D02*
X105209072Y-115254000D01*
X108790929Y-115254000D02*
X112829072Y-115254000D01*
X116410929Y-115254000D02*
X116865000Y-115254000D01*
X119135000Y-115254000D02*
X119415000Y-115254000D01*
X120873000Y-115254000D02*
X121127000Y-115254000D01*
X124946732Y-115254000D02*
X126865000Y-115254000D01*
X129135000Y-115254000D02*
X130240544Y-115254000D01*
X132520131Y-115254000D02*
X137860544Y-115254000D01*
X140140131Y-115254000D02*
X144240544Y-115254000D01*
X146520131Y-115254000D02*
X151860544Y-115254000D01*
X154140131Y-115254000D02*
X155865000Y-115254000D01*
X158135000Y-115254000D02*
X159290000Y-115254000D01*
X80710000Y-115457200D02*
X83284841Y-115457200D01*
X83863194Y-115457200D02*
X84222406Y-115457200D01*
X84777595Y-115457200D02*
X85136805Y-115457200D01*
X85701480Y-115457200D02*
X85702560Y-115457200D01*
X101147932Y-115457200D02*
X105191407Y-115457200D01*
X108808592Y-115457200D02*
X112811407Y-115457200D01*
X116428592Y-115457200D02*
X116865000Y-115457200D01*
X119135000Y-115457200D02*
X119415000Y-115457200D01*
X120873000Y-115457200D02*
X121127000Y-115457200D01*
X125030693Y-115457200D02*
X126865000Y-115457200D01*
X129135000Y-115457200D02*
X130036989Y-115457200D01*
X132722976Y-115457200D02*
X137656989Y-115457200D01*
X140342976Y-115457200D02*
X144036989Y-115457200D01*
X146722976Y-115457200D02*
X151656989Y-115457200D01*
X154342976Y-115457200D02*
X155865000Y-115457200D01*
X158135000Y-115457200D02*
X159290000Y-115457200D01*
X80710000Y-115660400D02*
X83369010Y-115660400D01*
X83659994Y-115660400D02*
X84019206Y-115660400D01*
X84980795Y-115660400D02*
X85340005Y-115660400D01*
X85630769Y-115660400D02*
X85704516Y-115660400D01*
X100944732Y-115660400D02*
X105231826Y-115660400D01*
X108768173Y-115660400D02*
X112851826Y-115660400D01*
X116388173Y-115660400D02*
X116865000Y-115660400D01*
X119135000Y-115660400D02*
X119415000Y-115660400D01*
X120873000Y-115660400D02*
X121127000Y-115660400D01*
X125114654Y-115660400D02*
X126865000Y-115660400D01*
X129135000Y-115660400D02*
X129833435Y-115660400D01*
X132925822Y-115660400D02*
X137453435Y-115660400D01*
X140545822Y-115660400D02*
X143833435Y-115660400D01*
X146925822Y-115660400D02*
X151453435Y-115660400D01*
X154545822Y-115660400D02*
X155865000Y-115660400D01*
X158135000Y-115660400D02*
X159290000Y-115660400D01*
X80710000Y-115863600D02*
X83816006Y-115863600D01*
X85183995Y-115863600D02*
X85742751Y-115863600D01*
X100741532Y-115863600D02*
X105272245Y-115863600D01*
X108727754Y-115863600D02*
X112892245Y-115863600D01*
X116347754Y-115863600D02*
X116865000Y-115863600D01*
X119135000Y-115863600D02*
X119564350Y-115863600D01*
X120873000Y-115863600D02*
X121127000Y-115863600D01*
X125125119Y-115863600D02*
X126865000Y-115863600D01*
X129135000Y-115863600D02*
X129719475Y-115863600D01*
X133040925Y-115863600D02*
X137339475Y-115863600D01*
X140660925Y-115863600D02*
X143719475Y-115863600D01*
X147040925Y-115863600D02*
X151339475Y-115863600D01*
X154660925Y-115863600D02*
X155865000Y-115863600D01*
X158135000Y-115863600D02*
X159290000Y-115863600D01*
X80710000Y-116066800D02*
X83821104Y-116066800D01*
X85178895Y-116066800D02*
X85863619Y-116066800D01*
X100538332Y-116066800D02*
X105367873Y-116066800D01*
X108632126Y-116066800D02*
X112987873Y-116066800D01*
X116252126Y-116066800D02*
X116865000Y-116066800D01*
X119135000Y-116066800D02*
X121147000Y-116066800D01*
X125211932Y-116066800D02*
X126865000Y-116066800D01*
X129135000Y-116066800D02*
X129635099Y-116066800D01*
X133124885Y-116066800D02*
X137255099Y-116066800D01*
X140744885Y-116066800D02*
X143635099Y-116066800D01*
X147124885Y-116066800D02*
X151255099Y-116066800D01*
X154744885Y-116066800D02*
X155865000Y-116066800D01*
X158135000Y-116066800D02*
X159290000Y-116066800D01*
X80710000Y-116270000D02*
X84239701Y-116270000D01*
X84796307Y-116270000D02*
X86214497Y-116270000D01*
X87795830Y-116270000D02*
X90869830Y-116270000D01*
X100321974Y-116270000D02*
X105503647Y-116270000D01*
X108496352Y-116270000D02*
X113123647Y-116270000D01*
X116116352Y-116270000D02*
X116865000Y-116270000D01*
X119135000Y-116270000D02*
X119430750Y-116270000D01*
X120873000Y-116270000D02*
X121127000Y-116270000D01*
X125415132Y-116270000D02*
X126865000Y-116270000D01*
X129135000Y-116270000D02*
X129550723Y-116270000D01*
X133208845Y-116270000D02*
X137170723Y-116270000D01*
X140828845Y-116270000D02*
X143550723Y-116270000D01*
X147208845Y-116270000D02*
X151170723Y-116270000D01*
X154828845Y-116270000D02*
X155865000Y-116270000D01*
X158135000Y-116270000D02*
X159290000Y-116270000D01*
X80710000Y-116473200D02*
X91072675Y-116473200D01*
X100017865Y-116473200D02*
X105687886Y-116473200D01*
X108312113Y-116473200D02*
X113307886Y-116473200D01*
X115932113Y-116473200D02*
X116865000Y-116473200D01*
X119135000Y-116473200D02*
X119415000Y-116473200D01*
X120873000Y-116473200D02*
X121127000Y-116473200D01*
X125618332Y-116473200D02*
X126865000Y-116473200D01*
X129135000Y-116473200D02*
X129495268Y-116473200D01*
X133265267Y-116473200D02*
X137115268Y-116473200D01*
X140885267Y-116473200D02*
X143495268Y-116473200D01*
X147265267Y-116473200D02*
X151115268Y-116473200D01*
X154885267Y-116473200D02*
X155865000Y-116473200D01*
X158135000Y-116473200D02*
X159290000Y-116473200D01*
X80710000Y-116676400D02*
X91362259Y-116676400D01*
X92638272Y-116676400D02*
X105972840Y-116676400D01*
X108027161Y-116676400D02*
X113592840Y-116676400D01*
X115647161Y-116676400D02*
X116865000Y-116676400D01*
X119135000Y-116676400D02*
X119415000Y-116676400D01*
X120873000Y-116676400D02*
X121127000Y-116676400D01*
X125821532Y-116676400D02*
X126865000Y-116676400D01*
X129135000Y-116676400D02*
X129495090Y-116676400D01*
X133265090Y-116676400D02*
X137115090Y-116676400D01*
X140885090Y-116676400D02*
X143495090Y-116676400D01*
X147265090Y-116676400D02*
X151115090Y-116676400D01*
X154885090Y-116676400D02*
X155865000Y-116676400D01*
X158135000Y-116676400D02*
X159290000Y-116676400D01*
X80710000Y-116879600D02*
X105668730Y-116879600D01*
X108331271Y-116879600D02*
X113288730Y-116879600D01*
X115951271Y-116879600D02*
X116865000Y-116879600D01*
X119135000Y-116879600D02*
X119415000Y-116879600D01*
X120873000Y-116879600D02*
X121127000Y-116879600D01*
X126024732Y-116879600D02*
X126865000Y-116879600D01*
X129135000Y-116879600D02*
X129494913Y-116879600D01*
X133264913Y-116879600D02*
X137114913Y-116879600D01*
X140884913Y-116879600D02*
X143494913Y-116879600D01*
X147264913Y-116879600D02*
X151114913Y-116879600D01*
X154884913Y-116879600D02*
X155865000Y-116879600D01*
X158135000Y-116879600D02*
X159290000Y-116879600D01*
X80710000Y-117082800D02*
X105495096Y-117082800D01*
X108504905Y-117082800D02*
X113115096Y-117082800D01*
X116124905Y-117082800D02*
X116865000Y-117082800D01*
X119135000Y-117082800D02*
X119415000Y-117082800D01*
X120873000Y-117082800D02*
X121127000Y-117082800D01*
X126227932Y-117082800D02*
X126865000Y-117082800D01*
X129135000Y-117082800D02*
X129494736Y-117082800D01*
X133264736Y-117082800D02*
X137114736Y-117082800D01*
X140884735Y-117082800D02*
X143494736Y-117082800D01*
X147264736Y-117082800D02*
X151114736Y-117082800D01*
X154884736Y-117082800D02*
X155865000Y-117082800D01*
X158135000Y-117082800D02*
X159290000Y-117082800D01*
X80710000Y-117286000D02*
X105359321Y-117286000D01*
X108640680Y-117286000D02*
X112979321Y-117286000D01*
X116260680Y-117286000D02*
X116865000Y-117286000D01*
X119135000Y-117286000D02*
X119481146Y-117286000D01*
X120873000Y-117286000D02*
X121127000Y-117286000D01*
X122518854Y-117286000D02*
X122584182Y-117286000D01*
X126389102Y-117286000D02*
X126865000Y-117286000D01*
X129135000Y-117286000D02*
X129549502Y-117286000D01*
X133210938Y-117286000D02*
X136991257Y-117286000D01*
X140830938Y-117286000D02*
X143549502Y-117286000D01*
X147210938Y-117286000D02*
X150991257Y-117286000D01*
X154830938Y-117286000D02*
X155865000Y-117286000D01*
X158135000Y-117286000D02*
X159290000Y-117286000D01*
X80710000Y-117489200D02*
X105269700Y-117489200D01*
X108730301Y-117489200D02*
X112889700Y-117489200D01*
X116350301Y-117489200D02*
X116865000Y-117489200D01*
X119135000Y-117489200D02*
X119641174Y-117489200D01*
X120860050Y-117489200D02*
X121139950Y-117489200D01*
X122358825Y-117489200D02*
X122993293Y-117489200D01*
X126524876Y-117489200D02*
X126865000Y-117489200D01*
X129135000Y-117489200D02*
X129633462Y-117489200D01*
X133126562Y-117489200D02*
X136922844Y-117489200D01*
X140746562Y-117489200D02*
X143633462Y-117489200D01*
X147126562Y-117489200D02*
X150922844Y-117489200D01*
X154746562Y-117489200D02*
X155865000Y-117489200D01*
X158135000Y-117489200D02*
X159290000Y-117489200D01*
X80710000Y-117692400D02*
X105229281Y-117692400D01*
X108770720Y-117692400D02*
X112849281Y-117692400D01*
X116390720Y-117692400D02*
X116865000Y-117692400D01*
X119135000Y-117692400D02*
X123627268Y-117692400D01*
X126583294Y-117692400D02*
X126865000Y-117692400D01*
X129135000Y-117692400D02*
X129717423Y-117692400D01*
X133042185Y-117692400D02*
X136882425Y-117692400D01*
X140662185Y-117692400D02*
X143717423Y-117692400D01*
X147042185Y-117692400D02*
X150882425Y-117692400D01*
X154662185Y-117692400D02*
X155865000Y-117692400D01*
X158135000Y-117692400D02*
X159290000Y-117692400D01*
X80710000Y-117895600D02*
X105188862Y-117895600D01*
X108811139Y-117895600D02*
X112808862Y-117895600D01*
X116431139Y-117895600D02*
X116865000Y-117895600D01*
X119135000Y-117895600D02*
X123830468Y-117895600D01*
X126623713Y-117895600D02*
X126865000Y-117895600D01*
X129135000Y-117895600D02*
X129830185Y-117895600D01*
X132930572Y-117895600D02*
X136865000Y-117895600D01*
X140550572Y-117895600D02*
X143830185Y-117895600D01*
X146930572Y-117895600D02*
X150865000Y-117895600D01*
X154550572Y-117895600D02*
X155865000Y-117895600D01*
X158135000Y-117895600D02*
X159290000Y-117895600D01*
X80710000Y-118098800D02*
X105211617Y-118098800D01*
X108788382Y-118098800D02*
X112831617Y-118098800D01*
X116408382Y-118098800D02*
X116865000Y-118098800D01*
X119135000Y-118098800D02*
X124033668Y-118098800D01*
X126636900Y-118098800D02*
X126865000Y-118098800D01*
X129135000Y-118098800D02*
X130033031Y-118098800D01*
X132727018Y-118098800D02*
X136865000Y-118098800D01*
X140347018Y-118098800D02*
X144033031Y-118098800D01*
X146727018Y-118098800D02*
X150865000Y-118098800D01*
X154347018Y-118098800D02*
X155865000Y-118098800D01*
X158135000Y-118098800D02*
X159290000Y-118098800D01*
X80710000Y-118302000D02*
X105252036Y-118302000D01*
X108747963Y-118302000D02*
X112872036Y-118302000D01*
X116367963Y-118302000D02*
X116865000Y-118302000D01*
X119135000Y-118302000D02*
X124236868Y-118302000D01*
X126636900Y-118302000D02*
X126865000Y-118302000D01*
X129135000Y-118302000D02*
X130235876Y-118302000D01*
X132523463Y-118302000D02*
X136865000Y-118302000D01*
X140143463Y-118302000D02*
X144235876Y-118302000D01*
X146907132Y-118302000D02*
X150865000Y-118302000D01*
X154143463Y-118302000D02*
X155865000Y-118302000D01*
X158135000Y-118302000D02*
X159290000Y-118302000D01*
X80710000Y-118505200D02*
X95336209Y-118505200D01*
X96663605Y-118505200D02*
X101836209Y-118505200D01*
X103163605Y-118505200D02*
X105299986Y-118505200D01*
X108700013Y-118505200D02*
X112919986Y-118505200D01*
X116320013Y-118505200D02*
X116865000Y-118505200D01*
X119135000Y-118505200D02*
X124366900Y-118505200D01*
X126636900Y-118505200D02*
X126865000Y-118505200D01*
X129135000Y-118505200D02*
X130245000Y-118505200D01*
X132515000Y-118505200D02*
X136865000Y-118505200D01*
X139760840Y-118505200D02*
X144269903Y-118505200D01*
X147110332Y-118505200D02*
X150865000Y-118505200D01*
X153760840Y-118505200D02*
X155865000Y-118505200D01*
X158135000Y-118505200D02*
X159290000Y-118505200D01*
X80710000Y-118708400D02*
X94979597Y-118708400D01*
X97020878Y-118708400D02*
X101479597Y-118708400D01*
X103520878Y-118708400D02*
X105435760Y-118708400D01*
X108564239Y-118708400D02*
X113055760Y-118708400D01*
X116184239Y-118708400D02*
X116865000Y-118708400D01*
X119135000Y-118708400D02*
X124366900Y-118708400D01*
X126636900Y-118708400D02*
X126865000Y-118708400D01*
X129135000Y-118708400D02*
X130245000Y-118708400D01*
X132515000Y-118708400D02*
X136865000Y-118708400D01*
X139135000Y-118708400D02*
X144310322Y-118708400D01*
X147313532Y-118708400D02*
X150865000Y-118708400D01*
X153135000Y-118708400D02*
X155865000Y-118708400D01*
X158135000Y-118708400D02*
X159290000Y-118708400D01*
X80710000Y-118911600D02*
X94776041Y-118911600D01*
X97223723Y-118911600D02*
X101276041Y-118911600D01*
X103723723Y-118911600D02*
X105571534Y-118911600D01*
X108428465Y-118911600D02*
X113191534Y-118911600D01*
X116048465Y-118911600D02*
X116865000Y-118911600D01*
X119135000Y-118911600D02*
X124366900Y-118911600D01*
X126636900Y-118911600D02*
X126865000Y-118911600D01*
X129135000Y-118911600D02*
X130245000Y-118911600D01*
X132515000Y-118911600D02*
X136865000Y-118911600D01*
X139135000Y-118911600D02*
X144396380Y-118911600D01*
X147516732Y-118911600D02*
X150865000Y-118911600D01*
X153135000Y-118911600D02*
X155865000Y-118911600D01*
X158135000Y-118911600D02*
X159290000Y-118911600D01*
X80710000Y-119114800D02*
X94597215Y-119114800D01*
X97403316Y-119114800D02*
X101097215Y-119114800D01*
X103903316Y-119114800D02*
X105839941Y-119114800D01*
X108160058Y-119114800D02*
X113459941Y-119114800D01*
X115780058Y-119114800D02*
X116865000Y-119114800D01*
X119135000Y-119114800D02*
X124366900Y-119114800D01*
X126636900Y-119114800D02*
X126865000Y-119114800D01*
X129135000Y-119114800D02*
X130245000Y-119114800D01*
X132515000Y-119114800D02*
X136865000Y-119114800D01*
X139135000Y-119114800D02*
X144532154Y-119114800D01*
X147719932Y-119114800D02*
X150865000Y-119114800D01*
X153135000Y-119114800D02*
X155865000Y-119114800D01*
X158135000Y-119114800D02*
X159290000Y-119114800D01*
X80710000Y-119318000D02*
X94512839Y-119318000D01*
X97487277Y-119318000D02*
X101012839Y-119318000D01*
X103987277Y-119318000D02*
X105820785Y-119318000D01*
X108179216Y-119318000D02*
X113440785Y-119318000D01*
X115799216Y-119318000D02*
X116865000Y-119318000D01*
X119135000Y-119318000D02*
X124366900Y-119318000D01*
X126636900Y-119318000D02*
X126865000Y-119318000D01*
X129135000Y-119318000D02*
X130245000Y-119318000D01*
X132515000Y-119318000D02*
X136865000Y-119318000D01*
X139135000Y-119318000D02*
X144712868Y-119318000D01*
X147923132Y-119318000D02*
X150865000Y-119318000D01*
X153135000Y-119318000D02*
X155865000Y-119318000D01*
X158135000Y-119318000D02*
X159290000Y-119318000D01*
X80710000Y-119521200D02*
X94428463Y-119521200D01*
X97571238Y-119521200D02*
X100928463Y-119521200D01*
X104071238Y-119521200D02*
X105562983Y-119521200D01*
X108437018Y-119521200D02*
X113182983Y-119521200D01*
X116057018Y-119521200D02*
X116865000Y-119521200D01*
X119135000Y-119521200D02*
X124366900Y-119521200D01*
X126636900Y-119521200D02*
X126865000Y-119521200D01*
X129135000Y-119521200D02*
X130245000Y-119521200D01*
X132515000Y-119521200D02*
X136865000Y-119521200D01*
X139135000Y-119521200D02*
X144916068Y-119521200D01*
X148126332Y-119521200D02*
X150865000Y-119521200D01*
X153135000Y-119521200D02*
X155865000Y-119521200D01*
X158135000Y-119521200D02*
X159290000Y-119521200D01*
X80710000Y-119724400D02*
X94365240Y-119724400D01*
X97635241Y-119724400D02*
X100865240Y-119724400D01*
X104135241Y-119724400D02*
X105427209Y-119724400D01*
X108572792Y-119724400D02*
X113047209Y-119724400D01*
X116192792Y-119724400D02*
X116865000Y-119724400D01*
X119135000Y-119724400D02*
X124366900Y-119724400D01*
X126636900Y-119724400D02*
X126865000Y-119724400D01*
X129135000Y-119724400D02*
X130245000Y-119724400D01*
X132515000Y-119724400D02*
X136670468Y-119724400D01*
X139135000Y-119724400D02*
X145119268Y-119724400D01*
X148329532Y-119724400D02*
X150865000Y-119724400D01*
X153135000Y-119724400D02*
X155865000Y-119724400D01*
X158135000Y-119724400D02*
X159290000Y-119724400D01*
X80710000Y-119927600D02*
X94365062Y-119927600D01*
X97635064Y-119927600D02*
X100865062Y-119927600D01*
X104135064Y-119927600D02*
X105291434Y-119927600D01*
X108708567Y-119927600D02*
X112911434Y-119927600D01*
X116328567Y-119927600D02*
X116865000Y-119927600D01*
X119135000Y-119927600D02*
X124366900Y-119927600D01*
X126636900Y-119927600D02*
X126865000Y-119927600D01*
X129135000Y-119927600D02*
X130245000Y-119927600D01*
X132515000Y-119927600D02*
X136467268Y-119927600D01*
X139135000Y-119927600D02*
X145322468Y-119927600D01*
X148532732Y-119927600D02*
X150865000Y-119927600D01*
X153135000Y-119927600D02*
X155865000Y-119927600D01*
X158135000Y-119927600D02*
X159290000Y-119927600D01*
X80710000Y-120130800D02*
X94364885Y-120130800D01*
X97634887Y-120130800D02*
X100864885Y-120130800D01*
X104134887Y-120130800D02*
X105249491Y-120130800D01*
X108750510Y-120130800D02*
X112869491Y-120130800D01*
X116370510Y-120130800D02*
X116865000Y-120130800D01*
X119236572Y-120130800D02*
X124366900Y-120130800D01*
X126636900Y-120130800D02*
X126865000Y-120130800D01*
X129135000Y-120130800D02*
X130245000Y-120130800D01*
X132515000Y-120130800D02*
X136264068Y-120130800D01*
X139108982Y-120130800D02*
X145525668Y-120130800D01*
X148735932Y-120130800D02*
X150865000Y-120130800D01*
X153135000Y-120130800D02*
X155865000Y-120130800D01*
X158135000Y-120130800D02*
X159290000Y-120130800D01*
X80710000Y-120334000D02*
X94368932Y-120334000D01*
X97631663Y-120334000D02*
X100868932Y-120334000D01*
X104131663Y-120334000D02*
X105209072Y-120334000D01*
X108790929Y-120334000D02*
X112829072Y-120334000D01*
X116410929Y-120334000D02*
X116865000Y-120334000D01*
X119439772Y-120334000D02*
X124366900Y-120334000D01*
X126636900Y-120334000D02*
X126865000Y-120334000D01*
X129135000Y-120334000D02*
X130245000Y-120334000D01*
X132515000Y-120334000D02*
X136060868Y-120334000D01*
X139068563Y-120334000D02*
X145728868Y-120334000D01*
X148939132Y-120334000D02*
X150865000Y-120334000D01*
X153135000Y-120334000D02*
X155865000Y-120334000D01*
X158135000Y-120334000D02*
X159290000Y-120334000D01*
X80710000Y-120537200D02*
X94452893Y-120537200D01*
X97547287Y-120537200D02*
X100952893Y-120537200D01*
X104142332Y-120537200D02*
X105191407Y-120537200D01*
X108808592Y-120537200D02*
X112811407Y-120537200D01*
X116428592Y-120537200D02*
X116872526Y-120537200D01*
X119642972Y-120537200D02*
X124366900Y-120537200D01*
X126636900Y-120537200D02*
X126865000Y-120537200D01*
X129135000Y-120537200D02*
X130245000Y-120537200D01*
X132515000Y-120537200D02*
X135857668Y-120537200D01*
X138979878Y-120537200D02*
X145932068Y-120537200D01*
X149142332Y-120537200D02*
X150865000Y-120537200D01*
X153135000Y-120537200D02*
X155865000Y-120537200D01*
X158135000Y-120537200D02*
X159290000Y-120537200D01*
X80710000Y-120740400D02*
X94536854Y-120740400D01*
X97462911Y-120740400D02*
X101036854Y-120740400D01*
X104345532Y-120740400D02*
X105231826Y-120740400D01*
X108768173Y-120740400D02*
X112851826Y-120740400D01*
X116388173Y-120740400D02*
X116912945Y-120740400D01*
X119846172Y-120740400D02*
X124366900Y-120740400D01*
X126636900Y-120740400D02*
X126865000Y-120740400D01*
X129135000Y-120740400D02*
X130245000Y-120740400D01*
X132515000Y-120740400D02*
X135654468Y-120740400D01*
X138844104Y-120740400D02*
X146135268Y-120740400D01*
X149345532Y-120740400D02*
X150865000Y-120740400D01*
X153135000Y-120740400D02*
X155865000Y-120740400D01*
X158135000Y-120740400D02*
X159290000Y-120740400D01*
X80710000Y-120943600D02*
X94631730Y-120943600D01*
X97369012Y-120943600D02*
X101131730Y-120943600D01*
X104548732Y-120943600D02*
X105272245Y-120943600D01*
X108727754Y-120943600D02*
X112892245Y-120943600D01*
X116347754Y-120943600D02*
X116958007Y-120943600D01*
X120049372Y-120943600D02*
X124366900Y-120943600D01*
X126636900Y-120943600D02*
X126865000Y-120943600D01*
X129135000Y-120943600D02*
X130245000Y-120943600D01*
X132515000Y-120943600D02*
X135451268Y-120943600D01*
X138661532Y-120943600D02*
X146338468Y-120943600D01*
X149548732Y-120943600D02*
X150865000Y-120943600D01*
X153135000Y-120943600D02*
X155865000Y-120943600D01*
X158135000Y-120943600D02*
X159290000Y-120943600D01*
X80710000Y-121146800D02*
X94834575Y-121146800D01*
X97165457Y-121146800D02*
X101334575Y-121146800D01*
X104751932Y-121146800D02*
X105367873Y-121146800D01*
X108632126Y-121146800D02*
X112987873Y-121146800D01*
X116252126Y-121146800D02*
X117093781Y-121146800D01*
X120252572Y-121146800D02*
X124366900Y-121146800D01*
X126636900Y-121146800D02*
X126865000Y-121146800D01*
X129135000Y-121146800D02*
X130245000Y-121146800D01*
X133061818Y-121146800D02*
X133687040Y-121146800D01*
X138458332Y-121146800D02*
X140858183Y-121146800D01*
X142061818Y-121146800D02*
X142687040Y-121146800D01*
X145315161Y-121146800D02*
X146541668Y-121146800D01*
X150061818Y-121146800D02*
X150687040Y-121146800D01*
X153315161Y-121146800D02*
X155865000Y-121146800D01*
X158135000Y-121146800D02*
X159290000Y-121146800D01*
X80710000Y-121350000D02*
X95037420Y-121350000D01*
X96961901Y-121350000D02*
X101537420Y-121350000D01*
X104955132Y-121350000D02*
X105503647Y-121350000D01*
X108496352Y-121350000D02*
X113123647Y-121350000D01*
X116116352Y-121350000D02*
X117245508Y-121350000D01*
X120455772Y-121350000D02*
X124366900Y-121350000D01*
X126636900Y-121350000D02*
X126865000Y-121350000D01*
X129135000Y-121350000D02*
X130245000Y-121350000D01*
X133382693Y-121350000D02*
X133470605Y-121350000D01*
X138255132Y-121350000D02*
X140537308Y-121350000D01*
X142382693Y-121350000D02*
X142470605Y-121350000D01*
X145529366Y-121350000D02*
X146744868Y-121350000D01*
X150382693Y-121350000D02*
X150470605Y-121350000D01*
X153529366Y-121350000D02*
X155865000Y-121350000D01*
X158135000Y-121350000D02*
X159290000Y-121350000D01*
X80710000Y-121553200D02*
X95477039Y-121553200D01*
X96522452Y-121553200D02*
X101948068Y-121553200D01*
X105158332Y-121553200D02*
X105687886Y-121553200D01*
X108312113Y-121553200D02*
X113307886Y-121553200D01*
X115932113Y-121553200D02*
X117448708Y-121553200D01*
X121278512Y-121553200D02*
X124366900Y-121553200D01*
X126636900Y-121553200D02*
X126865000Y-121553200D01*
X129135000Y-121553200D02*
X130245000Y-121553200D01*
X138051932Y-121553200D02*
X140272323Y-121553200D01*
X145619818Y-121553200D02*
X146948068Y-121553200D01*
X153619818Y-121553200D02*
X155865000Y-121553200D01*
X158135000Y-121553200D02*
X159290000Y-121553200D01*
X80710000Y-121756400D02*
X102151268Y-121756400D01*
X105361532Y-121756400D02*
X105972840Y-121756400D01*
X108027161Y-121756400D02*
X113592840Y-121756400D01*
X115647161Y-121756400D02*
X117651908Y-121756400D01*
X121568713Y-121756400D02*
X124366900Y-121756400D01*
X126636900Y-121756400D02*
X126865000Y-121756400D01*
X129135000Y-121756400D02*
X130245000Y-121756400D01*
X137848732Y-121756400D02*
X140136550Y-121756400D01*
X145647440Y-121756400D02*
X147151268Y-121756400D01*
X153647440Y-121756400D02*
X155865000Y-121756400D01*
X158135000Y-121756400D02*
X159290000Y-121756400D01*
X80710000Y-121959600D02*
X102354468Y-121959600D01*
X108331271Y-121959600D02*
X113288730Y-121959600D01*
X115951271Y-121959600D02*
X117855108Y-121959600D01*
X121771559Y-121959600D02*
X124230579Y-121959600D01*
X126772819Y-121959600D02*
X126865000Y-121959600D01*
X129135000Y-121959600D02*
X130245000Y-121959600D01*
X137645532Y-121959600D02*
X140000776Y-121959600D01*
X145647440Y-121959600D02*
X147354468Y-121959600D01*
X153647440Y-121959600D02*
X155865000Y-121959600D01*
X158135000Y-121959600D02*
X159290000Y-121959600D01*
X80710000Y-122162800D02*
X102557668Y-122162800D01*
X108504905Y-122162800D02*
X113115096Y-122162800D01*
X116124905Y-122162800D02*
X118058308Y-122162800D01*
X121923238Y-122162800D02*
X124079736Y-122162800D01*
X129135000Y-122162800D02*
X130245000Y-122162800D01*
X137442332Y-122162800D02*
X139924316Y-122162800D01*
X145647440Y-122162800D02*
X147557668Y-122162800D01*
X153647440Y-122162800D02*
X155865000Y-122162800D01*
X158135000Y-122162800D02*
X159290000Y-122162800D01*
X80710000Y-122366000D02*
X102760868Y-122366000D01*
X108640680Y-122366000D02*
X112979321Y-122366000D01*
X116260680Y-122366000D02*
X118261508Y-122366000D01*
X122007199Y-122366000D02*
X123995360Y-122366000D01*
X129135000Y-122366000D02*
X130245000Y-122366000D01*
X137239132Y-122366000D02*
X139883897Y-122366000D01*
X145647440Y-122366000D02*
X147760868Y-122366000D01*
X153647440Y-122366000D02*
X155865000Y-122366000D01*
X158135000Y-122366000D02*
X159290000Y-122366000D01*
X80710000Y-122569200D02*
X102964068Y-122569200D01*
X108730301Y-122569200D02*
X112889700Y-122569200D01*
X116350301Y-122569200D02*
X118464708Y-122569200D01*
X122091159Y-122569200D02*
X123910984Y-122569200D01*
X129135000Y-122569200D02*
X130282634Y-122569200D01*
X137035932Y-122569200D02*
X139843478Y-122569200D01*
X145647440Y-122569200D02*
X147843478Y-122569200D01*
X153647440Y-122569200D02*
X155865000Y-122569200D01*
X158135000Y-122569200D02*
X159290000Y-122569200D01*
X80710000Y-122772400D02*
X103167268Y-122772400D01*
X108770720Y-122772400D02*
X112849281Y-122772400D01*
X116390720Y-122772400D02*
X118667908Y-122772400D01*
X122135330Y-122772400D02*
X123867608Y-122772400D01*
X129135000Y-122772400D02*
X130323053Y-122772400D01*
X136832732Y-122772400D02*
X139825000Y-122772400D01*
X145647440Y-122772400D02*
X147825000Y-122772400D01*
X153647440Y-122772400D02*
X155865000Y-122772400D01*
X158135000Y-122772400D02*
X159290000Y-122772400D01*
X80710000Y-122975600D02*
X95379261Y-122975600D01*
X96591602Y-122975600D02*
X101879261Y-122975600D01*
X103091602Y-122975600D02*
X103370468Y-122975600D01*
X108811139Y-122975600D02*
X112808862Y-122975600D01*
X116431139Y-122975600D02*
X118866170Y-122975600D01*
X122135152Y-122975600D02*
X123867431Y-122975600D01*
X129135000Y-122975600D02*
X130439143Y-122975600D01*
X136647440Y-122975600D02*
X139825000Y-122975600D01*
X145647440Y-122975600D02*
X147825000Y-122975600D01*
X153647440Y-122975600D02*
X155865000Y-122975600D01*
X158135000Y-122975600D02*
X159290000Y-122975600D01*
X80710000Y-123178800D02*
X95089434Y-123178800D01*
X96910567Y-123178800D02*
X101589434Y-123178800D01*
X103410567Y-123178800D02*
X103573668Y-123178800D01*
X108788382Y-123178800D02*
X112831617Y-123178800D01*
X116408382Y-123178800D02*
X118865993Y-123178800D01*
X122134975Y-123178800D02*
X123867253Y-123178800D01*
X129135000Y-123178800D02*
X130574917Y-123178800D01*
X136647440Y-123178800D02*
X139676068Y-123178800D01*
X145647440Y-123178800D02*
X147825000Y-123178800D01*
X153647440Y-123178800D02*
X155865000Y-123178800D01*
X158135000Y-123178800D02*
X159290000Y-123178800D01*
X80710000Y-123382000D02*
X95061605Y-123382000D01*
X96938395Y-123382000D02*
X101561605Y-123382000D01*
X103438395Y-123382000D02*
X103776868Y-123382000D01*
X108747963Y-123382000D02*
X112872036Y-123382000D01*
X116367963Y-123382000D02*
X118889957Y-123382000D01*
X122111819Y-123382000D02*
X123891217Y-123382000D01*
X129135000Y-123382000D02*
X130776868Y-123382000D01*
X136647440Y-123382000D02*
X139472868Y-123382000D01*
X145647440Y-123382000D02*
X147833770Y-123382000D01*
X153647440Y-123382000D02*
X155865000Y-123382000D01*
X158135000Y-123382000D02*
X159290000Y-123382000D01*
X80710000Y-123585200D02*
X94690252Y-123585200D01*
X94905595Y-123585200D02*
X95264805Y-123585200D01*
X96735195Y-123585200D02*
X97094405Y-123585200D01*
X97309749Y-123585200D02*
X101190252Y-123585200D01*
X101405595Y-123585200D02*
X101764805Y-123585200D01*
X103235195Y-123585200D02*
X103594405Y-123585200D01*
X103809749Y-123585200D02*
X103980068Y-123585200D01*
X108700013Y-123585200D02*
X112919986Y-123585200D01*
X116320013Y-123585200D02*
X118973918Y-123585200D01*
X122027443Y-123585200D02*
X123975178Y-123585200D01*
X129135000Y-123585200D02*
X130874189Y-123585200D01*
X136647440Y-123585200D02*
X139269668Y-123585200D01*
X145647440Y-123585200D02*
X147874189Y-123585200D01*
X153647440Y-123585200D02*
X155865000Y-123585200D01*
X158135000Y-123585200D02*
X159290000Y-123585200D01*
X80710000Y-123788400D02*
X94520182Y-123788400D01*
X95108795Y-123788400D02*
X95468005Y-123788400D01*
X96531995Y-123788400D02*
X96891205Y-123788400D01*
X97486765Y-123788400D02*
X101020182Y-123788400D01*
X101608795Y-123788400D02*
X101968005Y-123788400D01*
X103031995Y-123788400D02*
X103391205Y-123788400D01*
X103986765Y-123788400D02*
X104183268Y-123788400D01*
X108564239Y-123788400D02*
X113055760Y-123788400D01*
X116184239Y-123788400D02*
X119057878Y-123788400D01*
X121943068Y-123788400D02*
X124059138Y-123788400D01*
X129135000Y-123788400D02*
X130914608Y-123788400D01*
X136647440Y-123788400D02*
X139066468Y-123788400D01*
X145647440Y-123788400D02*
X147914608Y-123788400D01*
X153647440Y-123788400D02*
X155865000Y-123788400D01*
X158135000Y-123788400D02*
X159290000Y-123788400D01*
X80710000Y-123991600D02*
X94444690Y-123991600D01*
X95311995Y-123991600D02*
X95671205Y-123991600D01*
X96328795Y-123991600D02*
X96688005Y-123991600D01*
X97570933Y-123991600D02*
X100944690Y-123991600D01*
X101811995Y-123991600D02*
X102171205Y-123991600D01*
X102828795Y-123991600D02*
X103188005Y-123991600D01*
X104070933Y-123991600D02*
X104470410Y-123991600D01*
X108428465Y-123991600D02*
X113191534Y-123991600D01*
X116048465Y-123991600D02*
X119181006Y-123991600D01*
X121820846Y-123991600D02*
X124182266Y-123991600D01*
X126822106Y-123991600D02*
X126865000Y-123991600D01*
X129135000Y-123991600D02*
X130968168Y-123991600D01*
X136647440Y-123991600D02*
X138863268Y-123991600D01*
X145647440Y-123991600D02*
X147968168Y-123991600D01*
X153647440Y-123991600D02*
X155865000Y-123991600D01*
X158135000Y-123991600D02*
X159290000Y-123991600D01*
X80710000Y-124194800D02*
X94369199Y-124194800D01*
X95515195Y-124194800D02*
X95874405Y-124194800D01*
X96125595Y-124194800D02*
X96484805Y-124194800D01*
X97624827Y-124194800D02*
X100869199Y-124194800D01*
X102015195Y-124194800D02*
X102374405Y-124194800D01*
X102625595Y-124194800D02*
X102984805Y-124194800D01*
X104124826Y-124194800D02*
X105839940Y-124194800D01*
X108160058Y-124194800D02*
X113459941Y-124194800D01*
X115780058Y-124194800D02*
X119383852Y-124194800D01*
X121617291Y-124194800D02*
X124385112Y-124194800D01*
X126618551Y-124194800D02*
X126865000Y-124194800D01*
X129135000Y-124194800D02*
X131103942Y-124194800D01*
X136647440Y-124194800D02*
X138660068Y-124194800D01*
X145647440Y-124194800D02*
X148103942Y-124194800D01*
X153647440Y-124194800D02*
X155865000Y-124194800D01*
X158135000Y-124194800D02*
X159290000Y-124194800D01*
X80710000Y-124398000D02*
X94360106Y-124398000D01*
X95718395Y-124398000D02*
X96281605Y-124398000D01*
X97632346Y-124398000D02*
X100860106Y-124398000D01*
X102218395Y-124398000D02*
X102781605Y-124398000D01*
X104132345Y-124398000D02*
X106328471Y-124398000D01*
X107671528Y-124398000D02*
X113948471Y-124398000D01*
X115291528Y-124398000D02*
X119605245Y-124398000D01*
X121397370Y-124398000D02*
X124606505Y-124398000D01*
X126398630Y-124398000D02*
X126865000Y-124398000D01*
X129135000Y-124398000D02*
X131239715Y-124398000D01*
X136627594Y-124398000D02*
X138456868Y-124398000D01*
X145627594Y-124398000D02*
X148239715Y-124398000D01*
X153627594Y-124398000D02*
X155865000Y-124398000D01*
X158135000Y-124398000D02*
X159290000Y-124398000D01*
X80710000Y-124601200D02*
X94367625Y-124601200D01*
X95719195Y-124601200D02*
X96280805Y-124601200D01*
X97639865Y-124601200D02*
X100867625Y-124601200D01*
X102219195Y-124601200D02*
X102780805Y-124601200D01*
X104139864Y-124601200D02*
X120094605Y-124601200D01*
X120905589Y-124601200D02*
X125095865Y-124601200D01*
X125906849Y-124601200D02*
X126865000Y-124601200D01*
X129135000Y-124601200D02*
X131464273Y-124601200D01*
X136562738Y-124601200D02*
X138253668Y-124601200D01*
X145562738Y-124601200D02*
X148464273Y-124601200D01*
X153562738Y-124601200D02*
X155793668Y-124601200D01*
X158135000Y-124601200D02*
X159290000Y-124601200D01*
X80710000Y-124804400D02*
X94375144Y-124804400D01*
X95515995Y-124804400D02*
X95875205Y-124804400D01*
X96124795Y-124804400D02*
X96484005Y-124804400D01*
X97631099Y-124804400D02*
X100875144Y-124804400D01*
X102015995Y-124804400D02*
X102375205Y-124804400D01*
X102624795Y-124804400D02*
X102984005Y-124804400D01*
X104131099Y-124804400D02*
X126865000Y-124804400D01*
X129135000Y-124804400D02*
X131768384Y-124804400D01*
X133151615Y-124804400D02*
X133613418Y-124804400D01*
X136388797Y-124804400D02*
X138050468Y-124804400D01*
X142151615Y-124804400D02*
X142613418Y-124804400D01*
X145409532Y-124804400D02*
X148768384Y-124804400D01*
X150151615Y-124804400D02*
X150613418Y-124804400D01*
X153388797Y-124804400D02*
X155590468Y-124804400D01*
X158135000Y-124804400D02*
X159290000Y-124804400D01*
X80710000Y-125007600D02*
X94428735Y-125007600D01*
X95312795Y-125007600D02*
X95672005Y-125007600D01*
X96327995Y-125007600D02*
X96687205Y-125007600D01*
X97555607Y-125007600D02*
X100928735Y-125007600D01*
X101812795Y-125007600D02*
X102172005Y-125007600D01*
X102827995Y-125007600D02*
X103187205Y-125007600D01*
X104055607Y-125007600D02*
X126865000Y-125007600D01*
X129135000Y-125007600D02*
X137847268Y-125007600D01*
X141057532Y-125007600D02*
X142866511Y-125007600D01*
X145612732Y-125007600D02*
X155387268Y-125007600D01*
X158133488Y-125007600D02*
X159290000Y-125007600D01*
X80710000Y-125210800D02*
X94512904Y-125210800D01*
X95109595Y-125210800D02*
X95468805Y-125210800D01*
X96531195Y-125210800D02*
X96890405Y-125210800D01*
X97480116Y-125210800D02*
X101012904Y-125210800D01*
X101609595Y-125210800D02*
X101968805Y-125210800D01*
X103031195Y-125210800D02*
X103390405Y-125210800D01*
X103980116Y-125210800D02*
X126865000Y-125210800D01*
X129135000Y-125210800D02*
X137644068Y-125210800D01*
X140854332Y-125210800D02*
X142906930Y-125210800D01*
X145815932Y-125210800D02*
X155184068Y-125210800D01*
X158093069Y-125210800D02*
X159290000Y-125210800D01*
X80710000Y-125414000D02*
X94688087Y-125414000D01*
X94906395Y-125414000D02*
X95265605Y-125414000D01*
X96734395Y-125414000D02*
X97093605Y-125414000D01*
X97311912Y-125414000D02*
X101188087Y-125414000D01*
X101406395Y-125414000D02*
X101765605Y-125414000D01*
X103234395Y-125414000D02*
X103593605Y-125414000D01*
X103811912Y-125414000D02*
X126865000Y-125414000D01*
X129135000Y-125414000D02*
X137440868Y-125414000D01*
X140651132Y-125414000D02*
X142947349Y-125414000D01*
X146019132Y-125414000D02*
X154980868Y-125414000D01*
X158052650Y-125414000D02*
X159290000Y-125414000D01*
X80710000Y-125617200D02*
X95062405Y-125617200D01*
X96937595Y-125617200D02*
X101562405Y-125617200D01*
X103437595Y-125617200D02*
X126865000Y-125617200D01*
X129222332Y-125617200D02*
X137237668Y-125617200D01*
X140447932Y-125617200D02*
X143073576Y-125617200D01*
X146222332Y-125617200D02*
X154777668Y-125617200D01*
X157926423Y-125617200D02*
X159290000Y-125617200D01*
X80710000Y-125820400D02*
X95089138Y-125820400D01*
X96910861Y-125820400D02*
X101589138Y-125820400D01*
X103410861Y-125820400D02*
X126865000Y-125820400D01*
X129425532Y-125820400D02*
X137034468Y-125820400D01*
X140244732Y-125820400D02*
X143215268Y-125820400D01*
X146425532Y-125820400D02*
X154574468Y-125820400D01*
X157784732Y-125820400D02*
X159290000Y-125820400D01*
X80710000Y-126023600D02*
X95406245Y-126023600D01*
X96622671Y-126023600D02*
X101906245Y-126023600D01*
X103122671Y-126023600D02*
X126869694Y-126023600D01*
X129628732Y-126023600D02*
X136831268Y-126023600D01*
X140041532Y-126023600D02*
X143418468Y-126023600D01*
X146628732Y-126023600D02*
X154371268Y-126023600D01*
X157581532Y-126023600D02*
X159290000Y-126023600D01*
X80710000Y-126226800D02*
X126910113Y-126226800D01*
X129831932Y-126226800D02*
X136628068Y-126226800D01*
X139838332Y-126226800D02*
X143621668Y-126226800D01*
X146831932Y-126226800D02*
X154168068Y-126226800D01*
X157378332Y-126226800D02*
X159290000Y-126226800D01*
X80710000Y-126430000D02*
X126950532Y-126430000D01*
X130035132Y-126430000D02*
X136424868Y-126430000D01*
X139635132Y-126430000D02*
X143824868Y-126430000D01*
X147035132Y-126430000D02*
X153964868Y-126430000D01*
X157175132Y-126430000D02*
X159290000Y-126430000D01*
X80710000Y-126633200D02*
X127084267Y-126633200D01*
X130238332Y-126633200D02*
X136221668Y-126633200D01*
X139431932Y-126633200D02*
X144028068Y-126633200D01*
X147238332Y-126633200D02*
X153761668Y-126633200D01*
X156971932Y-126633200D02*
X159290000Y-126633200D01*
X80710000Y-126836400D02*
X127231268Y-126836400D01*
X130441532Y-126836400D02*
X136018468Y-126836400D01*
X139228732Y-126836400D02*
X144231268Y-126836400D01*
X147441532Y-126836400D02*
X153558468Y-126836400D01*
X156768732Y-126836400D02*
X159290000Y-126836400D01*
X80710000Y-127039600D02*
X127434468Y-127039600D01*
X139025532Y-127039600D02*
X144434468Y-127039600D01*
X156565532Y-127039600D02*
X159290000Y-127039600D01*
X80710000Y-127242800D02*
X127637668Y-127242800D01*
X138822332Y-127242800D02*
X144637668Y-127242800D01*
X156362332Y-127242800D02*
X159290000Y-127242800D01*
X80710000Y-127446000D02*
X127840868Y-127446000D01*
X138619132Y-127446000D02*
X144840868Y-127446000D01*
X156159132Y-127446000D02*
X159290000Y-127446000D01*
X80710000Y-127649200D02*
X128044068Y-127649200D01*
X138415932Y-127649200D02*
X145044068Y-127649200D01*
X155955932Y-127649200D02*
X159290000Y-127649200D01*
X80710000Y-127852400D02*
X128247268Y-127852400D01*
X138212732Y-127852400D02*
X145247268Y-127852400D01*
X155752732Y-127852400D02*
X159290000Y-127852400D01*
X80710000Y-128055600D02*
X128450468Y-128055600D01*
X138009532Y-128055600D02*
X145450468Y-128055600D01*
X155549532Y-128055600D02*
X159290000Y-128055600D01*
X80710000Y-128258800D02*
X128653668Y-128258800D01*
X137806332Y-128258800D02*
X145653668Y-128258800D01*
X155346332Y-128258800D02*
X159290000Y-128258800D01*
X80710000Y-128462000D02*
X128856868Y-128462000D01*
X137603132Y-128462000D02*
X145856868Y-128462000D01*
X155143132Y-128462000D02*
X159290000Y-128462000D01*
X80710000Y-128665200D02*
X129060068Y-128665200D01*
X137399932Y-128665200D02*
X146060068Y-128665200D01*
X154939932Y-128665200D02*
X159290000Y-128665200D01*
X80710000Y-128868400D02*
X129295961Y-128868400D01*
X137164038Y-128868400D02*
X146295961Y-128868400D01*
X154704038Y-128868400D02*
X159290000Y-128868400D01*
X80710000Y-129071600D02*
X129681267Y-129071600D01*
X136778732Y-129071600D02*
X146681264Y-129071600D01*
X154318732Y-129071600D02*
X159290000Y-129071600D01*
X80710000Y-129274800D02*
X159290000Y-129274800D01*
X159290000Y-129290000D02*
X80710000Y-129290000D01*
X80710000Y-125652532D01*
X95027073Y-125652532D01*
X95125736Y-125919387D01*
X95735461Y-126145908D01*
X96385460Y-126121856D01*
X96874264Y-125919387D01*
X96972927Y-125652532D01*
X101527073Y-125652532D01*
X101625736Y-125919387D01*
X102235461Y-126145908D01*
X102885460Y-126121856D01*
X103374264Y-125919387D01*
X103472927Y-125652532D01*
X102500000Y-124679605D01*
X101527073Y-125652532D01*
X96972927Y-125652532D01*
X96000000Y-124679605D01*
X95027073Y-125652532D01*
X80710000Y-125652532D01*
X80710000Y-124235461D01*
X94354092Y-124235461D01*
X94378144Y-124885460D01*
X94580613Y-125374264D01*
X94847468Y-125472927D01*
X95820395Y-124500000D01*
X96179605Y-124500000D01*
X97152532Y-125472927D01*
X97419387Y-125374264D01*
X97645908Y-124764539D01*
X97626331Y-124235461D01*
X100854092Y-124235461D01*
X100878144Y-124885460D01*
X101080613Y-125374264D01*
X101347468Y-125472927D01*
X102320395Y-124500000D01*
X102679605Y-124500000D01*
X103652532Y-125472927D01*
X103919387Y-125374264D01*
X104145908Y-124764539D01*
X104121856Y-124114540D01*
X103919387Y-123625736D01*
X103652532Y-123527073D01*
X102679605Y-124500000D01*
X102320395Y-124500000D01*
X101347468Y-123527073D01*
X101080613Y-123625736D01*
X100854092Y-124235461D01*
X97626331Y-124235461D01*
X97621856Y-124114540D01*
X97419387Y-123625736D01*
X97152532Y-123527073D01*
X96179605Y-124500000D01*
X95820395Y-124500000D01*
X94847468Y-123527073D01*
X94580613Y-123625736D01*
X94354092Y-124235461D01*
X80710000Y-124235461D01*
X80710000Y-123347468D01*
X95027073Y-123347468D01*
X96000000Y-124320395D01*
X96972927Y-123347468D01*
X101527073Y-123347468D01*
X102500000Y-124320395D01*
X103472927Y-123347468D01*
X103374264Y-123080613D01*
X102764539Y-122854092D01*
X102114540Y-122878144D01*
X101625736Y-123080613D01*
X101527073Y-123347468D01*
X96972927Y-123347468D01*
X96874264Y-123080613D01*
X96264539Y-122854092D01*
X95614540Y-122878144D01*
X95125736Y-123080613D01*
X95027073Y-123347468D01*
X80710000Y-123347468D01*
X80710000Y-120323795D01*
X94364716Y-120323795D01*
X94613106Y-120924943D01*
X95072637Y-121385278D01*
X95673352Y-121634716D01*
X96323795Y-121635284D01*
X96924943Y-121386894D01*
X97385278Y-120927363D01*
X97634716Y-120326648D01*
X97635284Y-119676205D01*
X97386894Y-119075057D01*
X96927363Y-118614722D01*
X96326648Y-118365284D01*
X95676205Y-118364716D01*
X95075057Y-118613106D01*
X94614722Y-119072637D01*
X94365284Y-119673352D01*
X94364716Y-120323795D01*
X80710000Y-120323795D01*
X80710000Y-115899016D01*
X83780590Y-115899016D01*
X83836271Y-116129611D01*
X84319078Y-116297622D01*
X84829428Y-116268083D01*
X85163729Y-116129611D01*
X85219410Y-115899016D01*
X84500000Y-115179605D01*
X83780590Y-115899016D01*
X80710000Y-115899016D01*
X80710000Y-114819078D01*
X83202378Y-114819078D01*
X83231917Y-115329428D01*
X83370389Y-115663729D01*
X83600984Y-115719410D01*
X84320395Y-115000000D01*
X83600984Y-114280590D01*
X83370389Y-114336271D01*
X83202378Y-114819078D01*
X80710000Y-114819078D01*
X80710000Y-114100984D01*
X83780590Y-114100984D01*
X84500000Y-114820395D01*
X85219410Y-114100984D01*
X85163729Y-113870389D01*
X84680922Y-113702378D01*
X84170572Y-113731917D01*
X83836271Y-113870389D01*
X83780590Y-114100984D01*
X80710000Y-114100984D01*
X80710000Y-110899016D01*
X83780590Y-110899016D01*
X83836271Y-111129611D01*
X84319078Y-111297622D01*
X84829428Y-111268083D01*
X85163729Y-111129611D01*
X85219410Y-110899016D01*
X84500000Y-110179605D01*
X83780590Y-110899016D01*
X80710000Y-110899016D01*
X80710000Y-109819078D01*
X83202378Y-109819078D01*
X83231917Y-110329428D01*
X83370389Y-110663729D01*
X83600984Y-110719410D01*
X84320395Y-110000000D01*
X84679605Y-110000000D01*
X85399016Y-110719410D01*
X85629611Y-110663729D01*
X85702560Y-110454098D01*
X85702560Y-110650000D01*
X85746838Y-110885317D01*
X85885910Y-111101441D01*
X86098110Y-111246431D01*
X86350000Y-111297440D01*
X87650000Y-111297440D01*
X87885317Y-111253162D01*
X88068946Y-111135000D01*
X90738785Y-111135000D01*
X90824686Y-111342897D01*
X91214113Y-111733004D01*
X91723184Y-111944389D01*
X92274398Y-111944870D01*
X92783837Y-111734374D01*
X92824221Y-111694060D01*
X105826681Y-111694060D01*
X105780376Y-111725000D01*
X102140000Y-111725000D01*
X101705654Y-111811397D01*
X101337434Y-112057434D01*
X99088928Y-114305940D01*
X92824763Y-114305940D01*
X92785887Y-114266996D01*
X92276816Y-114055611D01*
X92149206Y-114055500D01*
X91993406Y-113951397D01*
X91559060Y-113865000D01*
X88064975Y-113865000D01*
X87901890Y-113753569D01*
X87650000Y-113702560D01*
X86350000Y-113702560D01*
X86114683Y-113746838D01*
X85898559Y-113885910D01*
X85753569Y-114098110D01*
X85702560Y-114350000D01*
X85702560Y-114512385D01*
X85629611Y-114336271D01*
X85399016Y-114280590D01*
X84679605Y-115000000D01*
X85399016Y-115719410D01*
X85629611Y-115663729D01*
X85702560Y-115454098D01*
X85702560Y-115650000D01*
X85746838Y-115885317D01*
X85885910Y-116101441D01*
X86098110Y-116246431D01*
X86350000Y-116297440D01*
X87650000Y-116297440D01*
X87885317Y-116253162D01*
X88068946Y-116135000D01*
X90787591Y-116135000D01*
X90824686Y-116224777D01*
X91214113Y-116614884D01*
X91723184Y-116826269D01*
X92274398Y-116826750D01*
X92783837Y-116616254D01*
X92824221Y-116575940D01*
X99559060Y-116575940D01*
X99993406Y-116489543D01*
X100361626Y-116243506D01*
X102610132Y-113995000D01*
X105780376Y-113995000D01*
X105982418Y-114130000D01*
X105600332Y-114385302D01*
X105289263Y-114850849D01*
X105180030Y-115400000D01*
X105289263Y-115949151D01*
X105600332Y-116414698D01*
X105982418Y-116670000D01*
X105600332Y-116925302D01*
X105289263Y-117390849D01*
X105180030Y-117940000D01*
X105289263Y-118489151D01*
X105600332Y-118954698D01*
X105982418Y-119210000D01*
X105600332Y-119465302D01*
X105289263Y-119930849D01*
X105180030Y-120480000D01*
X105289263Y-121029151D01*
X105600332Y-121494698D01*
X105982418Y-121750000D01*
X105780376Y-121885000D01*
X105490132Y-121885000D01*
X104075174Y-120470042D01*
X104134716Y-120326648D01*
X104135284Y-119676205D01*
X103886894Y-119075057D01*
X103427363Y-118614722D01*
X102826648Y-118365284D01*
X102176205Y-118364716D01*
X101575057Y-118613106D01*
X101114722Y-119072637D01*
X100865284Y-119673352D01*
X100864716Y-120323795D01*
X101113106Y-120924943D01*
X101572637Y-121385278D01*
X101927496Y-121532628D01*
X104217434Y-123822566D01*
X104585654Y-124068603D01*
X105020000Y-124155000D01*
X105780376Y-124155000D01*
X106065879Y-124345767D01*
X106615030Y-124455000D01*
X107384970Y-124455000D01*
X107934121Y-124345767D01*
X108399668Y-124034698D01*
X108710737Y-123569151D01*
X108819970Y-123020000D01*
X108710737Y-122470849D01*
X108399668Y-122005302D01*
X108017582Y-121750000D01*
X108399668Y-121494698D01*
X108710737Y-121029151D01*
X108819970Y-120480000D01*
X108710737Y-119930849D01*
X108399668Y-119465302D01*
X108017582Y-119210000D01*
X108399668Y-118954698D01*
X108710737Y-118489151D01*
X108819970Y-117940000D01*
X108710737Y-117390849D01*
X108399668Y-116925302D01*
X108017582Y-116670000D01*
X108399668Y-116414698D01*
X108710737Y-115949151D01*
X108819970Y-115400000D01*
X108710737Y-114850849D01*
X108399668Y-114385302D01*
X108017582Y-114130000D01*
X108399668Y-113874698D01*
X108710737Y-113409151D01*
X108819970Y-112860000D01*
X108710737Y-112310849D01*
X108399668Y-111845302D01*
X108017582Y-111590000D01*
X108399668Y-111334698D01*
X108710737Y-110869151D01*
X108819970Y-110320000D01*
X108710737Y-109770849D01*
X108399668Y-109305302D01*
X108021849Y-109052851D01*
X108454500Y-108704896D01*
X108724367Y-108211819D01*
X108741904Y-108129039D01*
X108619915Y-107907000D01*
X107127000Y-107907000D01*
X107127000Y-107927000D01*
X106873000Y-107927000D01*
X106873000Y-107907000D01*
X105380085Y-107907000D01*
X105258096Y-108129039D01*
X105275633Y-108211819D01*
X105545500Y-108704896D01*
X105978151Y-109052851D01*
X105600332Y-109305302D01*
X105520980Y-109424060D01*
X92824763Y-109424060D01*
X92785887Y-109385116D01*
X92276816Y-109173731D01*
X92207942Y-109173671D01*
X92207312Y-109173250D01*
X91875286Y-108951397D01*
X91440940Y-108865000D01*
X88064975Y-108865000D01*
X87901890Y-108753569D01*
X87650000Y-108702560D01*
X86350000Y-108702560D01*
X86114683Y-108746838D01*
X85898559Y-108885910D01*
X85753569Y-109098110D01*
X85702560Y-109350000D01*
X85702560Y-109512385D01*
X85629611Y-109336271D01*
X85399016Y-109280590D01*
X84679605Y-110000000D01*
X84320395Y-110000000D01*
X83600984Y-109280590D01*
X83370389Y-109336271D01*
X83202378Y-109819078D01*
X80710000Y-109819078D01*
X80710000Y-109100984D01*
X83780590Y-109100984D01*
X84500000Y-109820395D01*
X85219410Y-109100984D01*
X85163729Y-108870389D01*
X84680922Y-108702378D01*
X84170572Y-108731917D01*
X83836271Y-108870389D01*
X83780590Y-109100984D01*
X80710000Y-109100984D01*
X80710000Y-102000000D01*
X85052560Y-102000000D01*
X85052560Y-104000000D01*
X85096838Y-104235317D01*
X85235910Y-104451441D01*
X85448110Y-104596431D01*
X85700000Y-104647440D01*
X88300000Y-104647440D01*
X88535317Y-104603162D01*
X88751441Y-104464090D01*
X88896431Y-104251890D01*
X88920102Y-104135000D01*
X94012735Y-104135000D01*
X94088381Y-104515299D01*
X94410208Y-104996948D01*
X94891857Y-105318775D01*
X95460000Y-105431786D01*
X96028143Y-105318775D01*
X96509792Y-104996948D01*
X96735516Y-104659127D01*
X97040011Y-105040024D01*
X97549190Y-105320649D01*
X97643168Y-105341540D01*
X97873000Y-105220214D01*
X97873000Y-103127000D01*
X97853000Y-103127000D01*
X97853000Y-102873000D01*
X97873000Y-102873000D01*
X97873000Y-100779786D01*
X97643168Y-100658460D01*
X97549190Y-100679351D01*
X97040011Y-100959976D01*
X96735516Y-101340873D01*
X96509792Y-101003052D01*
X96028143Y-100681225D01*
X95460000Y-100568214D01*
X94891857Y-100681225D01*
X94528887Y-100923754D01*
X88647440Y-95042308D01*
X88647440Y-94000000D01*
X90352560Y-94000000D01*
X90352560Y-96000000D01*
X90396838Y-96235317D01*
X90535910Y-96451441D01*
X90748110Y-96596431D01*
X91000000Y-96647440D01*
X93000000Y-96647440D01*
X93235317Y-96603162D01*
X93451441Y-96464090D01*
X93596431Y-96251890D01*
X93604906Y-96210038D01*
X98158189Y-100763321D01*
X98127000Y-100779786D01*
X98127000Y-102873000D01*
X98147000Y-102873000D01*
X98147000Y-103127000D01*
X98127000Y-103127000D01*
X98127000Y-105220214D01*
X98356832Y-105341540D01*
X98450810Y-105320649D01*
X98959989Y-105040024D01*
X99264484Y-104659127D01*
X99490208Y-104996948D01*
X99971857Y-105318775D01*
X100540000Y-105431786D01*
X101108143Y-105318775D01*
X101471114Y-105076246D01*
X102437434Y-106042566D01*
X102805654Y-106288603D01*
X103240000Y-106375000D01*
X105780376Y-106375000D01*
X105978151Y-106507149D01*
X105545500Y-106855104D01*
X105275633Y-107348181D01*
X105258096Y-107430961D01*
X105380085Y-107653000D01*
X106873000Y-107653000D01*
X106873000Y-107633000D01*
X107127000Y-107633000D01*
X107127000Y-107653000D01*
X108619915Y-107653000D01*
X108741904Y-107430961D01*
X108724367Y-107348181D01*
X108701780Y-107306912D01*
X112517434Y-111122566D01*
X112885654Y-111368603D01*
X113320000Y-111455000D01*
X113400376Y-111455000D01*
X113602418Y-111590000D01*
X113220332Y-111845302D01*
X112909263Y-112310849D01*
X112800030Y-112860000D01*
X112909263Y-113409151D01*
X113220332Y-113874698D01*
X113602418Y-114130000D01*
X113220332Y-114385302D01*
X112909263Y-114850849D01*
X112800030Y-115400000D01*
X112909263Y-115949151D01*
X113220332Y-116414698D01*
X113602418Y-116670000D01*
X113220332Y-116925302D01*
X112909263Y-117390849D01*
X112800030Y-117940000D01*
X112909263Y-118489151D01*
X113220332Y-118954698D01*
X113602418Y-119210000D01*
X113220332Y-119465302D01*
X112909263Y-119930849D01*
X112800030Y-120480000D01*
X112909263Y-121029151D01*
X113220332Y-121494698D01*
X113602418Y-121750000D01*
X113220332Y-122005302D01*
X112909263Y-122470849D01*
X112800030Y-123020000D01*
X112909263Y-123569151D01*
X113220332Y-124034698D01*
X113685879Y-124345767D01*
X114235030Y-124455000D01*
X115004970Y-124455000D01*
X115554121Y-124345767D01*
X116019668Y-124034698D01*
X116330737Y-123569151D01*
X116439970Y-123020000D01*
X116330737Y-122470849D01*
X116019668Y-122005302D01*
X115637582Y-121750000D01*
X116019668Y-121494698D01*
X116330737Y-121029151D01*
X116439970Y-120480000D01*
X116330737Y-119930849D01*
X116019668Y-119465302D01*
X115637582Y-119210000D01*
X116019668Y-118954698D01*
X116330737Y-118489151D01*
X116439970Y-117940000D01*
X116330737Y-117390849D01*
X116019668Y-116925302D01*
X115637582Y-116670000D01*
X116019668Y-116414698D01*
X116330737Y-115949151D01*
X116439970Y-115400000D01*
X116330737Y-114850849D01*
X116019668Y-114385302D01*
X115637582Y-114130000D01*
X116019668Y-113874698D01*
X116330737Y-113409151D01*
X116439970Y-112860000D01*
X116330737Y-112310849D01*
X116019668Y-111845302D01*
X115637582Y-111590000D01*
X115839624Y-111455000D01*
X115849868Y-111455000D01*
X116865000Y-112470132D01*
X116865000Y-120499360D01*
X116951397Y-120933706D01*
X117159397Y-121245000D01*
X117197434Y-121301926D01*
X118866174Y-122970666D01*
X118865866Y-123323694D01*
X119114178Y-123924655D01*
X119573567Y-124384846D01*
X120174093Y-124634206D01*
X120824334Y-124634774D01*
X121425295Y-124386462D01*
X121885486Y-123927073D01*
X122134846Y-123326547D01*
X122135414Y-122676306D01*
X121887102Y-122075345D01*
X121427713Y-121615154D01*
X120827187Y-121365794D01*
X120471255Y-121365483D01*
X119135000Y-120029228D01*
X119135000Y-116285750D01*
X119415000Y-116285750D01*
X119415000Y-117126309D01*
X119511673Y-117359698D01*
X119690301Y-117538327D01*
X119923690Y-117635000D01*
X120714250Y-117635000D01*
X120873000Y-117476250D01*
X120873000Y-116127000D01*
X119573750Y-116127000D01*
X119415000Y-116285750D01*
X119135000Y-116285750D01*
X119135000Y-114873691D01*
X119415000Y-114873691D01*
X119415000Y-115714250D01*
X119573750Y-115873000D01*
X120873000Y-115873000D01*
X120873000Y-114523750D01*
X121127000Y-114523750D01*
X121127000Y-115873000D01*
X121147000Y-115873000D01*
X121147000Y-116127000D01*
X121127000Y-116127000D01*
X121127000Y-117476250D01*
X121285750Y-117635000D01*
X122076310Y-117635000D01*
X122309699Y-117538327D01*
X122488327Y-117359698D01*
X122538012Y-117239749D01*
X122640997Y-117342914D01*
X123223341Y-117584724D01*
X123519851Y-117584983D01*
X124366900Y-118432032D01*
X124366900Y-121823516D01*
X124117054Y-122072927D01*
X123867694Y-122673453D01*
X123867126Y-123323694D01*
X124115438Y-123924655D01*
X124574827Y-124384846D01*
X125175353Y-124634206D01*
X125825594Y-124634774D01*
X126426555Y-124386462D01*
X126865000Y-123948781D01*
X126865000Y-126000000D01*
X126951397Y-126434346D01*
X127197434Y-126802566D01*
X129197434Y-128802566D01*
X129565654Y-129048603D01*
X130000000Y-129135000D01*
X136460000Y-129135000D01*
X136894346Y-129048603D01*
X137262566Y-128802566D01*
X141153241Y-124911891D01*
X141460000Y-124972909D01*
X142085687Y-124848452D01*
X142444192Y-124608907D01*
X142535910Y-124751441D01*
X142748110Y-124896431D01*
X142865000Y-124920102D01*
X142865000Y-125000000D01*
X142951397Y-125434346D01*
X143197434Y-125802566D01*
X146197434Y-128802566D01*
X146565655Y-129048604D01*
X147000000Y-129135000D01*
X154000000Y-129135000D01*
X154434346Y-129048603D01*
X154802566Y-128802566D01*
X157802566Y-125802566D01*
X158048604Y-125434345D01*
X158135000Y-125000000D01*
X158135000Y-110620000D01*
X158048603Y-110185654D01*
X157802566Y-109817434D01*
X154884757Y-106899625D01*
X154885326Y-106246695D01*
X154598957Y-105553628D01*
X154069161Y-105022907D01*
X153376595Y-104735328D01*
X152626695Y-104734674D01*
X151933628Y-105021043D01*
X151402907Y-105550839D01*
X151115328Y-106243405D01*
X151114674Y-106993305D01*
X151401043Y-107686372D01*
X151930839Y-108217093D01*
X152623405Y-108504672D01*
X153280113Y-108505245D01*
X155865000Y-111090132D01*
X155865000Y-124529868D01*
X153529868Y-126865000D01*
X147470132Y-126865000D01*
X145401414Y-124796282D01*
X145451441Y-124764090D01*
X145596431Y-124551890D01*
X145647440Y-124300000D01*
X145647440Y-121700000D01*
X145603162Y-121464683D01*
X145464090Y-121248559D01*
X145251890Y-121103569D01*
X145000000Y-121052560D01*
X143000000Y-121052560D01*
X142764683Y-121096838D01*
X142548559Y-121235910D01*
X142443049Y-121390329D01*
X142085687Y-121151548D01*
X141460000Y-121027091D01*
X140834313Y-121151548D01*
X140303880Y-121505971D01*
X139949457Y-122036404D01*
X139825000Y-122662091D01*
X139825000Y-123029868D01*
X135989868Y-126865000D01*
X130470132Y-126865000D01*
X129135000Y-125529868D01*
X129135000Y-117153305D01*
X129494674Y-117153305D01*
X129781043Y-117846372D01*
X130245000Y-118311139D01*
X130245000Y-122380000D01*
X130331397Y-122814346D01*
X130468811Y-123020000D01*
X130577434Y-123182566D01*
X130847899Y-123453031D01*
X130949457Y-123963596D01*
X131303880Y-124494029D01*
X131834313Y-124848452D01*
X132460000Y-124972909D01*
X133085687Y-124848452D01*
X133444192Y-124608907D01*
X133535910Y-124751441D01*
X133748110Y-124896431D01*
X134000000Y-124947440D01*
X136000000Y-124947440D01*
X136235317Y-124903162D01*
X136451441Y-124764090D01*
X136596431Y-124551890D01*
X136647440Y-124300000D01*
X136647440Y-122957692D01*
X138802566Y-120802566D01*
X139048604Y-120434345D01*
X139135000Y-120000000D01*
X139135000Y-118665118D01*
X139373305Y-118665326D01*
X140066372Y-118378957D01*
X140597093Y-117849161D01*
X140884672Y-117156595D01*
X140884674Y-117153305D01*
X143494674Y-117153305D01*
X143781043Y-117846372D01*
X144245000Y-118311139D01*
X144245000Y-118380000D01*
X144331397Y-118814346D01*
X144577434Y-119182566D01*
X147863485Y-122468617D01*
X147825000Y-122662091D01*
X147825000Y-123337909D01*
X147949457Y-123963596D01*
X148303880Y-124494029D01*
X148834313Y-124848452D01*
X149460000Y-124972909D01*
X150085687Y-124848452D01*
X150444192Y-124608907D01*
X150535910Y-124751441D01*
X150748110Y-124896431D01*
X151000000Y-124947440D01*
X153000000Y-124947440D01*
X153235317Y-124903162D01*
X153451441Y-124764090D01*
X153596431Y-124551890D01*
X153647440Y-124300000D01*
X153647440Y-121700000D01*
X153603162Y-121464683D01*
X153464090Y-121248559D01*
X153251890Y-121103569D01*
X153135000Y-121079898D01*
X153135000Y-118665118D01*
X153373305Y-118665326D01*
X154066372Y-118378957D01*
X154597093Y-117849161D01*
X154884672Y-117156595D01*
X154885326Y-116406695D01*
X154598957Y-115713628D01*
X154069161Y-115182907D01*
X153376595Y-114895328D01*
X152626695Y-114894674D01*
X151933628Y-115181043D01*
X151402907Y-115710839D01*
X151115328Y-116403405D01*
X151114719Y-117101225D01*
X150951397Y-117345654D01*
X150865000Y-117780000D01*
X150865000Y-121077962D01*
X150764683Y-121096838D01*
X150548559Y-121235910D01*
X150443049Y-121390329D01*
X150085687Y-121151548D01*
X149674987Y-121069855D01*
X146715465Y-118110333D01*
X146977093Y-117849161D01*
X147264672Y-117156595D01*
X147265326Y-116406695D01*
X146978957Y-115713628D01*
X146449161Y-115182907D01*
X145756595Y-114895328D01*
X145006695Y-114894674D01*
X144313628Y-115181043D01*
X143782907Y-115710839D01*
X143495328Y-116403405D01*
X143494674Y-117153305D01*
X140884674Y-117153305D01*
X140885326Y-116406695D01*
X140598957Y-115713628D01*
X140069161Y-115182907D01*
X139376595Y-114895328D01*
X138626695Y-114894674D01*
X137933628Y-115181043D01*
X137402907Y-115710839D01*
X137115328Y-116403405D01*
X137114719Y-117101225D01*
X136951397Y-117345654D01*
X136865000Y-117780000D01*
X136865000Y-119529868D01*
X135342308Y-121052560D01*
X134000000Y-121052560D01*
X133764683Y-121096838D01*
X133548559Y-121235910D01*
X133443049Y-121390329D01*
X133085687Y-121151548D01*
X132515000Y-121038031D01*
X132515000Y-118310449D01*
X132977093Y-117849161D01*
X133264672Y-117156595D01*
X133265326Y-116406695D01*
X132978957Y-115713628D01*
X132449161Y-115182907D01*
X131756595Y-114895328D01*
X131006695Y-114894674D01*
X130313628Y-115181043D01*
X129782907Y-115710839D01*
X129495328Y-116403405D01*
X129494674Y-117153305D01*
X129135000Y-117153305D01*
X129135000Y-112073305D01*
X129494674Y-112073305D01*
X129781043Y-112766372D01*
X130310839Y-113297093D01*
X131003405Y-113584672D01*
X131753305Y-113585326D01*
X132446372Y-113298957D01*
X132911139Y-112835000D01*
X137469551Y-112835000D01*
X137930839Y-113297093D01*
X138623405Y-113584672D01*
X139373305Y-113585326D01*
X140066372Y-113298957D01*
X140597093Y-112769161D01*
X140884672Y-112076595D01*
X140884674Y-112073305D01*
X143494674Y-112073305D01*
X143781043Y-112766372D01*
X144310839Y-113297093D01*
X145003405Y-113584672D01*
X145753305Y-113585326D01*
X146446372Y-113298957D01*
X146911139Y-112835000D01*
X151469551Y-112835000D01*
X151930839Y-113297093D01*
X152623405Y-113584672D01*
X153373305Y-113585326D01*
X154066372Y-113298957D01*
X154597093Y-112769161D01*
X154884672Y-112076595D01*
X154885326Y-111326695D01*
X154598957Y-110633628D01*
X154069161Y-110102907D01*
X153376595Y-109815328D01*
X152626695Y-109814674D01*
X151933628Y-110101043D01*
X151468861Y-110565000D01*
X146910449Y-110565000D01*
X146449161Y-110102907D01*
X145756595Y-109815328D01*
X145006695Y-109814674D01*
X144313628Y-110101043D01*
X143782907Y-110630839D01*
X143495328Y-111323405D01*
X143494674Y-112073305D01*
X140884674Y-112073305D01*
X140885326Y-111326695D01*
X140598957Y-110633628D01*
X140069161Y-110102907D01*
X139376595Y-109815328D01*
X138626695Y-109814674D01*
X137933628Y-110101043D01*
X137468861Y-110565000D01*
X132910449Y-110565000D01*
X132449161Y-110102907D01*
X131756595Y-109815328D01*
X131006695Y-109814674D01*
X130313628Y-110101043D01*
X129782907Y-110630839D01*
X129495328Y-111323405D01*
X129494674Y-112073305D01*
X129135000Y-112073305D01*
X129135000Y-109470132D01*
X130365388Y-108239744D01*
X131003405Y-108504672D01*
X131753305Y-108505326D01*
X132446372Y-108218957D01*
X132977093Y-107689161D01*
X133264672Y-106996595D01*
X133264674Y-106993305D01*
X137114674Y-106993305D01*
X137401043Y-107686372D01*
X137930839Y-108217093D01*
X138623405Y-108504672D01*
X139373305Y-108505326D01*
X140066372Y-108218957D01*
X140531139Y-107755000D01*
X143849551Y-107755000D01*
X144310839Y-108217093D01*
X145003405Y-108504672D01*
X145753305Y-108505326D01*
X146446372Y-108218957D01*
X146977093Y-107689161D01*
X147264672Y-106996595D01*
X147265326Y-106246695D01*
X146978957Y-105553628D01*
X146449161Y-105022907D01*
X145756595Y-104735328D01*
X145006695Y-104734674D01*
X144313628Y-105021043D01*
X143848861Y-105485000D01*
X140530449Y-105485000D01*
X140069161Y-105022907D01*
X139376595Y-104735328D01*
X138626695Y-104734674D01*
X137933628Y-105021043D01*
X137402907Y-105550839D01*
X137115328Y-106243405D01*
X137114674Y-106993305D01*
X133264674Y-106993305D01*
X133265326Y-106246695D01*
X132978957Y-105553628D01*
X132449161Y-105022907D01*
X131756595Y-104735328D01*
X131006695Y-104734674D01*
X130313628Y-105021043D01*
X129782907Y-105550839D01*
X129708599Y-105729792D01*
X129577434Y-105817434D01*
X127197434Y-108197434D01*
X126951397Y-108565654D01*
X126865000Y-109000000D01*
X126865000Y-122051942D01*
X126636900Y-121823444D01*
X126636900Y-117961900D01*
X126600718Y-117780000D01*
X126550504Y-117527555D01*
X126304466Y-117159334D01*
X125125018Y-115979886D01*
X125125275Y-115686107D01*
X124884481Y-115103343D01*
X124439003Y-114657086D01*
X123856659Y-114415276D01*
X123226107Y-114414725D01*
X122643343Y-114655519D01*
X122538133Y-114760545D01*
X122488327Y-114640302D01*
X122309699Y-114461673D01*
X122076310Y-114365000D01*
X121285750Y-114365000D01*
X121127000Y-114523750D01*
X120873000Y-114523750D01*
X120714250Y-114365000D01*
X119923690Y-114365000D01*
X119690301Y-114461673D01*
X119511673Y-114640302D01*
X119415000Y-114873691D01*
X119135000Y-114873691D01*
X119135000Y-112000000D01*
X119048603Y-111565654D01*
X118802566Y-111197434D01*
X117122566Y-109517434D01*
X117074025Y-109485000D01*
X116832766Y-109323795D01*
X118364716Y-109323795D01*
X118613106Y-109924943D01*
X119072637Y-110385278D01*
X119673352Y-110634716D01*
X120323795Y-110635284D01*
X120924943Y-110386894D01*
X121159715Y-110152532D01*
X123527073Y-110152532D01*
X123625736Y-110419387D01*
X124235461Y-110645908D01*
X124885460Y-110621856D01*
X125374264Y-110419387D01*
X125472927Y-110152532D01*
X124500000Y-109179605D01*
X123527073Y-110152532D01*
X121159715Y-110152532D01*
X121385278Y-109927363D01*
X121634716Y-109326648D01*
X121635232Y-108735461D01*
X122854092Y-108735461D01*
X122878144Y-109385460D01*
X123080613Y-109874264D01*
X123347468Y-109972927D01*
X124320395Y-109000000D01*
X124679605Y-109000000D01*
X125652532Y-109972927D01*
X125919387Y-109874264D01*
X126145908Y-109264539D01*
X126121856Y-108614540D01*
X125919387Y-108125736D01*
X125652532Y-108027073D01*
X124679605Y-109000000D01*
X124320395Y-109000000D01*
X123347468Y-108027073D01*
X123080613Y-108125736D01*
X122854092Y-108735461D01*
X121635232Y-108735461D01*
X121635284Y-108676205D01*
X121386894Y-108075057D01*
X121159703Y-107847468D01*
X123527073Y-107847468D01*
X124500000Y-108820395D01*
X125472927Y-107847468D01*
X125374264Y-107580613D01*
X124764539Y-107354092D01*
X124114540Y-107378144D01*
X123625736Y-107580613D01*
X123527073Y-107847468D01*
X121159703Y-107847468D01*
X120927363Y-107614722D01*
X120326648Y-107365284D01*
X119676205Y-107364716D01*
X119075057Y-107613106D01*
X118614722Y-108072637D01*
X118365284Y-108673352D01*
X118364716Y-109323795D01*
X116832766Y-109323795D01*
X116754346Y-109271397D01*
X116320000Y-109185000D01*
X115839624Y-109185000D01*
X115637582Y-109050000D01*
X116019668Y-108794698D01*
X116330737Y-108329151D01*
X116439970Y-107780000D01*
X116330737Y-107230849D01*
X116019668Y-106765302D01*
X115641849Y-106512851D01*
X116074500Y-106164896D01*
X116344367Y-105671819D01*
X116361904Y-105589039D01*
X116239915Y-105367000D01*
X114747000Y-105367000D01*
X114747000Y-105387000D01*
X114493000Y-105387000D01*
X114493000Y-105367000D01*
X113000085Y-105367000D01*
X112878096Y-105589039D01*
X112895633Y-105671819D01*
X113165500Y-106164896D01*
X113598151Y-106512851D01*
X113220332Y-106765302D01*
X112909263Y-107230849D01*
X112800030Y-107780000D01*
X112903050Y-108297918D01*
X109042566Y-104437434D01*
X108859486Y-104315104D01*
X108674346Y-104191397D01*
X108240000Y-104105000D01*
X108219624Y-104105000D01*
X108017582Y-103970000D01*
X108399668Y-103714698D01*
X108710737Y-103249151D01*
X108819970Y-102700000D01*
X108710737Y-102150849D01*
X108399668Y-101685302D01*
X108017582Y-101430000D01*
X108399668Y-101174698D01*
X108710737Y-100709151D01*
X108819970Y-100160000D01*
X108710737Y-99610849D01*
X108399668Y-99145302D01*
X108017582Y-98890000D01*
X108399668Y-98634698D01*
X108710737Y-98169151D01*
X108819970Y-97620000D01*
X108710737Y-97070849D01*
X108399668Y-96605302D01*
X108017582Y-96350000D01*
X108399668Y-96094698D01*
X108710737Y-95629151D01*
X108819970Y-95080000D01*
X108710737Y-94530849D01*
X108399668Y-94065302D01*
X108017582Y-93810000D01*
X108399668Y-93554698D01*
X108710737Y-93089151D01*
X108819970Y-92540000D01*
X108710737Y-91990849D01*
X108399668Y-91525302D01*
X108017582Y-91270000D01*
X108399668Y-91014698D01*
X108710737Y-90549151D01*
X108819970Y-90000000D01*
X112800030Y-90000000D01*
X112909263Y-90549151D01*
X113220332Y-91014698D01*
X113602418Y-91270000D01*
X113220332Y-91525302D01*
X112909263Y-91990849D01*
X112800030Y-92540000D01*
X112909263Y-93089151D01*
X113220332Y-93554698D01*
X113602418Y-93810000D01*
X113220332Y-94065302D01*
X112909263Y-94530849D01*
X112800030Y-95080000D01*
X112909263Y-95629151D01*
X113220332Y-96094698D01*
X113602418Y-96350000D01*
X113220332Y-96605302D01*
X112909263Y-97070849D01*
X112800030Y-97620000D01*
X112909263Y-98169151D01*
X113220332Y-98634698D01*
X113602418Y-98890000D01*
X113220332Y-99145302D01*
X112909263Y-99610849D01*
X112800030Y-100160000D01*
X112909263Y-100709151D01*
X113220332Y-101174698D01*
X113602418Y-101430000D01*
X113220332Y-101685302D01*
X112909263Y-102150849D01*
X112800030Y-102700000D01*
X112909263Y-103249151D01*
X113220332Y-103714698D01*
X113598151Y-103967149D01*
X113165500Y-104315104D01*
X112895633Y-104808181D01*
X112878096Y-104890961D01*
X113000085Y-105113000D01*
X114493000Y-105113000D01*
X114493000Y-105093000D01*
X114747000Y-105093000D01*
X114747000Y-105113000D01*
X116239915Y-105113000D01*
X116361904Y-104890961D01*
X116344367Y-104808181D01*
X116074500Y-104315104D01*
X115641849Y-103967149D01*
X115839624Y-103835000D01*
X119022447Y-103835000D01*
X119072637Y-103885278D01*
X119673352Y-104134716D01*
X120323795Y-104135284D01*
X120924943Y-103886894D01*
X121159715Y-103652532D01*
X123527073Y-103652532D01*
X123625736Y-103919387D01*
X124235461Y-104145908D01*
X124885460Y-104121856D01*
X125374264Y-103919387D01*
X125472927Y-103652532D01*
X124500000Y-102679605D01*
X123527073Y-103652532D01*
X121159715Y-103652532D01*
X121385278Y-103427363D01*
X121634716Y-102826648D01*
X121635232Y-102235461D01*
X122854092Y-102235461D01*
X122878144Y-102885460D01*
X123080613Y-103374264D01*
X123347468Y-103472927D01*
X124320395Y-102500000D01*
X124679605Y-102500000D01*
X125652532Y-103472927D01*
X125919387Y-103374264D01*
X126145908Y-102764539D01*
X126121856Y-102114540D01*
X125919387Y-101625736D01*
X125652532Y-101527073D01*
X124679605Y-102500000D01*
X124320395Y-102500000D01*
X123347468Y-101527073D01*
X123080613Y-101625736D01*
X122854092Y-102235461D01*
X121635232Y-102235461D01*
X121635284Y-102176205D01*
X121386894Y-101575057D01*
X121159703Y-101347468D01*
X123527073Y-101347468D01*
X124500000Y-102320395D01*
X125472927Y-101347468D01*
X125374264Y-101080613D01*
X124764539Y-100854092D01*
X124114540Y-100878144D01*
X123625736Y-101080613D01*
X123527073Y-101347468D01*
X121159703Y-101347468D01*
X120927363Y-101114722D01*
X120326648Y-100865284D01*
X119676205Y-100864716D01*
X119075057Y-101113106D01*
X118622372Y-101565000D01*
X115839624Y-101565000D01*
X115637582Y-101430000D01*
X115839624Y-101295000D01*
X116840000Y-101295000D01*
X117274346Y-101208603D01*
X117642566Y-100962566D01*
X118271812Y-100333320D01*
X130226285Y-100333320D01*
X130355533Y-100626123D01*
X131055806Y-100894388D01*
X131805435Y-100874250D01*
X132404467Y-100626123D01*
X132533715Y-100333320D01*
X131380000Y-99179605D01*
X130226285Y-100333320D01*
X118271812Y-100333320D01*
X119929326Y-98675806D01*
X129485612Y-98675806D01*
X129505750Y-99425435D01*
X129753877Y-100024467D01*
X130046680Y-100153715D01*
X131200395Y-99000000D01*
X131559605Y-99000000D01*
X132713320Y-100153715D01*
X133006123Y-100024467D01*
X133274388Y-99324194D01*
X133254250Y-98574565D01*
X133006123Y-97975533D01*
X132713320Y-97846285D01*
X131559605Y-99000000D01*
X131200395Y-99000000D01*
X130046680Y-97846285D01*
X129753877Y-97975533D01*
X129485612Y-98675806D01*
X119929326Y-98675806D01*
X119970157Y-98634975D01*
X120323795Y-98635284D01*
X120924943Y-98386894D01*
X121159715Y-98152532D01*
X123527073Y-98152532D01*
X123625736Y-98419387D01*
X124235461Y-98645908D01*
X124885460Y-98621856D01*
X125374264Y-98419387D01*
X125472927Y-98152532D01*
X124500000Y-97179605D01*
X123527073Y-98152532D01*
X121159715Y-98152532D01*
X121385278Y-97927363D01*
X121634716Y-97326648D01*
X121635232Y-96735461D01*
X122854092Y-96735461D01*
X122878144Y-97385460D01*
X123080613Y-97874264D01*
X123347468Y-97972927D01*
X124320395Y-97000000D01*
X124679605Y-97000000D01*
X125652532Y-97972927D01*
X125919387Y-97874264D01*
X125996507Y-97666680D01*
X130226285Y-97666680D01*
X131380000Y-98820395D01*
X132533715Y-97666680D01*
X132404467Y-97373877D01*
X131704194Y-97105612D01*
X130954565Y-97125750D01*
X130355533Y-97373877D01*
X130226285Y-97666680D01*
X125996507Y-97666680D01*
X126145908Y-97264539D01*
X126121856Y-96614540D01*
X125930334Y-96152163D01*
X130217443Y-96152163D01*
X130316042Y-96418965D01*
X130925582Y-96645401D01*
X131575377Y-96621341D01*
X132063958Y-96418965D01*
X132162557Y-96152163D01*
X131190000Y-95179605D01*
X130217443Y-96152163D01*
X125930334Y-96152163D01*
X125919387Y-96125736D01*
X125652532Y-96027073D01*
X124679605Y-97000000D01*
X124320395Y-97000000D01*
X123347468Y-96027073D01*
X123080613Y-96125736D01*
X122854092Y-96735461D01*
X121635232Y-96735461D01*
X121635284Y-96676205D01*
X121386894Y-96075057D01*
X121159703Y-95847468D01*
X123527073Y-95847468D01*
X124500000Y-96820395D01*
X125472927Y-95847468D01*
X125374264Y-95580613D01*
X124764539Y-95354092D01*
X124114540Y-95378144D01*
X123625736Y-95580613D01*
X123527073Y-95847468D01*
X121159703Y-95847468D01*
X120927363Y-95614722D01*
X120326648Y-95365284D01*
X119676205Y-95364716D01*
X119075057Y-95613106D01*
X118614722Y-96072637D01*
X118365284Y-96673352D01*
X118364973Y-97029895D01*
X116369868Y-99025000D01*
X115839624Y-99025000D01*
X115637582Y-98890000D01*
X116019668Y-98634698D01*
X116330737Y-98169151D01*
X116439970Y-97620000D01*
X116330737Y-97070849D01*
X116019668Y-96605302D01*
X115637582Y-96350000D01*
X116019668Y-96094698D01*
X116330737Y-95629151D01*
X116439970Y-95080000D01*
X116330737Y-94530849D01*
X116019668Y-94065302D01*
X115637582Y-93810000D01*
X115839624Y-93675000D01*
X116069868Y-93675000D01*
X117197434Y-94802566D01*
X117565654Y-95048603D01*
X118000000Y-95135000D01*
X125000000Y-95135000D01*
X125434346Y-95048603D01*
X125802566Y-94802566D01*
X125869550Y-94735582D01*
X129544599Y-94735582D01*
X129568659Y-95385377D01*
X129771035Y-95873958D01*
X130037837Y-95972557D01*
X131010395Y-95000000D01*
X131369605Y-95000000D01*
X132342163Y-95972557D01*
X132608965Y-95873958D01*
X132835401Y-95264418D01*
X132811341Y-94614623D01*
X132608965Y-94126042D01*
X132342163Y-94027443D01*
X131369605Y-95000000D01*
X131010395Y-95000000D01*
X130037837Y-94027443D01*
X129771035Y-94126042D01*
X129544599Y-94735582D01*
X125869550Y-94735582D01*
X126757295Y-93847837D01*
X130217443Y-93847837D01*
X131190000Y-94820395D01*
X132162557Y-93847837D01*
X132063958Y-93581035D01*
X131454418Y-93354599D01*
X130804623Y-93378659D01*
X130316042Y-93581035D01*
X130217443Y-93847837D01*
X126757295Y-93847837D01*
X127470132Y-93135000D01*
X135976919Y-93135000D01*
X135595090Y-93353070D01*
X134000510Y-93353070D01*
X133765193Y-93397348D01*
X133549069Y-93536420D01*
X133404079Y-93748620D01*
X133353070Y-94000510D01*
X133353070Y-95999490D01*
X133397348Y-96234807D01*
X133536420Y-96450931D01*
X133748620Y-96595921D01*
X134000510Y-96646930D01*
X135999490Y-96646930D01*
X136234807Y-96602652D01*
X136450931Y-96463580D01*
X136595921Y-96251380D01*
X136646930Y-95999490D01*
X136646930Y-95366471D01*
X137865000Y-94670808D01*
X137865000Y-97469551D01*
X137402907Y-97930839D01*
X137115328Y-98623405D01*
X137114674Y-99373305D01*
X137401043Y-100066372D01*
X137930839Y-100597093D01*
X138623405Y-100884672D01*
X139373305Y-100885326D01*
X140066372Y-100598957D01*
X140332472Y-100333320D01*
X144226285Y-100333320D01*
X144355533Y-100626123D01*
X145055806Y-100894388D01*
X145805435Y-100874250D01*
X146404467Y-100626123D01*
X146533715Y-100333320D01*
X145380000Y-99179605D01*
X144226285Y-100333320D01*
X140332472Y-100333320D01*
X140597093Y-100069161D01*
X140884672Y-99376595D01*
X140885283Y-98675806D01*
X143485612Y-98675806D01*
X143505750Y-99425435D01*
X143753877Y-100024467D01*
X144046680Y-100153715D01*
X145200395Y-99000000D01*
X145559605Y-99000000D01*
X146713320Y-100153715D01*
X147006123Y-100024467D01*
X147274388Y-99324194D01*
X147254250Y-98574565D01*
X147006123Y-97975533D01*
X146713320Y-97846285D01*
X145559605Y-99000000D01*
X145200395Y-99000000D01*
X144046680Y-97846285D01*
X143753877Y-97975533D01*
X143485612Y-98675806D01*
X140885283Y-98675806D01*
X140885326Y-98626695D01*
X140598957Y-97933628D01*
X140332475Y-97666680D01*
X144226285Y-97666680D01*
X145380000Y-98820395D01*
X146533715Y-97666680D01*
X146404467Y-97373877D01*
X145704194Y-97105612D01*
X144954565Y-97125750D01*
X144355533Y-97373877D01*
X144226285Y-97666680D01*
X140332475Y-97666680D01*
X140135000Y-97468861D01*
X140135000Y-96152163D01*
X143217443Y-96152163D01*
X143316042Y-96418965D01*
X143925582Y-96645401D01*
X144575377Y-96621341D01*
X145063958Y-96418965D01*
X145162557Y-96152163D01*
X144190000Y-95179605D01*
X143217443Y-96152163D01*
X140135000Y-96152163D01*
X140135000Y-94735582D01*
X142544599Y-94735582D01*
X142568659Y-95385377D01*
X142771035Y-95873958D01*
X143037837Y-95972557D01*
X144010395Y-95000000D01*
X144369605Y-95000000D01*
X145342163Y-95972557D01*
X145608965Y-95873958D01*
X145835401Y-95264418D01*
X145811341Y-94614623D01*
X145608965Y-94126042D01*
X145342163Y-94027443D01*
X144369605Y-95000000D01*
X144010395Y-95000000D01*
X143037837Y-94027443D01*
X142771035Y-94126042D01*
X142544599Y-94735582D01*
X140135000Y-94735582D01*
X140135000Y-93847837D01*
X143217443Y-93847837D01*
X144190000Y-94820395D01*
X145162557Y-93847837D01*
X145063958Y-93581035D01*
X144454418Y-93354599D01*
X143804623Y-93378659D01*
X143316042Y-93581035D01*
X143217443Y-93847837D01*
X140135000Y-93847837D01*
X140135000Y-93678384D01*
X140384846Y-93428973D01*
X140634206Y-92828447D01*
X140634774Y-92178206D01*
X140386462Y-91577245D01*
X139927073Y-91117054D01*
X139326547Y-90867694D01*
X138676306Y-90867126D01*
X138621868Y-90889619D01*
X138498100Y-90865000D01*
X127000000Y-90865000D01*
X126565654Y-90951397D01*
X126335771Y-91105000D01*
X126197434Y-91197434D01*
X124529868Y-92865000D01*
X118470132Y-92865000D01*
X117342566Y-91737434D01*
X117215501Y-91652532D01*
X116974346Y-91491397D01*
X116540000Y-91405000D01*
X115839624Y-91405000D01*
X115637582Y-91270000D01*
X116019668Y-91014698D01*
X116147225Y-90823795D01*
X118364716Y-90823795D01*
X118613106Y-91424943D01*
X119072637Y-91885278D01*
X119673352Y-92134716D01*
X120323795Y-92135284D01*
X120924943Y-91886894D01*
X121159715Y-91652532D01*
X123527073Y-91652532D01*
X123625736Y-91919387D01*
X124235461Y-92145908D01*
X124885460Y-92121856D01*
X125374264Y-91919387D01*
X125472927Y-91652532D01*
X124500000Y-90679605D01*
X123527073Y-91652532D01*
X121159715Y-91652532D01*
X121385278Y-91427363D01*
X121634716Y-90826648D01*
X121635232Y-90235461D01*
X122854092Y-90235461D01*
X122878144Y-90885460D01*
X123080613Y-91374264D01*
X123347468Y-91472927D01*
X124320395Y-90500000D01*
X124679605Y-90500000D01*
X125652532Y-91472927D01*
X125919387Y-91374264D01*
X126145908Y-90764539D01*
X126121856Y-90114540D01*
X125919387Y-89625736D01*
X125652532Y-89527073D01*
X124679605Y-90500000D01*
X124320395Y-90500000D01*
X123347468Y-89527073D01*
X123080613Y-89625736D01*
X122854092Y-90235461D01*
X121635232Y-90235461D01*
X121635284Y-90176205D01*
X121386894Y-89575057D01*
X121159703Y-89347468D01*
X123527073Y-89347468D01*
X124500000Y-90320395D01*
X125472927Y-89347468D01*
X125374264Y-89080613D01*
X124764539Y-88854092D01*
X124114540Y-88878144D01*
X123625736Y-89080613D01*
X123527073Y-89347468D01*
X121159703Y-89347468D01*
X120927363Y-89114722D01*
X120326648Y-88865284D01*
X119676205Y-88864716D01*
X119075057Y-89113106D01*
X118614722Y-89572637D01*
X118365284Y-90173352D01*
X118364716Y-90823795D01*
X116147225Y-90823795D01*
X116330737Y-90549151D01*
X116439970Y-90000000D01*
X116330737Y-89450849D01*
X116019668Y-88985302D01*
X115755000Y-88808456D01*
X115755000Y-87850132D01*
X116319382Y-87285750D01*
X129415000Y-87285750D01*
X129415000Y-88126309D01*
X129511673Y-88359698D01*
X129690301Y-88538327D01*
X129923690Y-88635000D01*
X130714250Y-88635000D01*
X130873000Y-88476250D01*
X130873000Y-87127000D01*
X129573750Y-87127000D01*
X129415000Y-87285750D01*
X116319382Y-87285750D01*
X117731441Y-85873691D01*
X129415000Y-85873691D01*
X129415000Y-86714250D01*
X129573750Y-86873000D01*
X130873000Y-86873000D01*
X130873000Y-85523750D01*
X131127000Y-85523750D01*
X131127000Y-86873000D01*
X131147000Y-86873000D01*
X131147000Y-87127000D01*
X131127000Y-87127000D01*
X131127000Y-88476250D01*
X131285750Y-88635000D01*
X132076310Y-88635000D01*
X132309699Y-88538327D01*
X132488327Y-88359698D01*
X132538012Y-88239749D01*
X132640997Y-88342914D01*
X133223341Y-88584724D01*
X133853893Y-88585275D01*
X134436657Y-88344481D01*
X134646504Y-88135000D01*
X137493591Y-88135000D01*
X137613538Y-88425295D01*
X138072927Y-88885486D01*
X138673453Y-89134846D01*
X139323694Y-89135414D01*
X139924655Y-88887102D01*
X140384846Y-88427713D01*
X140634206Y-87827187D01*
X140634678Y-87285750D01*
X142415000Y-87285750D01*
X142415000Y-88126309D01*
X142511673Y-88359698D01*
X142690301Y-88538327D01*
X142923690Y-88635000D01*
X143714250Y-88635000D01*
X143873000Y-88476250D01*
X143873000Y-87127000D01*
X142573750Y-87127000D01*
X142415000Y-87285750D01*
X140634678Y-87285750D01*
X140634774Y-87176946D01*
X140386462Y-86575985D01*
X139927073Y-86115794D01*
X139344024Y-85873691D01*
X142415000Y-85873691D01*
X142415000Y-86714250D01*
X142573750Y-86873000D01*
X143873000Y-86873000D01*
X143873000Y-85523750D01*
X144127000Y-85523750D01*
X144127000Y-86873000D01*
X144147000Y-86873000D01*
X144147000Y-87127000D01*
X144127000Y-87127000D01*
X144127000Y-88476250D01*
X144285750Y-88635000D01*
X145076310Y-88635000D01*
X145309699Y-88538327D01*
X145488327Y-88359698D01*
X145538012Y-88239749D01*
X145640997Y-88342914D01*
X146223341Y-88584724D01*
X146787145Y-88585217D01*
X147040640Y-88635640D01*
X150823516Y-88635640D01*
X151072927Y-88885486D01*
X151673453Y-89134846D01*
X152323694Y-89135414D01*
X152924655Y-88887102D01*
X153384846Y-88427713D01*
X153634206Y-87827187D01*
X153634774Y-87176946D01*
X153386462Y-86575985D01*
X152927073Y-86115794D01*
X152326547Y-85866434D01*
X151676306Y-85865866D01*
X151075345Y-86114178D01*
X150823444Y-86365640D01*
X147992860Y-86365640D01*
X147884481Y-86103343D01*
X147439003Y-85657086D01*
X146856659Y-85415276D01*
X146226107Y-85414725D01*
X145643343Y-85655519D01*
X145538133Y-85760545D01*
X145488327Y-85640302D01*
X145309699Y-85461673D01*
X145076310Y-85365000D01*
X144285750Y-85365000D01*
X144127000Y-85523750D01*
X143873000Y-85523750D01*
X143714250Y-85365000D01*
X142923690Y-85365000D01*
X142690301Y-85461673D01*
X142511673Y-85640302D01*
X142415000Y-85873691D01*
X139344024Y-85873691D01*
X139326547Y-85866434D01*
X138676306Y-85865866D01*
X138620219Y-85889040D01*
X138499360Y-85865000D01*
X134646554Y-85865000D01*
X134439003Y-85657086D01*
X133856659Y-85415276D01*
X133226107Y-85414725D01*
X132643343Y-85655519D01*
X132538133Y-85760545D01*
X132488327Y-85640302D01*
X132309699Y-85461673D01*
X132076310Y-85365000D01*
X131285750Y-85365000D01*
X131127000Y-85523750D01*
X130873000Y-85523750D01*
X130714250Y-85365000D01*
X129923690Y-85365000D01*
X129690301Y-85461673D01*
X129511673Y-85640302D01*
X129415000Y-85873691D01*
X117731441Y-85873691D01*
X120470132Y-83135000D01*
X151529868Y-83135000D01*
X155645818Y-87250950D01*
X152029334Y-90867434D01*
X151676306Y-90867126D01*
X151075345Y-91115438D01*
X150615154Y-91574827D01*
X150391481Y-92113492D01*
X148221042Y-93353070D01*
X147000510Y-93353070D01*
X146765193Y-93397348D01*
X146549069Y-93536420D01*
X146404079Y-93748620D01*
X146353070Y-94000510D01*
X146353070Y-95999490D01*
X146397348Y-96234807D01*
X146536420Y-96450931D01*
X146748620Y-96595921D01*
X147000510Y-96646930D01*
X148999490Y-96646930D01*
X149234807Y-96602652D01*
X149450931Y-96463580D01*
X149595921Y-96251380D01*
X149646930Y-95999490D01*
X149646930Y-95152845D01*
X151530861Y-94076897D01*
X151673453Y-94136106D01*
X151865000Y-94136273D01*
X151865000Y-97469551D01*
X151402907Y-97930839D01*
X151115328Y-98623405D01*
X151114674Y-99373305D01*
X151401043Y-100066372D01*
X151930839Y-100597093D01*
X152623405Y-100884672D01*
X153373305Y-100885326D01*
X154066372Y-100598957D01*
X154597093Y-100069161D01*
X154884672Y-99376595D01*
X154885326Y-98626695D01*
X154598957Y-97933628D01*
X154135000Y-97468861D01*
X154135000Y-93501900D01*
X154125332Y-93453297D01*
X154048604Y-93067555D01*
X153802567Y-92699334D01*
X153634466Y-92531233D01*
X153634517Y-92472515D01*
X157802566Y-88304466D01*
X157884017Y-88182566D01*
X158048603Y-87936246D01*
X158135000Y-87501900D01*
X158135000Y-87000000D01*
X158048603Y-86565654D01*
X157802566Y-86197434D01*
X152802566Y-81197434D01*
X152434346Y-80951397D01*
X152000000Y-80865000D01*
X120000000Y-80865000D01*
X119565654Y-80951397D01*
X119197434Y-81197434D01*
X113817434Y-86577434D01*
X113571397Y-86945654D01*
X113485000Y-87380000D01*
X113485000Y-88808456D01*
X113220332Y-88985302D01*
X112909263Y-89450849D01*
X112800030Y-90000000D01*
X108819970Y-90000000D01*
X108710737Y-89450849D01*
X108399668Y-88985302D01*
X107934121Y-88674233D01*
X107384970Y-88565000D01*
X106615030Y-88565000D01*
X106065879Y-88674233D01*
X105600332Y-88985302D01*
X105289263Y-89450849D01*
X105180030Y-90000000D01*
X105289263Y-90549151D01*
X105600332Y-91014698D01*
X105982418Y-91270000D01*
X105780376Y-91405000D01*
X103010133Y-91405000D01*
X100802566Y-89197434D01*
X100434346Y-88951397D01*
X100000000Y-88865000D01*
X97823958Y-88865000D01*
X97785564Y-88826539D01*
X97276702Y-88615241D01*
X96725715Y-88614760D01*
X96216485Y-88825169D01*
X95826539Y-89214436D01*
X95615241Y-89723298D01*
X95614760Y-90274285D01*
X95825169Y-90783515D01*
X96041313Y-91000036D01*
X95826539Y-91214436D01*
X95615241Y-91723298D01*
X95614760Y-92274285D01*
X95820362Y-92771880D01*
X95798559Y-92785910D01*
X95653569Y-92998110D01*
X95602560Y-93250000D01*
X95602560Y-94750000D01*
X95646838Y-94985317D01*
X95748615Y-95143483D01*
X94802566Y-94197434D01*
X94695720Y-94126042D01*
X94434346Y-93951397D01*
X94000000Y-93865000D01*
X93622038Y-93865000D01*
X93603162Y-93764683D01*
X93464090Y-93548559D01*
X93251890Y-93403569D01*
X93000000Y-93352560D01*
X91000000Y-93352560D01*
X90764683Y-93396838D01*
X90548559Y-93535910D01*
X90403569Y-93748110D01*
X90352560Y-94000000D01*
X88647440Y-94000000D01*
X88603162Y-93764683D01*
X88464090Y-93548559D01*
X88251890Y-93403569D01*
X88000000Y-93352560D01*
X86000000Y-93352560D01*
X85764683Y-93396838D01*
X85548559Y-93535910D01*
X85403569Y-93748110D01*
X85352560Y-94000000D01*
X85352560Y-96000000D01*
X85396838Y-96235317D01*
X85535910Y-96451441D01*
X85748110Y-96596431D01*
X86000000Y-96647440D01*
X87042308Y-96647440D01*
X92259867Y-101865000D01*
X88922038Y-101865000D01*
X88903162Y-101764683D01*
X88764090Y-101548559D01*
X88597380Y-101434651D01*
X88859144Y-100968355D01*
X88890124Y-100840434D01*
X88770777Y-100587000D01*
X87127000Y-100587000D01*
X87127000Y-100607000D01*
X86873000Y-100607000D01*
X86873000Y-100587000D01*
X85229223Y-100587000D01*
X85109876Y-100840434D01*
X85140856Y-100968355D01*
X85403495Y-101436211D01*
X85248559Y-101535910D01*
X85103569Y-101748110D01*
X85052560Y-102000000D01*
X80710000Y-102000000D01*
X80710000Y-100079566D01*
X85109876Y-100079566D01*
X85229223Y-100333000D01*
X86873000Y-100333000D01*
X86873000Y-98825000D01*
X87127000Y-98825000D01*
X87127000Y-100333000D01*
X88770777Y-100333000D01*
X88890124Y-100079566D01*
X88859144Y-99951645D01*
X88545922Y-99393683D01*
X88043020Y-98998058D01*
X87427000Y-98825000D01*
X87127000Y-98825000D01*
X86873000Y-98825000D01*
X86573000Y-98825000D01*
X85956980Y-98998058D01*
X85454078Y-99393683D01*
X85140856Y-99951645D01*
X85109876Y-100079566D01*
X80710000Y-100079566D01*
X80710000Y-90899016D01*
X86280590Y-90899016D01*
X86336271Y-91129611D01*
X86819078Y-91297622D01*
X87329428Y-91268083D01*
X87663729Y-91129611D01*
X87719410Y-90899016D01*
X91280590Y-90899016D01*
X91336271Y-91129611D01*
X91819078Y-91297622D01*
X92329428Y-91268083D01*
X92663729Y-91129611D01*
X92719410Y-90899016D01*
X92000000Y-90179605D01*
X91280590Y-90899016D01*
X87719410Y-90899016D01*
X87000000Y-90179605D01*
X86280590Y-90899016D01*
X80710000Y-90899016D01*
X80710000Y-89819078D01*
X85702378Y-89819078D01*
X85731917Y-90329428D01*
X85870389Y-90663729D01*
X86100984Y-90719410D01*
X86820395Y-90000000D01*
X87179605Y-90000000D01*
X87899016Y-90719410D01*
X88129611Y-90663729D01*
X88297622Y-90180922D01*
X88276679Y-89819078D01*
X90702378Y-89819078D01*
X90731917Y-90329428D01*
X90870389Y-90663729D01*
X91100984Y-90719410D01*
X91820395Y-90000000D01*
X92179605Y-90000000D01*
X92899016Y-90719410D01*
X93129611Y-90663729D01*
X93297622Y-90180922D01*
X93268083Y-89670572D01*
X93129611Y-89336271D01*
X92899016Y-89280590D01*
X92179605Y-90000000D01*
X91820395Y-90000000D01*
X91100984Y-89280590D01*
X90870389Y-89336271D01*
X90702378Y-89819078D01*
X88276679Y-89819078D01*
X88268083Y-89670572D01*
X88129611Y-89336271D01*
X87899016Y-89280590D01*
X87179605Y-90000000D01*
X86820395Y-90000000D01*
X86100984Y-89280590D01*
X85870389Y-89336271D01*
X85702378Y-89819078D01*
X80710000Y-89819078D01*
X80710000Y-89100984D01*
X86280590Y-89100984D01*
X87000000Y-89820395D01*
X87719410Y-89100984D01*
X91280590Y-89100984D01*
X92000000Y-89820395D01*
X92719410Y-89100984D01*
X92663729Y-88870389D01*
X92180922Y-88702378D01*
X91670572Y-88731917D01*
X91336271Y-88870389D01*
X91280590Y-89100984D01*
X87719410Y-89100984D01*
X87663729Y-88870389D01*
X87180922Y-88702378D01*
X86670572Y-88731917D01*
X86336271Y-88870389D01*
X86280590Y-89100984D01*
X80710000Y-89100984D01*
X80710000Y-84285750D01*
X83365000Y-84285750D01*
X83365000Y-85426310D01*
X83461673Y-85659699D01*
X83640302Y-85838327D01*
X83873691Y-85935000D01*
X84714250Y-85935000D01*
X84873000Y-85776250D01*
X84873000Y-84127000D01*
X85127000Y-84127000D01*
X85127000Y-85776250D01*
X85285750Y-85935000D01*
X86126309Y-85935000D01*
X86359698Y-85838327D01*
X86538327Y-85659699D01*
X86564368Y-85596830D01*
X87031645Y-85859144D01*
X87159566Y-85890124D01*
X87413000Y-85770777D01*
X87413000Y-84127000D01*
X87667000Y-84127000D01*
X87667000Y-85770777D01*
X87920434Y-85890124D01*
X88048355Y-85859144D01*
X88606317Y-85545922D01*
X88810000Y-85287009D01*
X89013683Y-85545922D01*
X89571645Y-85859144D01*
X89699566Y-85890124D01*
X89953000Y-85770777D01*
X89953000Y-84127000D01*
X90207000Y-84127000D01*
X90207000Y-85770777D01*
X90460434Y-85890124D01*
X90588355Y-85859144D01*
X91146317Y-85545922D01*
X91541942Y-85043020D01*
X91715000Y-84427000D01*
X91715000Y-84127000D01*
X90207000Y-84127000D01*
X89953000Y-84127000D01*
X87667000Y-84127000D01*
X87413000Y-84127000D01*
X85127000Y-84127000D01*
X84873000Y-84127000D01*
X83523750Y-84127000D01*
X83365000Y-84285750D01*
X80710000Y-84285750D01*
X80710000Y-82573690D01*
X83365000Y-82573690D01*
X83365000Y-83714250D01*
X83523750Y-83873000D01*
X84873000Y-83873000D01*
X84873000Y-82223750D01*
X85127000Y-82223750D01*
X85127000Y-83873000D01*
X87413000Y-83873000D01*
X87413000Y-82229223D01*
X87667000Y-82229223D01*
X87667000Y-83873000D01*
X89953000Y-83873000D01*
X89953000Y-82229223D01*
X90207000Y-82229223D01*
X90207000Y-83873000D01*
X91715000Y-83873000D01*
X91715000Y-83573000D01*
X91541942Y-82956980D01*
X91146317Y-82454078D01*
X90588355Y-82140856D01*
X90460434Y-82109876D01*
X90207000Y-82229223D01*
X89953000Y-82229223D01*
X89699566Y-82109876D01*
X89571645Y-82140856D01*
X89013683Y-82454078D01*
X88810000Y-82712991D01*
X88606317Y-82454078D01*
X88048355Y-82140856D01*
X87920434Y-82109876D01*
X87667000Y-82229223D01*
X87413000Y-82229223D01*
X87159566Y-82109876D01*
X87031645Y-82140856D01*
X86564368Y-82403170D01*
X86538327Y-82340301D01*
X86359698Y-82161673D01*
X86126309Y-82065000D01*
X85285750Y-82065000D01*
X85127000Y-82223750D01*
X84873000Y-82223750D01*
X84714250Y-82065000D01*
X83873691Y-82065000D01*
X83640302Y-82161673D01*
X83461673Y-82340301D01*
X83365000Y-82573690D01*
X80710000Y-82573690D01*
X80710000Y-80710000D01*
X159290000Y-80710000D01*
X159290000Y-129290000D01*
M02*
