M48
INCH,TZ
T1C0.031
T2C0.032
T3C0.039
T4C0.043
T5C0.047
T6C0.050
T7C0.055
%
G90
G05
T1
X34252Y-35433
X34252Y-37402
X34252Y-43307
X34252Y-45276
X36220Y-35433
X36220Y-37402
X38189Y-35433
X38189Y-36220
X38189Y-37008
X42126Y-35433
X42126Y-36433
X42126Y-37433
X42126Y-38433
X42126Y-39433
X42126Y-40433
X42126Y-41433
X42126Y-42433
X42126Y-43433
X42126Y-44433
X42126Y-45433
X42126Y-46433
X42126Y-47433
X42126Y-48433
X45126Y-35433
X45126Y-36433
X45126Y-37433
X45126Y-38433
X45126Y-39433
X45126Y-40433
X45126Y-41433
X45126Y-42433
X45126Y-43433
X45126Y-44433
X45126Y-45433
X45126Y-46433
X45126Y-47433
X45126Y-48433
T2
X33268Y-43307
X33268Y-45276
X36220Y-43527
X36220Y-45449
T3
X37583Y-40551
X38583Y-40551
X39583Y-40551
X47441Y-48425
X47638Y-45669
X48638Y-45669
X49410Y-48425
X51575Y-34252
X52575Y-34252
X53150Y-37402
X54724Y-34449
X54724Y-36418
X56693Y-34252
X57693Y-34252
X58268Y-37402
X59843Y-34449
X59843Y-36418
T4
X37795Y-47244
X37795Y-49016
X40354Y-47244
X40354Y-49016
X47244Y-35630
X47244Y-38189
X47244Y-40354
X47244Y-42913
X49016Y-35630
X49016Y-38189
X49016Y-40354
X49016Y-42913
T5
X34252Y-39551
X34252Y-40551
X52150Y-48425
X53150Y-48425
X55693Y-48425
X56693Y-48425
X58843Y-48425
X59843Y-48425
T6
X51650Y-37402
X56768Y-37402
T7
X51724Y-38976
X51724Y-41976
X51724Y-43976
X51724Y-45976
X54724Y-38976
X54724Y-41976
X54724Y-43976
X54724Y-45976
X57236Y-38976
X57236Y-41976
X57236Y-43976
X57236Y-45976
X60236Y-38976
X60236Y-41976
X60236Y-43976
X60236Y-45976
T0
M30
